/* XPM */
static char *_a201364390a44eb9930553024e87ff4R4lJImcWI2XxnIOw[] = {
/* columns rows colors chars-per-pixel */
"40 40 218 2 ",
"   c #040303",
".  c #0C0B0A",
"X  c #151312",
"o  c #16171B",
"O  c #1B1A1C",
"+  c #1A1919",
"@  c #211F1E",
"#  c #25221E",
"$  c #201F21",
"%  c #1E2C3E",
"&  c #292626",
"*  c #322E28",
"=  c #39332E",
"-  c #2A2C39",
";  c #3E3935",
":  c #3A3735",
">  c #2F3636",
",  c #433C36",
"<  c #493F37",
"1  c #453F3A",
"2  c #483F38",
"3  c #46413B",
"4  c #4C423A",
"5  c #52463B",
"6  c #584A3B",
"7  c #5C4E33",
"8  c #654A27",
"9  c #6D553A",
"0  c #73573B",
"q  c #7A6E3E",
"w  c #0C184B",
"e  c #161F45",
"r  c #04175F",
"t  c #1A3856",
"y  c #3E3B47",
"u  c #03186A",
"i  c #031B74",
"p  c #093A62",
"a  c #062873",
"s  c #1E515E",
"d  c #2E4D52",
"f  c #094775",
"g  c #08557D",
"h  c #0F596C",
"j  c #136177",
"k  c #4E4944",
"l  c #4B4643",
"z  c #544B44",
"x  c #5A4E43",
"c  c #554F4A",
"v  c #5E5146",
"b  c #5B544C",
"n  c #55504A",
"m  c #565452",
"M  c #615347",
"N  c #62554A",
"B  c #66594D",
"V  c #6A5B4F",
"C  c #695D45",
"Z  c #795E40",
"A  c #645B51",
"S  c #6B5D51",
"D  c #665F58",
"F  c #6E6054",
"G  c #6C655C",
"H  c #746456",
"J  c #73665B",
"K  c #75695C",
"L  c #7C6B5C",
"P  c #796857",
"I  c #7E6141",
"U  c #5E6764",
"Y  c #6B6863",
"T  c #736C63",
"R  c #7D7367",
"E  c #797674",
"W  c #8C5D2A",
"Q  c #966D38",
"!  c #876846",
"~  c #83794A",
"^  c #846D58",
"/  c #8A7558",
"(  c #957653",
")  c #947A5B",
"_  c #816F60",
"`  c #847363",
"'  c #887667",
"]  c #81776B",
"[  c #82796D",
"{  c #8D7A6A",
"}  c #897966",
"|  c #917D6D",
" . c #927C61",
".. c #867D72",
"X. c #8A7F71",
"o. c #917F70",
"O. c #938952",
"+. c #A78459",
"@. c #B88B59",
"#. c #A59C57",
"$. c #B5AF54",
"%. c #8D836B",
"&. c #97886E",
"*. c #989268",
"=. c #8E8578",
"-. c #968272",
";. c #998675",
":. c #9D8877",
">. c #928678",
",. c #948A7C",
"<. c #9C8E7D",
"1. c #958A73",
"2. c #9C927E",
"3. c #AF956A",
"4. c #A79269",
"5. c #A28C7A",
"6. c #A6917A",
"7. c #A38F67",
"8. c #AAA774",
"9. c #BAA57F",
"0. c #C2BC58",
"q. c #C99A63",
"w. c #DCA467",
"e. c #C8A978",
"r. c #DCB67D",
"t. c #E5B67D",
"y. c #EFB979",
"u. c #F5B671",
"i. c #F7BE7B",
"p. c #CBC76C",
"a. c #011D84",
"s. c #022887",
"d. c #013D9C",
"f. c #034985",
"g. c #085C84",
"h. c #01489E",
"j. c #0A6588",
"k. c #0A7793",
"l. c #0058AD",
"z. c #0156AD",
"x. c #0066B6",
"c. c #0173BE",
"v. c #0178C1",
"b. c #0188C9",
"n. c #0199D2",
"m. c #03A2CA",
"M. c #01ABDB",
"N. c #01A2D8",
"B. c #02B3DF",
"V. c #02B7E2",
"C. c #858482",
"Z. c #9A9387",
"A. c #9C9A97",
"S. c #A19585",
"D. c #AA9D8C",
"F. c #A59685",
"G. c #AB9F90",
"H. c #AAA48E",
"J. c #B7A988",
"K. c #A9A399",
"L. c #B3A693",
"P. c #BAAD9B",
"I. c #B7A998",
"U. c #BDB19E",
"Y. c #B5B299",
"T. c #BEB2A1",
"R. c #BAB3AC",
"E. c #B5B4B2",
"W. c #CCB385",
"Q. c #C4B49E",
"!. c #C7BB97",
"~. c #D3B790",
"^. c #E7BB89",
"/. c #C5B6A1",
"(. c #C7B8A3",
"). c #CABBA5",
"_. c #C7BAA9",
"`. c #CCBEAA",
"'. c #C5B7A7",
"]. c #D1CE8F",
"[. c #E8C287",
"{. c #FCC983",
"}. c #FAC784",
"|. c #FDD38A",
" X c #FCD494",
".X c #FEDA97",
"XX c #E6C993",
"oX c #CEC1AC",
"OX c #CECBA6",
"+X c #D0C2AE",
"@X c #DBC7A2",
"#X c #DCD9AA",
"$X c #CFC2B1",
"%X c #C9C3BC",
"&X c #D2C5B2",
"*X c #D2C5B2",
"=X c #D5C9B5",
"-X c #D6CAB9",
";X c #D4CABC",
":X c #D4D2B2",
">X c #E7DBAB",
",X c #FDDEA3",
"<X c #F4D3AA",
"1X c #FEE2AC",
"2X c #E8E6BB",
"3X c #FDE3B5",
"4X c #FEE6BB",
"5X c #E3E0AD",
"6X c #CAC8C5",
"7X c #D1CDC8",
"8X c #DAD8D5",
"9X c #D5D1CD",
"0X c #E5DFD8",
"qX c #FDE8C2",
"wX c #EBEAC3",
"eX c #E6E6E4",
"rX c #EAE8E6",
"tX c #F8F8F7",
/* pixels */
"*X).+X+X`.`.).+X&X=X+X`.+X+X+X`.(.Z.A k z k Y P.`.`.`.*X*X=X*X`.+X&X+X`.).&X*X=X",
"oX).`.`.*X).`.`.+X`.`.`.).+X+XP.z N { 5.6.5.| x G Q.`.`.*X`.`.).`.`.+X!.`.`.=X`.",
"+X).`.=X*XoX*XoX=X*X*X).I.,.=.k L -.;.:.5.5.6.F.T D `.*X*X=X*X`.`.+X&X`.=X`.-X`.",
"$X).*XoX`.).&X).`.(.E * + o & A ' | | -.;.5.5.5.6.S ..`.`.$X`.).`.`.`.`.=X*X*X`.",
").oX+X).+X).oX`.I.l o o o o 1 ^ ` ' ' I.6X7XL.:.5.5.z S.`.).`.`.).`.+X).*X`.`.`.",
"`.oX+XoX=XoX*X`.k o o o o & B P L ` 6XtXtXtXtXR.;.:.{ m T.$X`.$X*X`.*X`.=X`.=X`.",
"`.$X&X+X$X).oX[ o o o o o = V H H X.rXA.6X6XZ.8X;.o.:.F T `.`.`.`.*X`.`.`.'.`.`.",
"`.(.).`.*XoX*X= o o o O * < B V F ' 9X: C.C.y 6X| | o.o.z T /.'.I.' m b `.`.&X`.",
").(.).`.+X`.Q.o o O & < , 4 M N B S K.8XeXeX8XF.` ' { { | x , 1 < x S , P.`.`.).",
")./.>.>.C.o.G O & < x z < 4 6 v N N S 6XE.E.R.P T _ ` ' { H M N B S B ; `.`.+X).",
"+XI.& , , , < x V V v x 4 4 5 z z v M J J K T H P ^ L _ ` H z x v x , >.).&X&X&X",
"+X(.: S ' { ' T P V B x 6 4 < 3 < < 1 1 2 2 4 z M V H L ^ F < < < ; ..).`.`.&X+X",
"+XQ.R 4 ` o.{ ` ^ F A M 4 : - - t p p f.g.j.j.j.h d d z V M , = 4 Z.`.(.`.).*X`.",
"*X`.$XD z ' | ' _ S 4 - e u s.h.z.z.c.v.b.n.B.V.V.V.m.k.s > ; D Q.+X`.`.*X`.*X`.",
"`.oX*X*X..b A N k y w u i s.s.d.z.l.x.c.b.n.N.M.V.B.V.V.B.g ..`.`.`.`.`.*X`.*X).",
"`.`.`.*X=X/.Z.z a a u u i i s.a d.h.l.x.v.v.b.b.n.n.N.M.m.h F.`.+X`.+X`.%X`.=X`.",
"+X+X=X+X*X`.oX{ f.s.i a.a.i y / ^ m t f.f.f.g g g g g.j Y A P.oX&X+X&X`.`.`.+X`.",
"(.Q.Q.(.+X(.*XH.p a u w e & F H P ` | ' 4 5 &.W.J.P v L H T I./.Q.`.+X).`.).`.).",
").).+XoX`.).=X).3 9 @.w.w.@.7 3 c b S P ` | H J._ H V N < H.`.(.`.+X`.).=X`.`.).",
"`.!.(.).+XoX+X+X,.9 w.u.u.^.r.A.E.K.E n , x k @XA Y T Y >.).+X).!.).+X+X&X@X&X`.",
"+X(.).`.).(.Q.,.3.e.+.w.u.i.[.Q.tXtXtXK.X A.>.3XI.eXrXK.K.`.oX).).`.).)./.oX`.$X",
"=X+X&X+X=X+X=X[ [.e.e.t.i.i.|.t.(.eXrX9XZ.R.~.3X~.6X6XA L.=X=X*X&X+X=X+X&X*X-X=X",
"`.Q.`.).oXQ.oXP.3..X[.r.u.i.|.|.}.t.^.^.^.<X3X>X<X<X<X] P.`.).(.).`.`.(.`.).*X).",
"+X`.+X`.oXoX*X_.,.e.[.C @.i.|.|. X X|.^.<X3X3X3XqXqXqX] '.`.$X`.`.`.+X`.*X`.`.`.",
"`.+X+X&X&X`.=X+X`.D.<.P.%.) i.|..X.X.XXX1X1X3X3X4XqXL.%.*X$X`.$X@XoX+X`.&X+X*X$X",
").`.+X`.&X).`.`.$X)._.).).5./ q.|..X.X.X.X1X1X4X3XJ.R P.oX`._.`.oX).+X).$X*X$X).",
"`.`.&X`.*X).`.).oX`.oXoX+X+XP.5.%.O.3.e.W.W.9.*.{ ,.T.).`.`.`.`.oXoX+X).oX$X*X).",
"`.`.`.`.*X`.=X`.+X`.oX).`.+X&XH.O.7 O.#.J.Z.7 9 U.oX+XoX*X*X`.).oX+X+XoX*XoX$X`.",
").Q.).).).).*X).oX(.(.!.Q.oXY.*.$.~ 0.5XY.m Z 6 H.).oXoX`.`.).Q.Q.`.`.).+X(.oX/.",
"`.).).).*X+X=X+X+XoX+X(.).U.*.p.$.#.].4.Q , H.H.%.oX*X+X+X`.`.).(.).+X+X=X+X*X`.",
"+X!.).`.).).).`.+X+XoX).oX2.8.p.~ #.Q W 7.OXwX=X%.S.(.oX+X+X+X).).oX+X).).+X+X+X",
"&X`.+X+X&X).oX+X=XoXoXoXT.*.p.0.7 Q Q 9.5X2X2X2X8.*.^ 6./.*X+X+X+X+X+X).).+X=XoX",
"*X).`.&X&X`.&X`.=X&X*X(.>.N ~ q 8 ~ ].#X#X].OX:XO.+.( t. ._.$XoXoX+X*XoX*XoX-XoX",
"`./.`.).).(.+X(.).).`.L.) }.{.{.!         = * + * ! @.q R _.).(.).).)./.oX/.).(.",
"`.&X`.`.&X`.&X`.+X`.`.R.^ i.}.u.Z . X X X = O O b ) ( B _.oXoXoX+X).+X).*X`.$X).",
"`.`.+X+X=X`.&X&X=X`.`.`.:.! ! Z S G N x v z 1 F.$X_.H.).$X$XoXoX+XoX*X+X$X$X;XoX",
"`.`.&X`.&X(.`.Q.).).`.`.`.`.).`.(.%.b x D.b B 2.oX).oX).oX).oX).+X).+XQ.).).oX).",
"`.`.+X=X=X+X&X+X*X+X+X).`.+X=X$X).& .   *     # U.;X-X+X$XoXoX).oX+X+X+X-XoX*XoX",
").Q.(.`.).Q.+X).).).).Q.).)._.(.P.A H 4   . z +   [ oXoX).).).Q.Q.).).(.+X).).Q.",
").(./.`.+X`.+X`.`.).).(./.).oXoX/.K B 1 # # 4 & O ] oXoXoX).).(.Q.).+XoX*X).+X)."
};
