/* XPM */
static char *_154b5f6894d4809f4d085c105e15f3aQcMbVnGpJckAGNGU[] = {
/* columns rows colors chars-per-pixel */
"64 64 221 2 ",
"   c None",
".  c black",
"X  c #010000",
"o  c #020000",
"O  c #030000",
"+  c #040000",
"@  c #050000",
"#  c #060000",
"$  c #070000",
"%  c #080000",
"&  c #090000",
"*  c #0A0000",
"=  c #0B0000",
"-  c #0C0000",
";  c #0D0000",
":  c #0E0000",
">  c #0F0000",
",  c #100000",
"<  c #110000",
"1  c #120000",
"2  c #130000",
"3  c #140000",
"4  c #150000",
"5  c #160000",
"6  c #170000",
"7  c #180000",
"8  c #190000",
"9  c #1A0000",
"0  c #1B0000",
"q  c #1C0000",
"w  c #1D0000",
"e  c #1E0000",
"r  c #1F0000",
"t  c #200000",
"y  c #210000",
"u  c #220000",
"i  c #230000",
"p  c #240000",
"a  c #250000",
"s  c #260000",
"d  c #270000",
"f  c #280000",
"g  c #290000",
"h  c #2A0000",
"j  c #2B0000",
"k  c #2C0000",
"l  c #2D0000",
"z  c #2E0000",
"x  c #2F0000",
"c  c #300000",
"v  c #310000",
"b  c #320000",
"n  c #330000",
"m  c #340000",
"M  c #350000",
"N  c #360000",
"B  c #370000",
"V  c #380000",
"C  c #390000",
"Z  c #3A0000",
"A  c #3B0000",
"S  c #3C0000",
"D  c #3D0000",
"F  c #3E0000",
"G  c #3F0000",
"H  c #400000",
"J  c #410000",
"K  c #420000",
"L  c #430000",
"P  c #440000",
"I  c #450000",
"U  c #460000",
"Y  c #470000",
"T  c #480000",
"R  c #490000",
"E  c #4A0000",
"W  c #4B0000",
"Q  c #4C0000",
"!  c #4D0000",
"~  c #4E0000",
"^  c #4F0000",
"/  c #500000",
"(  c #510000",
")  c #520000",
"_  c #530000",
"`  c #540000",
"'  c #550000",
"]  c #560000",
"[  c #570000",
"{  c #580000",
"}  c #590000",
"|  c #5A0000",
" . c #5B0000",
".. c #5C0000",
"X. c #5D0000",
"o. c #5E0000",
"O. c #5F0000",
"+. c #600000",
"@. c #610000",
"#. c #620000",
"$. c #630000",
"%. c #640000",
"&. c #650000",
"*. c #660000",
"=. c #670000",
"-. c #680000",
";. c #690000",
":. c #6A0000",
">. c #6B0000",
",. c #6C0000",
"<. c #6D0000",
"1. c #6E0000",
"2. c #6F0000",
"3. c #700000",
"4. c #710000",
"5. c #720000",
"6. c #730000",
"7. c #740000",
"8. c #750000",
"9. c #760000",
"0. c #770000",
"q. c #780000",
"w. c #790000",
"e. c #7A0000",
"r. c #7B0000",
"t. c #7C0000",
"y. c #7D0000",
"u. c #7E0000",
"i. c #7F0000",
"p. c #800000",
"a. c #810000",
"s. c #820000",
"d. c #830000",
"f. c #840000",
"g. c #850000",
"h. c #860000",
"j. c #870000",
"k. c #880000",
"l. c #890000",
"z. c #8A0000",
"x. c #8B0000",
"c. c #8C0000",
"v. c #8D0000",
"b. c #8E0000",
"n. c #8F0000",
"m. c #900000",
"M. c #910000",
"N. c #920000",
"B. c #930000",
"V. c #940000",
"C. c #950000",
"Z. c #960000",
"A. c #970000",
"S. c #980000",
"D. c #990000",
"F. c #9A0000",
"G. c #9B0000",
"H. c #9C0000",
"J. c #9D0000",
"K. c #9E0000",
"L. c #9F0000",
"P. c #A00000",
"I. c #A10000",
"U. c #A20000",
"Y. c #A30000",
"T. c #A40000",
"R. c #A50000",
"E. c #A60000",
"W. c #A80000",
"Q. c #A90000",
"!. c #AA0000",
"~. c #AB0000",
"^. c #AC0000",
"/. c #AD0000",
"(. c #AE0000",
"). c #B00000",
"_. c #B10000",
"`. c #B20000",
"'. c #B30000",
"]. c #B40000",
"[. c #B50000",
"{. c #B60000",
"}. c #B70000",
"|. c #B80000",
" X c #B90000",
".X c #BA0000",
"XX c #BB0000",
"oX c #BD0000",
"OX c #BF0000",
"+X c #C20000",
"@X c #C30000",
"#X c #C50000",
"$X c #C60000",
"%X c #C90000",
"&X c #CA0000",
"*X c #CB0000",
"=X c #CC0000",
"-X c #CD0000",
";X c #CE0000",
":X c #D00000",
">X c #D30000",
",X c #D40000",
"<X c #D50000",
"1X c #D60000",
"2X c #D70000",
"3X c #D80000",
"4X c #D90000",
"5X c #DA0000",
"6X c #DB0000",
"7X c #DC0000",
"8X c #E00000",
"9X c #E40000",
"0X c #E70000",
"qX c #ED0000",
"wX c #EF0000",
"eX c #F10000",
"rX c #F40000",
"tX c #F50000",
"yX c #F70000",
"uX c #FD0000",
"iX c red",
/* pixels */
"                                                                                                                                ",
"                                        o o o o $ $ $ $ $ $ $ $ $ $ $ $ $ $ $ $ o $ o o o                                       ",
"                                o o o 2 j K U Q Q ) Q ) ) Q ) Q Q Q ) Q ) ) Q Q Q U G n 7 & o o o                               ",
"                          o o o 7 Z *.*.#...] ] ] U K U W Q Q Q W U W W W W Q ) Q Q ] { #.{ K i & o o                           ",
"                      o o o d #.#...] W K K K K Z M j n M Z M n M M M Z M M M Z Z M G G K W ) ] ] G $ o o                       ",
"                    o o 7 ) *.{ Q U K G Z n M Z K n d j d n M M Z Z M Z Z Z n n n M G G G G G U Q ) ) d o o                     ",
"                  o o M *.] Q K K K G G G M M M G G i k d M G n k n K Z k k K Z M M n n Z Z Z Z G K Q ) U o o o                 ",
"                o o W #.Q K G Z M Z M n M Z G M d Z i G :.r.p.j.j.y.{ ) d j M k j k j j k n M M Z G W W ) W ; o o               ",
"              o o W ..W Z Z K G Z n k n M K G { :. XU.2XrXeX2X#.v.:.Z $X/./.4.7 ..j M Z Z Z M G G Z Z K W Q ] 2 o o             ",
"            o o W { Q W K Z Z Z M n U d M x.9X5X*.K #.9.v.v.m...9.{ { U.2.{ *.0X2.#.Q q K M M Z Z Z M Z U W ) Q $ o             ",
"          o o j { Q G G G n n n G j d 2.2X5XR.:.:.{ ..#...2.4.) ) Z { ] ] Q x.v.y.=X] 4.M d n k n k n n M Z K Q W o o           ",
"          o 6 #.Q K U G n M n M i k =X+X*.9.p.4...{ ) ..W ] *.K G 6 W ] G M W ..4.`.*.j.:.{ 2 i n k k n M M G W Q n o o         ",
"        o o ) ) G M Z Z Z n G q 2.7X5X2.j.y.) { 2.M K W W Q { G M G 7 M { K K Q *.*.9.m.#.G.] q 7 j j j k n n k W ] 6 o         ",
"        o q { K M M k j k M 6 2.rXR.j.r.j.#.) ) i 2 W U ] U { K M U k 6 K ..Z k W { *.*.m.G.:X{ q j j j k k k n n Q G o         ",
"      o o { Q G G M M n k d 9.uXm.x.V...#.2.] G 7 ; n #.{ Q ..U M Z G K M G ) G n ) Q ..2.j.m.4.Z d d M M Z Z Z G U ) ; o       ",
"      o q ) W G G G Z Z j 2.wXx.J.m.V.:.Q W U K G i ..*.#...:.K K Q G Q { j i G K ] ] { ....4.x.2. X$ 7 k Z Z M G G Q K o       ",
"      o Z ) W Z M Z G i n 9XQ.5XG.r.x.*.*.n Q Z K G Z 2.*.*.4.#...9...K { K d j W *.Q ] Q ..:.4.J.U.Z 7 K M M Z M M U ) & o     ",
"      o ) W U G G K G G R.W /.m.v.4.j.:.r.) K Z U G Q p.V.p.4.V.{ ] :.:.*.Q K Z n ..{ G M :.y.r.#.p...q 7 j M G K U U Q q o     ",
"      7 ] G K K M k G 9.J.=XG.m.v.y.p.*.y.) ) W ) { 9.V.*.Z 6 ; & ; Q j.v...W U G W U G k { :.9...j.r.) k j k n K K Z Q M o     ",
"    o n ) G G Z Z G { rXU.Q.2.x.v.y.j.#.y.:.9.Z #.) G.:.j i k q j n 6 i +X XQ W 2.{ Z M G *.9.y.*.r.p.:.9.7 k n G M G W U o     ",
"    o U W U G Z M d 2.Q.:.2...v.m.p.m.{ p.4.9.] ] #.v.Z 7 q d j d j q Q G r.r.) ) *.Q M n Z U K G *.x.x.4.6 i k M M K U ) o     ",
"    o U U Z G M n d /.2.r.2.{ m.v.p.m.*.v.:.9.2...#.r.7 k k k k k k k M j.4.r...) Q { { :.#.#.#...G y.*.r.j i n n M G K ) 2     ",
"    $ W U Z n n n Q rX#.r.#.Q y.j.r.x.:.r.2.2.2.:.9.] i k n M M M n Z Z 6  X*.2.Q ] ) Q *.*.{ ..) *...{ r.W & Z n Z G Z ) q     ",
"    & W G M M n q p.r.r.*...U 9.x.y.v.{ ....2.*.*.) G 2 k k n Z M M k j M  X....{ Z M Z W Q ] #.Q { #.G m.) 7 7 k k M M W j     ",
"    & Q K n j n k %X] y.#.] K :.r.9.p.#.*...2.:.2.] v.; k n n G G G M j K :.....:.G W k n Q ] #.W Q p.K :.:.4.& j k M G W k     ",
"    ; ) G M j d G y.*.4.#.W K :.2.4.p.] 2.{ #.*...) G.; n Z M M K Z n n W #.2.2...W #.G k Q Q { U W *.) Q :.Z i d k M G W M     ",
"    & ) Z Z n k ] V.9.2.Q Q G *.4.9.9.Q ] K ) ] ] #.W 6 k Z Z Z G G M M ) $Xj.#.Q ] ..M n U U ) U ) *.G 4.{ G.6 k k M M U M     ",
"    ; Q M G M Z x.U.4...) { Z { ) { :.] #.G ) 9.:.{ 2X& n k M Z Z G M n G :X*.2.G ) :.{ Z U U ) ) ..2.{ p.V.2.6 j n M M U M     ",
"    ; Q Z Z n M v.4.J.{ ] ) d W *.U { K { d K #.:.p.] 2 n n M K G n k j n {.:.Q Q ) ..] U G U ] W { :.) 4.y.#.7 6 d k Z U M     ",
"    & ) M Z n n j.{ { ..{ ] M ) #.] *.U { Q W #.2.{ U 2 n Z Z G Z M j d W %X*.Q ..Q { ) Z U K { ) #.4.#.:.r.2.i 6 j k Z U M     ",
"    & Q Z M M n V.Q ..*.:.#.W ] *.9.9.] :.] #.2.*.#.:.; d n n M G G M Z G y.:.) ..W ) Z n Z Q { ] :.4.*.#.r.V.6 i d n M U n     ",
"    ; Q K Z Z K m.m.:.U W W n ] *.....K 2.) #.2.:.y.K 2 k n Z G Z M Z k Z 2.#.#.*.) Q ] Z n U ....] 2.] { r...j j j M M U M     ",
"    ; Q n n M n 2.Q...] ....] 4.9.{ :.M *.) #.4.*.2.G 6 j n M G G M n k G #.*.9.4.Z ..#.W ) U ) { ..r...2.*.r.j 7 j k n K n     ",
"    & ) M n j d 4.9...{ { *.] 9.{ ) { Z #.Q ..y.*.*.Q & q d n Z Z n j d K :.p.:.:.] #.W K ) U { ..*.9.#.*.*.4.W j j M Z U M     ",
"    & Q j d i 6 :.W :.] ) { Z *.) W ] Z ..) { 2.*.r.:.2 d k n M n j d i Z =XU.] :.] ..G W { ) { Q #.2.Q ..r.`.q 6 d M K W n     ",
"    & ) M n k k *.Q v.U U ..U *.K Z W j { K ) #.) x.K ; j n M Z Z M k d k %Xp.] ] U *.*.] ] M U U Q ..G #.p...7 j j j M K M     ",
"    ; Q Z Z n M q J.x.] ) ] ) #.{ U ] G *.K { 4.{ :.G 2 j k Z Z K Z M k W 4.4.:.*.] ..:.] *.M #.{ ] ..) ] 2.Q n M n M Z U n     ",
"    ; ) G G n k G j.*.:.{ #.W #.:.{ 4.K ] *...x.:.2.Q & k n M G G Z n M M 2.:.:.2.*...9.#.{ ) #.....2.*.#.x.K ; d n M Z W M     ",
"    & ) M k k d k k *.{ *.r.Q :.) { ] j ..*...:.r.2.W q k k k n Z Z M n ) { #.#.9...{ r.{ ] K W ) ..4.2.r.9.M & q j j n W M     ",
"    & Q W U M i Z M 5X:.W r.) *.#.W n G 4.2.:.{ :.m.G ; j M K U G M M k j U m.2.{ ..) #.K Q Z ) { ..*.*.j.*.q G j i j M W k     ",
"    $ Q K G Z k j p.M {.*.*.) 2.] U U { { :.4.4.#.:.K 7 i i k Z Z M k k K #.{.:...W W { U ..W ) W ..2.*.x.] & i k j k Z Q j     ",
"    $ W U G Z k j q 2.j.r.*.) :.K Q W U ..] r.x.4.2.#.q q d k n M M n n :.x./.#.2.#.Q M M #.] #.Q { 2.*.y.Z M d j M n Z ) 7     ",
"    o W U G G n j Z ..) p.p.W ] ) #.) G { :.2.x.j.*.%Xq j i j n k n Z i /.{.r.2.2.9.) Q W ..K ] Q *.r.2.:.d k M M M M Z Q ;     ",
"    o U W Z Z k d k d 4.r.v.) { 2.:.:.W ......*.j.x.J.r.$ G Z M Z M k 2.7X9.m.:.*.2...r.] 2.] ..#.#.y.2.W 6 7 M Z G n K Q o     ",
"    o k Q Z Z n j n 2 d p.j.*.9.9.:.*.y.4.) :.#.p.x.U.y.=X6 M W G U 9.uX:.y.y.:.2.#.{ y.#.4.] :.2.r.j.] 6 G j k n G M W K o     ",
"      2 ] U K M j n k k K j.9.x.r.r.] :.y.r...2.j.j.G.Q.{.R.+X7X{.wX2XU.v.y.4.#.2...] :.{ 2...r.9.p.4.Z i 7 k n n G Z Q k o     ",
"      o Q W Z G k k Z M j *.$Xp.4.j.*...4.y.:.{ 4.9.j.V.v.r.J.2.2.m.x.G.x.2.*.{ 2.{ ] :.) *.{ 9.9.p.W 7 7 j k n M M G Q 6 o     ",
"      o M Q Z M n n Z M d G {  X4.9.p.*.*.4.p.#...4.r.G.v.V.j.9.x.p.p./.4.4.#.#.2.....:...9.:.p.j.9.i q i j Z Z G K W W $       ",
"      o 6 Q K Z n n Z M k 6 k { Q.V.p.4.*.#.p.p.2.2.p.x.j.m.J.9.:.r.r.v...*.] :.r.#.) #.#.p.9.m./.n i n k k M G G G ) n o       ",
"        o Q ) Z n n Z n k j k q 4.v.OXV.m.9.p.m.V.p.r.j.r.p.p.4.4.#...j.4.] ..) :.4.2.r.*.j.j.4.n 7 j n M M Z Z Z W Q o o       ",
"        o ; ) W M M G M k n d q 7 W 4.G.V.p.y.9.x.m.2.:.p.4.*.#.#.4.4.x.*...Q ..:.#.#.9.4.y.{ d 7 n n n M Z Z G K Q M o         ",
"        o o G Q Z Z K Z M M n j q 6 K { R.U.j.y.y.m.v.9.p.r.#.:.2.9.r.G.#.#.r.#.p.p.4.x.#.K 7 d d n Z M M Z Z G Q ) & o         ",
"          o & ) Q G K G Z M n d i i d i Q *.p.m.j.p.v.J.x.y.9.4.9.v.x.j...y.y.2.p.r.#.U i d n i k Z Z Z Z K K Q Q 7 o           ",
"            o 6 Q Q G K G M n k d j d q 2 i U /.2.p.r.j.y.r.r.9.r.V.2.4.2.4.m.2.#.G j i k 6 j j j Z K K Z Z U Q G o o           ",
"            o o j ] W Z G K G M M n k d i n n ; j { U #.j.j.V.m.x.:.4.y.{ #.) j k ) d 7 i k k M n n Z K U W Q G o o             ",
"              o o k ) Q Z Z Z M Z n n j d i i k i 2 7 i j q i q q d i i i n $ M 6 6 d n M n Z G Z Z Z K U ) G $ o               ",
"                o o i Q Q U K G Z n n M n k j i j j 7 2 6 2 2 2 6 2 2 2 d 6 7 i d i d k j k k M n M Z Q Q G o o                 ",
"                  o o 6 W ) W K K G G K K G G Z M n n j d d d i i q q i i q q i i d d j k n n M G U ) Q d o o                   ",
"                    o o o Z Q Q Q G Z M Z Z G Z Z n n k j k n n n k j j k k M M M G Z G U K K W Q Q K ; o o                     ",
"                        o o ; n Q Q W W K G n k n M M M n k n M M Z K Z k n G U U K K K K Q Q Q Z 6 o o                         ",
"                            o o $ i Z K U W W U G M M Z K U K Z G G K U U U U K U W W W U Z k ; o o o                           ",
"                                o o o o $ 6 i j n M Z M M M M Z M Z M M Z M M n k i 7 ; $ o o o                                 ",
"                                        o o o o o o o o o o o o o o o o o o o o o o o o                                         ",
"                                                                                                                                "
};
