/* XPM */
static char *result[] = {
/* columns rows colors chars-per-pixel */
"64 64 204 2 ",
"   c black",
".  c #040000",
"X  c #050000",
"o  c #060000",
"O  c #080000",
"+  c #090000",
"@  c #0B0000",
"#  c #0C0000",
"$  c #0D0000",
"%  c #0E0000",
"&  c #0F0000",
"*  c #100000",
"=  c #110000",
"-  c #120000",
";  c #130000",
":  c #140000",
">  c #150000",
",  c #160000",
"<  c #170000",
"1  c #180000",
"2  c #190000",
"3  c #1A0000",
"4  c #1B0000",
"5  c #1C0000",
"6  c #1D0000",
"7  c #1E0000",
"8  c #1F0000",
"9  c #200000",
"0  c #210000",
"q  c #220000",
"w  c #230000",
"e  c #240000",
"r  c #250000",
"t  c #260000",
"y  c #270000",
"u  c #280000",
"i  c #290000",
"p  c #2A0000",
"a  c #2B0000",
"s  c #2C0000",
"d  c #2D0000",
"f  c #2E0000",
"g  c #2F0000",
"h  c #300000",
"j  c #310000",
"k  c #320000",
"l  c #330000",
"z  c #340000",
"x  c #350000",
"c  c #360000",
"v  c #370000",
"b  c #380000",
"n  c #390000",
"m  c #3A0000",
"M  c #3B0000",
"N  c #3C0000",
"B  c #3D0000",
"V  c #3E0000",
"C  c #3F0000",
"Z  c #400000",
"A  c #410000",
"S  c #420000",
"D  c #430000",
"F  c #440000",
"G  c #450000",
"H  c #460000",
"J  c #470000",
"K  c #480000",
"L  c #490000",
"P  c #4A0000",
"I  c #4B0000",
"U  c #4C0000",
"Y  c #4D0000",
"T  c #4E0000",
"R  c #4F0000",
"E  c #500000",
"W  c #510000",
"Q  c #520000",
"!  c #530000",
"~  c #540000",
"^  c #550000",
"/  c #560000",
"(  c #570000",
")  c #580000",
"_  c #590000",
"`  c #5A0000",
"'  c #5B0000",
"]  c #5C0000",
"[  c #5D0000",
"{  c #5E0000",
"}  c #5F0000",
"|  c #600000",
" . c #610000",
".. c #620000",
"X. c #630000",
"o. c #640000",
"O. c #650000",
"+. c #660000",
"@. c #670000",
"#. c #680000",
"$. c #690000",
"%. c #6A0000",
"&. c #6B0000",
"*. c #6C0000",
"=. c #6D0000",
"-. c #6E0000",
";. c #6F0000",
":. c #700000",
">. c #710000",
",. c #720000",
"<. c #730000",
"1. c #740000",
"2. c #750000",
"3. c #760000",
"4. c #770000",
"5. c #780000",
"6. c #790000",
"7. c #7A0000",
"8. c #7B0000",
"9. c #7C0000",
"0. c #7D0000",
"q. c #7E0000",
"w. c #7F0000",
"e. c #800000",
"r. c #810000",
"t. c #820000",
"y. c #830000",
"u. c #840000",
"i. c #850000",
"p. c #860000",
"a. c #870000",
"s. c #880000",
"d. c #890000",
"f. c #8A0000",
"g. c #8B0000",
"h. c #8C0000",
"j. c #8D0000",
"k. c #8E0000",
"l. c #8F0000",
"z. c #900000",
"x. c #910000",
"c. c #920000",
"v. c #930000",
"b. c #940000",
"n. c #950000",
"m. c #960000",
"M. c #970000",
"N. c #980000",
"B. c #990000",
"V. c #9A0000",
"C. c #9B0000",
"Z. c #9C0000",
"A. c #9D0000",
"S. c #9E0000",
"D. c #9F0000",
"F. c #A00000",
"G. c #A20000",
"H. c #A30000",
"J. c #A40000",
"K. c #A60000",
"L. c #A70000",
"P. c #AB0000",
"I. c #AC0000",
"U. c #B00000",
"Y. c #B20000",
"T. c #B40000",
"R. c #B50000",
"E. c #B60000",
"W. c #B80000",
"Q. c #BB0000",
"!. c #BC0000",
"~. c #BD0000",
"^. c #BE0000",
"/. c #C00000",
"(. c #C10000",
"). c #C30000",
"_. c #C50000",
"`. c #C70000",
"'. c #C80000",
"]. c #C90000",
"[. c #CD0000",
"{. c #CF0000",
"}. c #D00000",
"|. c #D10000",
" X c #D50000",
".X c #D60000",
"XX c #D90000",
"oX c #DA0000",
"OX c #DD0000",
"+X c #DE0000",
"@X c #E00000",
"#X c #E20000",
"$X c #E50000",
"%X c #E70000",
"&X c #E80000",
"*X c #E90000",
"=X c #EF0000",
"-X c #F00000",
";X c #F10000",
":X c #F20000",
">X c #F60000",
",X c #F70000",
"<X c #F80000",
"1X c None",
/* pixels */
"1X1X1X1X1X1X1X1X1X1X1X1X1X1X1X1X1X1X1X1X1X1X1X1X1X1X1X1X1X1X1X1X1X1X1X1X1X1X1X1X1X1X1X1X1X1X1X1X1X1X1X1X1X1X1X1X1X1X1X1X1X1X1X1X",
"1X1X1X1X1X1X1X1X1X1X1X1X1X1X1X1X1X1X1X1X1X1X1X1X1X1X1X1X1X1X1X1X1X1X1X1X1X1X1X1X1X1X1X1X1X1X1X1X1X1X1X1X1X1X1X1X1X1X1X1X1X1X1X1X",
"1X1X1X1X1X1X1X1X1X1X1X1X1X1X1X      % g g f f f f f f f f f f f f f f f f f f f f f f f f f f f f f f f f f f f f f g f 0 1X1X1X",
"1X1X1X1X1X1X1X1X1X1X1X1X1X1X      l  .} ` _ _ _ ) / / / ( ( ~ ! ^ ^ ^ W W ! ( ) ) ) ( ) _ ) / _ ( / / / ^ / ) ` _ _ / E z   1X1X",
"1X1X1X1X1X1X1X1X1X1X1X1X1X    o ~ ../ I U R U H K K S N M V A m Z V N l k x v v l b J D D D Z m M M n N G H D J R T H U b   1X1X",
"1X1X1X1X1X1X1X1X1X1X1X      y ] _ R L D Z S D V N Z n k h x v M Z v z t e s u d h k z b M N v l j j k z n B V n b Z M U b   1X1X",
"1X1X1X1X1X1X1X1X1X1X    . m | ^ P F S S S V V V z N D C N n b k n A M u t z n S A C C C V N N Z M v z k f g k n m S H U b   1X1X",
"1X1X1X1X1X1X1X1X1X    + _ [ E S M N C N Z N j C x V J L x Z L T E A c t j G I G C v v A Z G G T h Q T G z v n B N m Z U b   1X1X",
"1X1X1X1X1X1X1X      h } ) Y D D C n A B v D S B K ! (.,Xx.x.| 0._.Y.y.2.7.e.~.;X].oX&XD.v.p.H w m O.9.J ; - t d x B Z U b   1X1X",
"1X1X1X1X1X1X    O J } Q P H H G C c b l f z b m 6.OXb.I +.7.O.] ..$.&.O.| | / X.r.w.w.9.,.+.) P n R _ B W D d z z m S I b   1X1X",
"1X1X1X1X      > _ ' R F Z D b B Z M Z Z V F =.K.}.$.] O.:.u.-.=.4.t.t.q.w.*.^ 2.z.F.i.o...I K K a @.! ! 0 % h g z x v U b   1X1X",
"1X1X1X      k  .( J C C V A V n N M C m v ;.|.R.,.V.E.a.;.=.) #.&.,.q.w.=.H <.1.0.N.x.$.! P E Q y O.I n = % r r s l c I b   1X1X",
"1X1X1X  X ! } W C k z l h h g a f c g M a.:X1.{ b.t.4.} E | I f D Q ` ~ ! +.7.=.7.s.M.N.} $.-.P w ] Z m * & , 6 u x n P b   1X1X",
"1X1X1X6 ! _ U m k j j h g a s s t d V J..X5.$.V.g.h.V.w.2.f.&.^ U 3.5.4.4.,.2.&.2.p.n.l.:.<.,.J 9 / T V 4 g 2 6 8 e a I b   1X1X",
"1X1X1Xi W P M b v z h l l z l b ( 3.{.T.t.k.6.g.e.i.b.9.1.0.o.( _ ' 8.7.:.,.,.*.4.u.m.c.=.>.<.Q , ) ) K 9 y 0 t u s h I b   1X1X",
"1X1X1Xi R G G D V M B B n M v } M.;Xj.>.H.m.6.4.3.8.h.7.:.q. ._  .'  .;.=.-.<.=.6.r.k.n.-.:.1.I @ ^ W D = z w p s j v U b   1X1X",
"1X1X1Xi E B Z F J H Z Z l d { [./.;.G.c.z.g.3.4.,.<.i.5.2.u.#.] X.` Q *.-.1.,.;.0.i.n.M.=.<.;.U q | v N > # 5 w e p g P b   1X1X",
"1X1X1Xi R S A C n n S n Z v.XXu.1. XC.u.g.g.>.,.4.3.p.7.<.a.;.X.%.#._ *.1.7.<.>.r.j.j.f.%.$.>.} h o.-.K - y 0 0 r s z U b   1X1X",
"1X1X1Xi R V n v k l y F J.W.F G.).g.M.i.i.a.;.=.<.1.s.2.%.a.2.&.5.-.+.4.;.5.;.%.:.7.r.s.%.>.9.| H | #.L & c s g g n Z I b   1X1X",
"1X1X1Xi R c k d h d w 8.-X=.T.A.y.a.k.;.4.e.=.-.;.<.f.5.<.g.<.&.1.-.&.9.5.4.>.=.-.,.e.j.1.q.r.[ B *.I E 3 h k x x b V I b   1X1X",
"1X1X1Xi R m c k j t l 9.o.K.f.k.p.y.f.4.i.r.>.1.;.<.d.2.6.h.0.4.w.1.2.0.5.<.,.,.,.u.h.b.7.1.t.[ j ;.4.| & r s z l f j I b   1X1X",
"1X1X1Xi T b k h s w C r.V ! %.9.1.*.;.=.6.2.X.+.@.@.w.5.P.U.i.3.r.e.8.w.5.:.3.-.2.g.z.m.e.i.q.| K u.X.U % F e i a f l I b   1X1X",
"1X1X1Xi R g f k j t k g a c N M U W _ T C G [ K z B Y ,.+XT.s.8.8.e.0.t.9.8.9.6.0.v.m.F.s.p.2.o.U d.{ J & m f h j k l I b   1X1X",
"1X1X1Xi R B x h z l < * 3 U m t d N R l w ] # 1 B ..r.~.$Xh.d.w.r.e.3.e.i.j.f.w.a.x.M.F.9.a.w.%./ f._ H & h s c n m n I b   1X1X",
"1X1X1Xi R V n z h l p 0 6 0 t q 8 6 9 p f u y 6 0 i m d.-Xx.p.e.s.p.p.h.l.l.g.d.g.c.N.H.w.r.8.@.R d...I & w 4 r k V C P b   1X1X",
"1X1X1Xi R C Z n g f h f d a u q w h a a x f u e i d S m.!.f.i.7.i.i.i.k.k.n.s.g.m.Z.D.F.u.a.4.+.] j.{ P & 1 2 e f n Z I b   1X1X",
"1X1X1Xi R V B C M b c l h j x N c g k l z z g p a u F 9._ p.i.0.y.f.f.l.g.m.a.i.j.M.V.F.6.e.2.O.R 8.U K * i , q d c N I b   1X1X",
"1X1X1Xu P F C C V m N M N B N m b n M B V z s p p y ' z.U 3.>.#.o.;.,.<.1.3.2.7.9.5.r.q.-.p.q.-.Y 3.O.( 4 a 3 q w f M I b   1X1X",
"1X1X1X2 j j j j h h g g g g h k m S K Y R v g p f c #.F.<X`.d.=.=.:.O.] ` } #.*.@.#.<.,.| o.=.=.T y.r.Y & 3 0 u f g c U b   1X1X",
"1X1X1X                                g ! c h a y i S D.>Xc.0.q.q.5.{ [ @.>.<.#.-.6.q.y.{ ] *.O.^ 6.=.L & Y t e r f z U b   1X1X",
"1X1X1X1X1X1X1X1X1X1X1X1X1X1X1X1X1X1X  f Q M l p i t V h._ u.a.d.j.g.0.w.9.w.p.5.#.1.7.-.1.-.>.-.$.0...U * A h z k l b U b   1X1X",
"1X1X1X1X1X1X1X1X1X1X1X1X1X1X1X1X1X1X  h Q Z c g p 0 Z p.[.3.d.w.q.>.&.-.>.2.&.! ' 6.j.y.*.&.9.3.4.f.5.Q & > u s h z C I b   1X1X",
"1X1X1X1X1X1X1X1X1X1X1X1X1X1X1X1X1X1X1X8 U V z f h f V j.Q.,.3.;.,.,.1.4.7.&.=.( 7.6.t.r.]  .1.-.' v.( F = A q y a g h I b   1X1X",
"1X1X1X1X1X1X1X1X1X1X1X1X1X1X1X1X1X1X1X8 U V z g d u h s.@X#.0.-.>.9.-.7.d.1. .0.w.y.4.6.G U ] K N u./ L = y 9 t i g z I b   1X1X",
"1X1X1X1X1X1X1X1X1X1X1X1X1X1X1X1X1X1X1X8 I V l d y q m k.,.&.r.>.%.2.,.5.:.C ] ] O.$.@.} n m F L B 9.K C = & 3 6 w u f I b   1X1X",
"1X1X1X1X1X1X1X1X1X1X1X1X1X1X1X1X1X1X1X8 I D m l k d S C.Y.,.3.{ ^ ~ E ~ F S $.R ^ [ %.^ e s N B g X.L X.u 2 < 4 9 y s I b   1X1X",
"1X1X1X1X1X1X1X1X1X1X1X1X1X1X1X1X1X1X1X8 I A b z x j c p.^./.M.3.:.5.6.<.%.;.X./  .| ../ x N T Y G 1...L % p 0 t p a f I b   1X1X",
"1X1X1X1X1X1X1X1X1X1X1X1X1X1X1X1X1X1X1X8 I N v h r 2 s r.%X1.p.0.6.k.u.2.4.O.*.=.1.2.3.*.J N / / T ,.U S & i t u d k c U b   1X1X",
"1X1X1X1X1X1X1X1X1X1X1X1X1X1X1X1X1X1X1X8 I J J G S M { E.&X8.g.6.:.u.t.3.$.-.:.=.*.o.+.=.H N ` =.! q.P D - n u j j z m I b   1X1X",
"1X1X1X1X1X1X1X1X1X1X1X1X1X1X1X1X1X1X1X8 I G J L K D A v.g.7.y.;.o.4.3.>.%.@.&.:.2.;.>.7.D Y :.<._ u.} Z * % 7 0 y g j U b   1X1X",
"1X1X1X1X1X1X1X1X1X1X1X1X1X1X1X1X1X1X1X8 P J V m M n H p.` q.t.>.X.:.*.4.5.$.&.:.<.,.<.4.P I >...W e.' F & p w y p k g I b   1X1X",
"1X1X1X1X1X1X1X1X1X1X1X1X1X1X1X1X1X1X1X8 P P S g h v W J.V.<.t.4.%.+.<.6.9.9.,.9.0.3.7.<./ Y  ._ E e._ J $ l 8 p a g k U b   1X1X",
"1X1X1X1X1X1X1X1X1X1X1X1X1X1X1X1X1X1X1X8 I m x c d i S B.*Xe.h.r.3.r.5.q.f.y.7.9.6.6.u.8.! ! ;.@.~ 9.' Y % m 4 e t p f I b   1X1X",
"1X1X1X1X1X1X1X1X1X1X1X1X1X1X1X1X1X1X1X8 I C z v c a l y.&Xh.u.>.>.a.i.a.e.u.7.t.q.5.8.e.' _ o.$.` q._ E & M r u p f z P b   1X1X",
"1X1X1X1X1X1X1X1X1X1X1X1X1X1X1X1X1X1X1X8 I S h y i t s t.*Xw.f.4.,.0.u.c.y.w.4.9.p.i.w.r.| o.&.[ &.i.1.] & 1 1 e p h b I b   1X1X",
"1X1X1X1X1X1X1X1X1X1X1X1X1X1X1X1X1X1X1X8 I H M k d q a 7.#X7.p.9.7.c.B.b.e.3.<.5.e.u.0.p. .&.6.:.} i.O.G - m 7 i s p a I b   1X1X",
"1X1X1X1X1X1X1X1X1X1X1X1X1X1X1X1X1X1X1X8 I G D V v a V c.&Xd.v.6.4.k.k.u.6.5.9.r.g.a.9.<.] $.-.@.#.s.) L & s r w i p s I b   1X1X",
"1X1X1X1X1X1X1X1X1X1X1X1X1X1X1X1X1X1X1X8 I G V V C M I S.$Xk.N.6.,.e.u.q.2.t.0.q.d.a.y.e.} >.,.:...r.+.R & : u k x v v I b   1X1X",
"1X1X1X1X1X1X1X1X1X1X1X1X1X1X1X1X1X1X1X8 I N h s j l Y L.R.I.I.e.<.k.h.k.d.z.v.B.M.M.v.b.,.0.u.d.t.v.&.T $ x > 7 e h l I b   1X1X",
"1X1X1X1X1X1X1X1X1X1X1X1X1X1X1X1X1X1X1X8 I F c f p u C N.=Xk.g.s.0.N.t.t.z.l.n.v.h.j.g.r.>.5.w.3.5.7.| K * t 8 q t s z I b   1X1X",
"1X1X1X1X1X1X1X1X1X1X1X1X1X1X1X1X1X1X1X8 I S n f y a B k.%Xj.s.7.0.N.s.6.u.w.t.p.r.r.6.6.{ &.t.2.4.w.$.U $ b 5 q r f c U b   1X1X",
"1X1X1X1X1X1X1X1X1X1X1X1X1X1X1X1X1X1X1X8 I S M l d y z k.'.i.Z.f.g.Z.d.5.u.a.s.f.a.w.7.y.2.8.u.i.t.u.&.I = L e i p f m I b   1X1X",
"1X1X1X1X1X1X1X1X1X1X1X1X1X1X1X1X1X1X1X8 I Z n x f r b S.%Xr.F.x.l.M.s.9.w.e.i.s.p.d.t.p.6.8.y.r.t.e.@.U * 3 9 d p p f I b   1X1X",
"1X1X1X1X1X1X1X1X1X1X1X1X1X1X1X1X1X1X1X8 I F A N c d V f.u.+.6.4.>.h.q.<.4.2.,.2.6.9.2.y.l.7.9.g.v.a.z.~ ; r 0 w r j n P b   1X1X",
"1X1X1X1X1X1X1X1X1X1X1X1X1X1X1X1X1X1X1X8 I C z k j f j q 8 i t 0 0 8 9 9 q 0 0 0 q w 0 8 q e 9 7 8 8 6 2 4 8 u j z z x U b   1X1X",
"1X1X1X1X1X1X1X1X1X1X1X1X1X1X1X1X1X1X1X8 U A M m x f k 5 3 y 7 ; , 7 a i 2 4 > 2 - > i y 4 - 7 a 8 y v G c 4 r y p s g U b   1X1X",
"1X1X1X1X1X1X1X1X1X1X1X1X1X1X1X1X1X1X1X8 U V l l h d a y t s i t q 9 q w r q 9 w e r w r r t u s l l x j h h h k x c n U b   1X1X",
"1X1X1X1X1X1X1X1X1X1X1X1X1X1X1X1X1X1X1X8 U S N n c x k k h s s p y t t w r a p s g h j h k k j g j k z x z z x b m V N Y b   1X1X",
"1X1X1X1X1X1X1X1X1X1X1X1X1X1X1X1X1X1X1X8 U V x z m C Z V Z B B B m n m M m v n N N v c v l j j j g d g z x x c c B S C I n   1X1X",
"1X1X1X1X1X1X1X1X1X1X1X1X1X1X1X1X1X1X1X7 J H D S A S F F S F D S A C C C B b v n B n M C m b n B C C B M N C C N B A D L c   1X1X",
"1X1X1X1X1X1X1X1X1X1X1X1X1X1X1X1X1X1X1X; f h g g g g g g g g f f f f f f f f f f f f f f f f f f f f f g g g g g g g g f e 1X1X1X",
"1X1X1X1X1X1X1X1X1X1X1X1X1X1X1X1X1X1X1X1X1X1X1X1X1X1X1X1X1X1X1X1X1X1X1X1X1X1X1X1X1X1X1X1X1X1X1X1X1X1X1X1X1X1X1X1X1X1X1X1X1X1X1X1X",
"1X1X1X1X1X1X1X1X1X1X1X1X1X1X1X1X1X1X1X1X1X1X1X1X1X1X1X1X1X1X1X1X1X1X1X1X1X1X1X1X1X1X1X1X1X1X1X1X1X1X1X1X1X1X1X1X1X1X1X1X1X1X1X1X",
"1X1X1X1X1X1X1X1X1X1X1X1X1X1X1X1X1X1X1X1X1X1X1X1X1X1X1X1X1X1X1X1X1X1X1X1X1X1X1X1X1X1X1X1X1X1X1X1X1X1X1X1X1X1X1X1X1X1X1X1X1X1X1X1X"
};
