/* XPM */
static char *result[] = {
/* columns rows colors chars-per-pixel */
"64 64 219 2 ",
"   c black",
".  c #010000",
"X  c #030000",
"o  c #040000",
"O  c #060000",
"+  c #070000",
"@  c #080000",
"#  c #090000",
"$  c #0A0000",
"%  c #0B0000",
"&  c #0C0000",
"*  c #0D0000",
"=  c #0E0000",
"-  c #0F0000",
";  c #100000",
":  c #110000",
">  c #120000",
",  c #130000",
"<  c #140000",
"1  c #150000",
"2  c #160000",
"3  c #170000",
"4  c #180000",
"5  c #190000",
"6  c #1A0000",
"7  c #1B0000",
"8  c #1C0000",
"9  c #1D0000",
"0  c #1E0000",
"q  c #1F0000",
"w  c #200000",
"e  c #210000",
"r  c #220000",
"t  c #230000",
"y  c #240000",
"u  c #250000",
"i  c #260000",
"p  c #270000",
"a  c #280000",
"s  c #290000",
"d  c #2A0000",
"f  c #2B0000",
"g  c #2C0000",
"h  c #2D0000",
"j  c #2E0000",
"k  c #2F0000",
"l  c #300000",
"z  c #310000",
"x  c #320000",
"c  c #330000",
"v  c #340000",
"b  c #350000",
"n  c #360000",
"m  c #370000",
"M  c #380000",
"N  c #390000",
"B  c #3A0000",
"V  c #3B0000",
"C  c #3C0000",
"Z  c #3D0000",
"A  c #3E0000",
"S  c #3F0000",
"D  c #400000",
"F  c #410000",
"G  c #420000",
"H  c #430000",
"J  c #440000",
"K  c #450000",
"L  c #460000",
"P  c #470000",
"I  c #480000",
"U  c #490000",
"Y  c #4A0000",
"T  c #4B0000",
"R  c #4C0000",
"E  c #4D0000",
"W  c #4E0000",
"Q  c #4F0000",
"!  c #500000",
"~  c #510000",
"^  c #520000",
"/  c #530000",
"(  c #540000",
")  c #550000",
"_  c #560000",
"`  c #570000",
"'  c #580000",
"]  c #590000",
"[  c #5A0000",
"{  c #5B0000",
"}  c #5C0000",
"|  c #5D0000",
" . c #5E0000",
".. c #5F0000",
"X. c #600000",
"o. c #610000",
"O. c #620000",
"+. c #630000",
"@. c #640000",
"#. c #650000",
"$. c #660000",
"%. c #670000",
"&. c #680000",
"*. c #690000",
"=. c #6A0000",
"-. c #6B0000",
";. c #6C0000",
":. c #6D0000",
">. c #6E0000",
",. c #6F0000",
"<. c #700000",
"1. c #710000",
"2. c #720000",
"3. c #730000",
"4. c #740000",
"5. c #750000",
"6. c #760000",
"7. c #770000",
"8. c #780000",
"9. c #790000",
"0. c #7A0000",
"q. c #7B0000",
"w. c #7C0000",
"e. c #7D0000",
"r. c #7E0000",
"t. c #7F0000",
"y. c #800000",
"u. c #810000",
"i. c #820000",
"p. c #830000",
"a. c #840000",
"s. c #850000",
"d. c #860000",
"f. c #870000",
"g. c #880000",
"h. c #890000",
"j. c #8A0000",
"k. c #8B0000",
"l. c #8C0000",
"z. c #8D0000",
"x. c #8E0000",
"c. c #8F0000",
"v. c #900000",
"b. c #910000",
"n. c #920000",
"m. c #930000",
"M. c #940000",
"N. c #950000",
"B. c #960000",
"V. c #970000",
"C. c #980000",
"Z. c #990000",
"A. c #9A0000",
"S. c #9B0000",
"D. c #9C0000",
"F. c #9D0000",
"G. c #9E0000",
"H. c #9F0000",
"J. c #A00000",
"K. c #A10000",
"L. c #A20000",
"P. c #A30000",
"I. c #A40000",
"U. c #A50000",
"Y. c #A60000",
"T. c #A70000",
"R. c #A80000",
"E. c #A90000",
"W. c #AA0000",
"Q. c #AB0000",
"!. c #AD0000",
"~. c #AE0000",
"^. c #AF0000",
"/. c #B00000",
"(. c #B10000",
"). c #B20000",
"_. c #B30000",
"`. c #B40000",
"'. c #B50000",
"]. c #B60000",
"[. c #B70000",
"{. c #B80000",
"}. c #B90000",
"|. c #BA0000",
" X c #BB0000",
".X c #BC0000",
"XX c #BD0000",
"oX c #BE0000",
"OX c #BF0000",
"+X c #C00000",
"@X c #C10000",
"#X c #C20000",
"$X c #C30000",
"%X c #C40000",
"&X c #C50000",
"*X c #C60000",
"=X c #C70000",
"-X c #C90000",
";X c #CB0000",
":X c #CC0000",
">X c #D00000",
",X c #D20000",
"<X c #D40000",
"1X c #D60000",
"2X c #D70000",
"3X c #D80000",
"4X c #DA0000",
"5X c #DD0000",
"6X c #DF0000",
"7X c #E00000",
"8X c #E30000",
"9X c #E80000",
"0X c #E90000",
"qX c #EC0000",
"wX c #ED0000",
"eX c #F40000",
"rX c #F60000",
"tX c red",
"yX c None",
/* pixels */
"yXyXyXyXyXyXyXyXyXyXyXyXyXyXyXyXyXyXyXyXyXyXyXyXyXyXyXyXyXyXyXyXyXyXyXyXyXyXyXyXyXyXyXyXyXyXyXyXyXyXyXyXyXyXyXyXyXyXyXyXyXyXyXyX",
"yXyXyXyXyXyXyXyXyXyXyXyXyXyXyXyXyXyXyXyXyXyXyXyXyXyXyXyXyXyXyXyXyXyXyXyXyXyXyXyXyXyXyXyXyXyXyXyXyXyXyXyXyXyXyXyXyXyXyXyXyXyXyXyX",
"yXyXo h k j j j j j j j j j j j j j j j j j j j j j j j j j j j j j j j j j j j j j j j j j h p q 3 .       yXyXyXyXyXyXyXyXyXyX",
"yXyXO ( _ _ ` ' _ ( ! ~ / ^ _ ( / ` ( ! ~ ^ ^ ~ ~ ^ _ ' ` / ` _ / ^ ~ ! ! ~ ~ ^ ^ / ^ ( _ ' [ { { ] _ J h #     yXyXyXyXyXyXyXyX",
"yXyX+ E K D A I J F v v N c N V N B C b v n V M N V V D H H D H F V N N m M Z D G D D J J S H J U C P / ] ] l X     yXyXyXyXyXyX",
"yXyX+ E Y I A Z S m i i j s k v c n M m f c m b b h g k z x h n g s h l z l s z B N c n k l N Z S v c B A W ( Y @     yXyXyXyXyX",
"yXyXO R A C v k n M r y j k l h v x x G H H N C S S Z m N n C C Z m b G F D A D D Z Z N b j c N L n k n x Z K ~ / ,   yXyXyXyXyX",
"yXyXO R K C v N b v > z S Z Z Q 5 V R ! H  .' K ^ ~ ~ H V M D P T K V C T Y I C } / Y V u m N m A M f j z V Z D Q ^ o   yXyXyXyX",
"yXyXO R A C v j i.J y b R -Xu.6 x 5.S.eX8X9XF.Z.Z.y./.Q.n..Xk.~..X$X!.b.d.y.P.wX2Xd.3Xb Y P.: A h c s k x l N C D Q L .   yXyXyX",
"yXyXO R Z V m s s.M P J ] Y  .L o.,.2.2.'.e.2.=.$.$.] ;.$.+.;.&.*.2.9.9.=.+.;.#.s.4.P.1.I } Q.B ] 7 u s j h z M N K ~ 0   yXyXyX",
"yXyXO R S j f y O.Z P S u A m n h I ..5.y.6.@.a.r.9.W q.e._ %. .i.n.z.8.[ ;.E <.;.4.c.5.h.i.{ 7XP ; r u k h z v b C W ! X yXyXyX",
"yXyXO T C k y 9 { N S a ; 4 h i 7 N  .) 2.L / ' -.} ( @.S F ) U J 2.@.L / @.V ) ( =.1.0...,.B.3.X.N V q j j c v v M F ! q   yXyX",
"yXyXO R z a p r j.U #.i - , D 2 4 M ..` %.^ D Q ^ Q ] / ' %.#.>.=.4.w.W } _ H ! W X.;.^ ..>.<.4.9.0.>X3 v n N m n v m W x   yXyX",
"yXyXO T N j h j d.+X<.c B 1 u : > a T +.W ! A Q I ! ) { [ / o.+.+.3.;.U @.Q n Q } ;.o.` [ { ,.,.=.g.u.d.s H b n N N m P K   yXyX",
"yXyXO T A v l k k.] { ^ a & S 5 6 < A -._ N H / ) ` T #...E >.%.@.t./ A ` I ^ +.) 8.2.:.~ O.7.3.$.=.q.S.X.$ h v N C A K !   yXyX",
"yXyXO T A x x i t.R ` N g M Y C g N ` [ ^ z ) #.} W ( _ / } 5.$.#.;. .D _ #./ -.#.u.u.$./ ] ..#.+.o.&.4.t.D 2 x n N Z A ~ X yXyX",
"yXyXO T b a u 9 8.K >.~ ! } ^ L T f | u.h.a.r.;.o.~ } $.X.| 5.;.-.r.3.b :.*.) 5.*.s.i.<.` E / ) o.@.o.:.<.R 7 m c C G H Q % yXyX",
"yXyXO R M l f t 0.! Q >.} ( *.G J S l.v.r.8.:.:.X.{  .O.+.>.>.:.e.y.8.[ w.4.| 7.$.a.d.,.| ) [ / [ {  .9.1.A.4 h l M m N W * yXyX",
"yXyXO R Z j i x H S / | #._ >.-.^ ~ &.X.@.z.&./ | { { ] $...*.;.X.2.j.`.A.h.*.w.+.s.t.7.| @.X..._ P _ | ;.f.C : p n B N E * yXyX",
"yXyXO R A c j s < 0 w u 6 q 7 0 8 7 8 p y d 6 i 6 6 6 9 r g t 0 y s U W.D.s.2.y.&.e.2.6.` ..| -.X.` $.o._ p.D > i k B Z E * yXyX",
"yXyXO R M h s s j g d h t 0 3 6 2 1 < 1 7 < 1 7 r 4 3 6 l k a u j b = t N.A.4.w.$.t.p.q.O.+.%.@.} ' ) ^ ~ 5.I - y k c b T * yXyX",
"yXyXO R Z B c c n x f g p y d u t w q w u p a k v i w e a d v h p e t q.rXd.1.w.+.s.7.;.+.>.;.| } / [ _  .m./ 9 u f z B R * yXyX",
"yXyX+ E S M B V V M n j j s h g u t t r p i s f f h u i g d d f f s s -.<Xe.:.2.$.j.6.p.#.| =.X.[ $.1.+.i.9.[ 7 0 g B D R * yXyX",
"yXyX+ R Z m m c b N S b b v x n n z f i i s a y t j u t f g l l a j j k.=Xu.9.8.@.y.t.a.;.>.,.1.$.,.' &.j.=.( 0 e d j b E * yXyX",
"yXyXO / _ ~ j z x k x Z M b z g l c z x c j h j d V k i n z g k r d M 1XP.z.-.9.| 0.8.r.#.*.4.t.i.>.$.4.t.e.U a x M B M R * yXyX",
"yXyX. 4 3 4 G H b c x c B n x f s f u t ( _ ) ! } [ Y W =.' ( _ ..K.qXC.y.d.:.4...k.y.a.,.6.5.l.a.] :.f.4.m.J * k z n Z R * yXyX",
"yXyXyX    H R F M v z g j c V i l E _.3XtXa. .4X' c.:X7.Q U r.g.r.5.5.e.Z.0.<.0.X.r.9.9.=.%.5.3.@.:.2.=.5.e.F j v N A H E * yXyX",
"yXyXyX  3 ^ K x n b c j z l i #.U.Z.b.#.;.5.,.O. .[ | ` +.&.%.:.%.2.;.*.,.2.) ,.L o.$.=.&.#.3.} X.,.w.%.3.r.6 b c N S Z E * yXyX",
"yXyXyX  A Q Z B C n x b h 9 '.].D  X).r.2.z.,.O.` | 2.{ =.2.7.$.=.e.>.^ $.Q R ..m T o.-.} | X.E  .$.,.>.d.L Z c x h x N W * yXyX",
"yXyXyXX ( Y Z m z k x d d 4X0.~ -.1.,.e.i.d.o.] X.-.;._ O.t.r.<.=.5.2. .5.*.} *.R O.*.! Y #.*.| q.+.%.r.o.d > p z b m V Q O yXyX",
"yXyXyXe _ C N B c l k r oX+.F.=.) } t.c.w.=.] _ 4.3.o.( <.h.0.7.z.V.h.>.k.g.t.f.4.e.g.&.#.u.4.9.C.r.y.0.R w g c B S F P !   yXyX",
"yXyX  H E Z B v l k r $X~.`.v.O.I ` %.X.#.X.Y ' ..#.o.F 4.u.' O.p.i.w.@.q.7.&.3./ 4.2.5.*.;.' q.r.1.e.[ x f B v v Z F I U   yXyX",
"yXyX. U Y H V b c e :.oX<.N.&.! Y O.w.4.+.;.y.t.7.3.:.I $.} W O.1.@.-.{ <.+. .i.} y.+.q.8.,.4.d.w.f./ w t t z M B V Z E n   yXyX",
"yXyXX Y G v l g k S I.! u.w.r.,.] K _ ! ] f.e.2.3.6.*.%.h.u.f.J.Z.v.B.u.Z.u.a.=.&.y.h.u.j.d.q.g.r.! u C q f x v n b V W r   yXyX",
"yXyXO R V k h a i &.^ X.0.@.| ~ P P G } 2.7.=.} | ..,. .=.a.m.I.k.7.v.8.x.e.&.f.! q.s.r.g.c.9.O.G r f f v v v m b c P ~ % yXyXyX",
"yXyX+ R A b x z z ^.0.u. .~ v g V z [ 7.=.;.#.^ R ' q.$.>.g.d.e.0.w.-.=.w.7.p.9.O.*.h.w.%.` G z > f c x b M C S J K ~ x   yXyXyX",
"yXyX+ R F M N l P 5Xm.n.1.;.[ E $.] | $.*.&.X.#.#.*.z.9.7.+.( E L I P I L W F K S ~ l z y = H k a v b m N V A D K T E X     yXyX",
"yXyXO R A c g f m #.y.;.6.4.<.;.@.! T R ] } %.) #.e.z.;.D - j m w i 0 9 9 < 1 2 z : % & 1 1 6 r z l z v v z b n B Z : + + . yXyX",
"yXyXO R b a t w _ {.z.&. .-.#.( / ( ( T ^ 3.=.] 5.c.u.I B K , > 3 4 4 3 4 9 i q 6 8 0 t k g k N Z V B G G P P H K J ( / ( : yXyX",
"yXyXO R N c v c w.H.1.8.w.5.5.5.>.t.,.,.2.i.#.;.h.j.@.t p n n i f d s a u s h d s p d f j k c N v c z c c l M C V B V S R ; yXyX",
"yXyXO R V b c j g.*.:.O.1.X.&.&.#.2.#.8.p.4.$.8.l.i.@.< 0 k x f g n x l l f s l x h h g c h d s h l x x k a l x V N n N R : yXyX",
"yXyXO R K C M k g. .y.&.{ &.8.-.:.5.X.[ y.<.-.z.a.5.' > l b n k f b g s h a d d h p s v v v x k h l z z g g l n c M S Z R : yXyX",
"yXyXO R D m b z b.l.J._ @.#.X.=.$.<.$.=.:.:.0.k.q.2.>.= x K I y r x h s y q e u p g a s g a v g p r u y a a l h x l v n R ; yXyX",
"yXyXO T M f a t 1.V.c.4.>.%.#.:.%.#.{ ;.,.;.p.k.3.l.}.B. XI..XW.(.@X'.OX{.].+X X!.B.[.|.+X X|.OX%XXXQ.#X X&X[ 5 h v M N T ; yXyX",
"yXyXO T S z B f j.Z.r.5.6.#.=.5.,.8.#.3.1.$.t.a.e.x.<X;XA.6X].W.N./.x.N.h.r.s.T.0.R.,X6X%XF.h.p.1.*.4XN.M.C.| 0 t f x b T ; yXyX",
"yXyXO T Z k z d 0.*.V.5.&.,.%.2.;.5.| 4.<.*.y.m.9.a.c.3.a.5.i.q.,.r.8.>.i.a.0.0.;.S.<.r.u.f.<.5.5.e.$.;.#.,.$.q q p x m T ; yXyX",
"yXyXO T V j t 8 7.*Xa.y.<.X.&.w.<.%.+.[ :.[ u.l.6.7.N.g.i.u.d.k.,.x.j.f.z.e.g.n.;.j.8.a.j.B.4.7.<.j.,.&.3.s.o.w s f x b Y ; yXyX",
"yXyXO T m p i 0 g.0XE.e.e.5.#.[  .:.{ Q 3./ y.j.%.2.d.7.7.7.r.q.#.u.6.3.z.f.a.a.&.m.6.r.i.d.} >.#.../ ( | &.&.0 t h j m T ; yXyX",
"yXyXO T F b x x x.<Xf.9.w.j.h.0.,.$.K [ 0.1.i.x.3.;.z.u.y.6.w.u.$.x.l.a.J.l.f.k. .l.a.h.k.v.=.-.>.3.0.a.a.f.,.9 y g z c Y ; yXyX",
"yXyXO T S v g y r.>.q.9.2./ &.q.$.&._ %.q.=.i.s.~ E u.e.r.u.a.g.*.c.M.a.L.m.c.n.#.M.t.h.f.V.7.r.9.5.4.f.l.a.;.0 i g x M T ; yXyX",
"yXyXO T A b j a :.qXW.w. .} ! %.6.&.$.,.3.3.j.>.4.| x.g.f.g.g.v.;.v.k.f.J.l.b.V.2.A.r.t.d.v.<.a.i.g.g.l.j.S.&.0 7 u d v T ; yXyX",
"yXyXO T B b x g v.H.i.r.2._ ) 0.h.7.0.=.#.6.t.5.2...i.0.q.t.e.d.;.x.Z.z.Y.v.c.N.4.G.e.z.v.G.7.d.d.j.j.d.p.g.-.q 8 e f k U ; yXyX",
"yXyXO T B j j c t.s.e.u.u.| p.y.%.1.>.#.*.<.s.$.X.1.f.h.i.B.k.g.k.9.h.h.H.N.x.C.6.G.7.t.g.F.7.v.p.w.k.t.m.u.;.0 8 t g z U ; yXyX",
"yXyXO R A n k p 3.! ,.i.f.,.4.-.s.N.e.! Z.6.E.' *.9.7.4.K.6.f.n.9.5.6.W.s.4.i.x.r.i.4.f.7.p.C.2.,.8.0.f.0.V.%.0 r a f c T ; yXyX",
"yXyXO R n g a f t e u q e e w v y.8 q *.0 y 8 s q q 9 i L w q 8 q 0 q 6 0 0 q 0 w e e 0 w 0 9 r w q w q w q p 4 y s j c T ; yXyX",
"yXyXO R V j s u 6 7 > , ; ; 0 q - = 9 1 > a 1 = % 7 v F k v 8 u d M v z B C t t 2 > h g p a 7 u c e ; ; > : u 9 q d j k T ; yXyX",
"yXyXO R V x h p r y y r y y a p y d p i f g p w w p f h j b n z l x z x c x x M M N B A C M V N n c x a s f f s i a f j T ; yXyX",
"yXyXO R G Z N b b x x k c x z z k c l f h c z h k h s s f f j n n z z j k z j g g p a u a h k j h s d f a d x c c b v n R : yXyX",
"yXyX+ R G C N N b V k k h a n n k d a a g k k k f p d l z l m N l g d a a s g s z C S F Z x i a f z l l d g v V S J Y D T ; yXyX",
"yXyXO I F Z C V V B C C C V C S A Z Z C A Z Z Z C B Z S G Z A D D V B V V Z C V A C V D D J G C m m N B G K F G G J P P Y ; yXyX",
"yXyXo j l k k k k k j j j j j j j j j j j j j j j j j j j j j j j j j j j j j j j j j j j j j j j j j j j j k k k k k k z % yXyX",
"yXyXyXyXyXyXyXyXyXyXyXyXyXyXyXyXyXyXyXyXyXyXyXyXyXyXyXyXyXyXyXyXyXyXyXyXyXyXyXyXyXyXyXyXyXyXyXyXyXyXyXyXyXyXyXyXyXyXyXyXyXyXyXyX",
"yXyXyXyXyXyXyXyXyXyXyXyXyXyXyXyXyXyXyXyXyXyXyXyXyXyXyXyXyXyXyXyXyXyXyXyXyXyXyXyXyXyXyXyXyXyXyXyXyXyXyXyXyXyXyXyXyXyXyXyXyXyXyXyX",
"yXyXyXyXyXyXyXyXyXyXyXyXyXyXyXyXyXyXyXyXyXyXyXyXyXyXyXyXyXyXyXyXyXyXyXyXyXyXyXyXyXyXyXyXyXyXyXyXyXyXyXyXyXyXyXyXyXyXyXyXyXyXyXyX"
};
