/* XPM */
static char *result[] = {
/* columns rows colors chars-per-pixel */
"64 64 214 2 ",
"   c black",
".  c #010000",
"X  c #020000",
"o  c #030000",
"O  c #040000",
"+  c #060000",
"@  c #070000",
"#  c #080000",
"$  c #090000",
"%  c #0A0000",
"&  c #0B0000",
"*  c #0C0000",
"=  c #0D0000",
"-  c #0F0000",
";  c #100000",
":  c #110000",
">  c #120000",
",  c #130000",
"<  c #140000",
"1  c #150000",
"2  c #160000",
"3  c #170000",
"4  c #180000",
"5  c #190000",
"6  c #1A0000",
"7  c #1B0000",
"8  c #1C0000",
"9  c #1D0000",
"0  c #1E0000",
"q  c #1F0000",
"w  c #200000",
"e  c #210000",
"r  c #220000",
"t  c #230000",
"y  c #240000",
"u  c #250000",
"i  c #260000",
"p  c #270000",
"a  c #280000",
"s  c #290000",
"d  c #2A0000",
"f  c #2B0000",
"g  c #2C0000",
"h  c #2D0000",
"j  c #2E0000",
"k  c #2F0000",
"l  c #300000",
"z  c #310000",
"x  c #320000",
"c  c #330000",
"v  c #340000",
"b  c #350000",
"n  c #360000",
"m  c #370000",
"M  c #380000",
"N  c #390000",
"B  c #3A0000",
"V  c #3B0000",
"C  c #3C0000",
"Z  c #3D0000",
"A  c #3E0000",
"S  c #3F0000",
"D  c #400000",
"F  c #410000",
"G  c #420000",
"H  c #430000",
"J  c #440000",
"K  c #450000",
"L  c #460000",
"P  c #470000",
"I  c #480000",
"U  c #490000",
"Y  c #4A0000",
"T  c #4B0000",
"R  c #4C0000",
"E  c #4D0000",
"W  c #4E0000",
"Q  c #4F0000",
"!  c #500000",
"~  c #510000",
"^  c #520000",
"/  c #530000",
"(  c #540000",
")  c #550000",
"_  c #560000",
"`  c #570000",
"'  c #580000",
"]  c #590000",
"[  c #5A0000",
"{  c #5B0000",
"}  c #5C0000",
"|  c #5D0000",
" . c #5E0000",
".. c #5F0000",
"X. c #600000",
"o. c #610000",
"O. c #620000",
"+. c #630000",
"@. c #640000",
"#. c #650000",
"$. c #660000",
"%. c #670000",
"&. c #680000",
"*. c #690000",
"=. c #6A0000",
"-. c #6B0000",
";. c #6C0000",
":. c #6D0000",
">. c #6E0000",
",. c #6F0000",
"<. c #700000",
"1. c #710000",
"2. c #720000",
"3. c #730000",
"4. c #740000",
"5. c #750000",
"6. c #760000",
"7. c #770000",
"8. c #780000",
"9. c #790000",
"0. c #7A0000",
"q. c #7B0000",
"w. c #7C0000",
"e. c #7D0000",
"r. c #7E0000",
"t. c #7F0000",
"y. c #800000",
"u. c #810000",
"i. c #820000",
"p. c #830000",
"a. c #840000",
"s. c #850000",
"d. c #860000",
"f. c #870000",
"g. c #880000",
"h. c #890000",
"j. c #8A0000",
"k. c #8B0000",
"l. c #8C0000",
"z. c #8D0000",
"x. c #8E0000",
"c. c #8F0000",
"v. c #900000",
"b. c #910000",
"n. c #920000",
"m. c #930000",
"M. c #940000",
"N. c #950000",
"B. c #980000",
"V. c #990000",
"C. c #9A0000",
"Z. c #9B0000",
"A. c #9C0000",
"S. c #9D0000",
"D. c #9E0000",
"F. c #9F0000",
"G. c #A00000",
"H. c #A30000",
"J. c #A40000",
"K. c #A50000",
"L. c #A60000",
"P. c #A70000",
"I. c #A80000",
"U. c #A90000",
"Y. c #AA0000",
"T. c #AB0000",
"R. c #AC0000",
"E. c #AD0000",
"W. c #AF0000",
"Q. c #B00000",
"!. c #B20000",
"~. c #B30000",
"^. c #B40000",
"/. c #B50000",
"(. c #B60000",
"). c #B70000",
"_. c #B80000",
"`. c #B90000",
"'. c #BA0000",
"]. c #BB0000",
"[. c #BC0000",
"{. c #BD0000",
"}. c #BE0000",
"|. c #BF0000",
" X c #C00000",
".X c #C10000",
"XX c #C20000",
"oX c #C30000",
"OX c #C40000",
"+X c #C50000",
"@X c #C60000",
"#X c #C70000",
"$X c #C80000",
"%X c #CA0000",
"&X c #CD0000",
"*X c #CF0000",
"=X c #D10000",
"-X c #D20000",
";X c #D30000",
":X c #D40000",
">X c #D60000",
",X c #D90000",
"<X c #DD0000",
"1X c #E20000",
"2X c #E30000",
"3X c #E40000",
"4X c #E50000",
"5X c #E70000",
"6X c #E80000",
"7X c #F20000",
"8X c #F50000",
"9X c #FA0000",
"0X c #FD0000",
"qX c None",
/* pixels */
"qXqXqXqXqXqXqXqXqXqXqXqXqXqXqXqXqXqXqXqXqXqXqXqXqXqXqXqXqXqXqXqXqXqXqXqXqXqXqXqXqXqXqXqXqXqXqXqXqXqXqXqXqXqXqXqXqXqXqXqXqXqXqXqX",
"qXqXqXqXqXqXqXqXqXqXqXqXqXqXqXqXqXqXqXqXqXqXqXqXqXqXqXqXqXqXqXqXqXqXqXqXqXqXqXqXqXqXqXqXqXqXqXqXqXqXqXqXqXqXqXqXqXqXqXqXqXqXqXqX",
"qXqX  g k j j j j j j j j j j j j j j j j j j j j j j j j j j j j j j j j j f a u 5 =         qXqXqXqXqXqXqXqXqXqXqXqXqXqXqXqXqX",
"qXqX  ! ] ` _ ) ^ ` ` _ ` / / ` _ [ ( / _ ` / ^ / ` ` ` ` _ ) _ ` ) ) _ _ ^ _ ] ] ] ` ( I n 5 o     qXqXqXqXqXqXqXqXqXqXqXqXqXqX",
"qXqX. U U Z H B V S H S S V M M N N m v Z U H m b N U P F K D V C G C S Z c N C M A Q Q ( ( { ] j @     qXqXqXqXqXqXqXqXqXqXqXqX",
"qXqX. T G M m l h x b B M N g f c n b z j x B V Z m n C n Z n h v m Z B v u j j b N A H L J J E ) ^ V .     qXqXqXqXqXqXqXqXqXqX",
"qXqX. T D c c d g c s k v h a g M b N D N l A Z Z S A M C m F Z M M n C m w l n N N B C A K L F F T ^ / 8     qXqXqXqXqXqXqXqXqX",
"qXqX. Y S z k h h H U D Z ^ H V q D K I H G S S R I R S W b | F M L P K g 6 k c b l d l n B J F G F K ! ^ V     qXqXqXqXqXqXqXqX",
"qXqX. Y K C m h G <X;.y E -.6XH |.+.+XP.N.2XL.x.7XG.j.=X8XZ.m.A.n.f.j.%X4.*.h.t a k h n N B D G G S N V T ~ Z .   qXqXqXqXqXqXqX",
"qXqX. Y H A m i I 9./ %.f.t.9.3.+.^ E =.Q 7.#./ ' >.u.R.e.;.$.o.-...^ z.=Xx.y.Z.P.4 ` d Z G V m V S Z J F T ~ V     qXqXqXqXqXqX",
"qXqX. Y H N b y J *X~ C L B _ E P P T =.) L _ ` ' +.:.( o.&.,.;.#.:.Q $.k.a.n.h.| ,XK F.7 h s F m A G S F D Y ! N     qXqXqXqXqX",
"qXqX. Y P B v 9 K -.../ W p N D m 8 l ~ ! B P F ] _ X.K V ' @.^ ~ T z T +.r.O.` =. .4.{ Z.4 i s V x z n B Z Z T ! 6   qXqXqXqXqX",
"qXqX. Y V i w 7 S c.W L s i f l j * ; z t 3 u s 0 w v 6 F s f j k t m D I } w.L 4.$.>.l.[ L.S , 3 u u f b A C Z Q ! X   qXqXqXqX",
"qXqX. Y M a i e _ *X_ Z N d p v j z H W A g Q S m C ! g ` / F Z F A x x K _ @.R =.` J [ k.p.w.C.> k s d s g c v N ! m   qXqXqXqX",
"qXqX. Y S z j h %.d.*.] b < Z ( J n C ( A w  .R I C ! d P U D n C Z b N Z  .#.G *.[ N D { v.Y.Y.n e N z k l v N V U E +   qXqXqX",
"qXqX. Y A v x s $.C.p.:.V y B W D p F ) V q L B K m Q s / ` P k x j c M E _ %.H W / V j ' 0.4.g.( f.> g l x M C V S ~ f   qXqXqX",
"qXqX. Y D B v j / 5X%.%.R j T ) ! Z [ ' W f H Y ( R { M ( W P L J H E K ) _ o.S } } v l V 8.3.>.0.8.C , 0 d h x H K T ~ O qXqXqX",
"qXqX. Y L l m h | 8.} *.X.L +.&.*.U } =.} U P ! o._ ..I #._ _ ~ ..` #.O.} o.@.F o.} V V E  .Y X.5.7.T < v j x H S S P ~ 3   qXqX",
"qXqX. Y H V B m I I ! 1._ ] ' _ ` $.q.] ) W ~ W ` } | K @.-.e.$.-.8.Z.E.h.6.5.} | @.n A A ` S E @.*.9.j.~ B V C m n C W j   qXqX",
"qXqX. Y A n M l 5 3 h r u p 0 7 7 9 4 6 9 9 8 t v 0 G L 7 l i y e d P #.c.d.0.[ ] ) z K E ..S H ` / y.:XY u l c Z S A T Z   qXqX",
"qXqX. Y K N n l l t d a s 9 1 4 a r 2 0 9 w 8 r s g q 2 3 4 4 , 4 9 > B D.I.s.{ #.` B L L ~ P l I R ' 8.X.= s c v v V K E   qXqX",
"qXqX. Y K A S x z x l t t 9 1 : J x N d t w p s s u v d i u p i s l z 8 +.XXC.{ ^ R Z M J T c B P S U 3.I.r g h x A S S ~ O qXqX",
"qXqX. Y J V n M c z f p i 9 qXqX%.l A x n b z B A N z x g s j k z M B _ P =X#X..{ E v k V ^ C s J B m #.J.o.5 p d C F A ! : qXqX",
"qXqX. Y K D A G C m m n c p qXqXqXt H j l l s i z F j k d s V m s a k y #.;.U.o.[ ( l D F R n m I B m [ V.M., j z b n x E 9 qXqX",
"qXqX  A G S S F D S A Z V x qXqXqXl L k f v z g l N S Z l z n v z f h f Z !.G.o.} [ A f P _ H v Y A G { 7.a.;.1 b c M V Y e qXqX",
"qXqXqX# $ $ # # # # # # # # qXqXqXb P n v l t X.} %.-.^ _ o.X.O.| ] ` >.o.}.v.$...U Q L ! O.P / Y Z S { ;.-X3.; a b C M U y qXqX",
"qXqXqXqXqXqXqXqXqXqXqXqXqXqXqXqXqXn L b l z ^ F.N.&Xm.;.#.3.| i.,.O.+.k.>XB.2...{ ~ H C ~ ) I L J J m E +.f.$.& t g l V P t qXqX",
"qXqXqXqXqXqXqXqXqXqXqXqXqXqXqXqXqXm J l f s : l -.) } U _ o.[ [ X.| W ' O.9.V.#.} G Z N L H Z l G b y K } b.W 2 p g v V T t qXqX",
"qXqXqXqXqXqXqXqXqXqXqXqXqXqXqXqXqXm K l h s ! }. XQ %.Q ) $./ | [ T o.} o.3.n.=.~ H J H G R x H A S J Y } h.f.u 5 i b D T t qXqX",
"qXqXqXqXqXqXqXqXqXqXqXqXqXqXqXqXqXm I x u r K A.;.!  .! ! E R v h E #.' / ( $.G Z { ~ W Y +./ Z S U D Y @.u.e.t h s k V Y t qXqX",
"qXqXqXqXqXqXqXqXqXqXqXqXqXqXqXqXqXm J x t 8 r o.:. .] F U >.%./ ( / ) / W R {  .W ' ` X. .,.{ / ~ H U Z X.=.p.i d m b M Y t qXqX",
"qXqXqXqXqXqXqXqXqXqXqXqXqXqXqXqXqXm G p w 7 b '.^. ./ V d m Z R R M L B i =.e.O.O.Q .._ ! %.W J U S H / -.g.,.y s j v C I t qXqX",
"qXqXqXqXqXqXqXqXqXqXqXqXqXqXqXqXqXm J k p 9 g *.6.*.5.+.( z H ^ A F J w _ } 3.' | %.T R ( *.S J R P Z G *.w.;.t 6 u l N I t qXqX",
"qXqXqXqXqXqXqXqXqXqXqXqXqXqXqXqXqXm K z l g K N.>X*.o.%.] X.T 3.X._ R E +.&.9.P [ O.L V S &.H n R G v S [ >.%.w p s h b I t qXqX",
"qXqXqXqXqXqXqXqXqXqXqXqXqXqXqXqXqXm L v l l ! .XN.t.r.%.] [ ] w.9.P H ) =.( Y U X.[ ~ M c } F A E E t G X.X.<.y 6 u d b P t qXqX",
"qXqXqXqXqXqXqXqXqXqXqXqXqXqXqXqXqXm K z k a S *.%.3.,.=.] @.P _ %.o./ ( *.d.1.C V ) c j F | N l z F d / O.i.] 3 4 r a g P t qXqX",
"qXqXqXqXqXqXqXqXqXqXqXqXqXqXqXqXqXn K b b p w r H L R T L C Z A Y Z D H { ^.Y.{ E X.Z N E [ z i x D z / ..+.H : w u j v I t qXqX",
"qXqXqX+ @ @ @ @ @ @ + + + O qXqXqXb L z p a l c ( a ( ( Z < b U ^ x J ' @.Q.4.^ +.+.R ! E ^ x D I W G ! $.=.M 8 p g b M U y qXqX",
"qXqX  I ! ~ ! ! ! ! Q W T C qXqXqXl I B B v V C i p z B B m N N N C A F $.$X>.9.| O.I T H ^ N n E o.A  .@.f.i m h k M C R e qXqX",
"qXqX. R ^ U K F G T R / J K qXqXqXa L J F D C f v v n Z H H V n m c n j 1.3XN.7...$./ J M ~ m a I R N +. .S.: 1 i g l n R 7 qXqX",
"qXqX. Y Y G Z m l z v V U X.qXqXU n P S Z m z b x B A N m Z B k c k x j #X3.D.@.>.$.R G N ^ A n ~ ^ G -.n.K u w u g z b Q : qXqX",
"qXqX. Y T T L J D Z n c h v C c u b D N j B V v c F H G k N H z t i y *.9Xq.N.@.O.2./ ) B | I n / ,./ M.:.s n N n V B S ! O qXqX",
"qXqX. Y P S A F V M A g d h z B Z M v l l b h t a f w j l i ) ( F r ( 0X9.h.h.' { o.R N ! ~ J b ) ;._ f.W % w h b Z S K R   qXqX",
"qXqX. Y H v n m S `.H.R.A.C.J.(.oXOX).{.`.[.].F.+X'._.).$X~._.W.OX4X{.y.d.a.k.[ ..#./ H [ ,.T V D 2.;.N.a D a s j v N T C   qXqX",
"qXqX. Y H S C b ..6./ Z.X.;.2.c.,.U.9.d.5.1X/.0.|.U.I.G.j.6.%.;XA. .+.n.p.w.u.W | ! Q E Q -.~ { E v.2.F y 1 x z B B M E g   qXqX",
"qXqX. Y K m z x O.S.[ ) =.%.;.+.~ *.8.s.0.w.w.1.f.a.9.3.q.=.-.<.e.7.6.w.9.3.8.H [ ) ` T _ -.U  .7.f.$.p q t h C A S S Q 3   qXqX",
"qXqX. Y Z h a u 1.$X[ ] >.@.:.8.<.6.9.6.h.6.y.r.w.f.h.+.9.1.' 6.8.7.;.+.=.1.0.^ @.` Q T ^ #.} &.g.' h 4 i p f h c H E W O qXqXqX",
"qXqX. Y Z s h l ..K.` +.#.$.O.>...&.y.t.r.#.9.e.6.y.s.e.Y @.A $.Q } ( | +.%.9.U ] [ ' T Y 3.<.s.#.z d v m m n m m S ! d   qXqXqX",
"qXqX. Y J V j q Y K... .] :.s.e.%.E e.t.h.>.0.5.>.t.h.#._ :.| Q | X.>.<.} =.i.t.1.8.2.5.r.l.j.+.l n 7 u f n v v v P R +   qXqXqX",
"qXqX. Y A c k i U X.T.;.>.0.O.@.6.O.5.8.<.,.8.&.-.i.t.4.O.i._ r.o.1.O.%.` [ ,.1.;.w.q.5.m.s._ k I 7 k h j b m M V ! n   qXqXqXqX",
"qXqX. Y Z k f y (  X..;.3.6.<.6.$.5.p.9.X.+.7.>.=.4.6.2.%.-.R 8.J ] X...' @.5.=.w.r.d.g.<.L 2 F 2 r d l z N A H Q Q X   qXqXqXqX",
"qXqX. Y F c h d ] Y O.4.3.9.6.e.X.g.0.0.p.6.7.n.q.q.6.i.7.u.2.e.R &.:.2.e.-.i.3.s.a.7.` c k A t v v m M M V F T Q 6   qXqXqXqXqX",
"qXqX. Y A j h r W D.{ r.6.0.0.( q.t.e.i.t.9.=.7.0.d.v.p.a.A.q.c.%.5.8.*.3.t.c.i.u...k > 3 1 d l l k v C V m P ! M     qXqXqXqXqX",
"qXqX. Y D j s s K N / W.*.%.;.3.,.#.>.x.v.1.<.| t.-.] @X4.q.,.5.:.7.6.<.@.( } b ; q s y p g f j c M M M m I Q V     qXqXqXqXqXqX",
"qXqX. Y S z i w ; 7 t 6 9 q r 9 q 0 0 7 9 q w w r e  .r p A q w h y r j B N # 9 v d d h z x j x x c M D T Q V .   qXqXqXqXqXqXqX",
"qXqX. Y B s a e d 9 q e r q e u r d g b e - r - 2 f f u e w k i a 5 a h 4 t t d h d z n b N B V C V V W W B .   qXqXqXqXqXqXqXqX",
"qXqX. Y G m l l h a u p p i a d f p i r 0 0 e t q w q q y u p y u s i 9 q y t e i s f g k v C A D U Q Q 0     qXqXqXqXqXqXqXqXqX",
"qXqX. Y P A V m v l z j j j f d d a p a d y i u g d s g f s d h h j j f f f c v N Z S D F G J T ! T M O     qXqXqXqXqXqXqXqXqXqX",
"qXqX. T G N v x M n n k d k z l j l x v m b b v n k g d g m B V Z S S C S S C F H D D F L R R Y v $     qXqXqXqXqXqXqXqXqXqXqXqX",
"qXqX. L H C B A D S A M n n m N N A D H J H F Z C C S S A Z F G H J J G G F A A J K U U A k 8 @     qXqXqXqXqXqXqXqXqXqXqXqXqXqX",
"qXqX  g l k k k k k j j j j j j j j j j j j j j j j j j j j j j j k k k k k h s u 7 ; o         qXqXqXqXqXqXqXqXqXqXqXqXqXqXqXqX",
"qXqXqXqXqXqXqXqXqXqXqXqXqXqXqXqXqXqXqXqXqXqXqXqXqXqXqXqXqXqXqXqXqXqXqXqXqXqXqXqXqXqXqXqXqXqXqXqXqXqXqXqXqXqXqXqXqXqXqXqXqXqXqXqX",
"qXqXqXqXqXqXqXqXqXqXqXqXqXqXqXqXqXqXqXqXqXqXqXqXqXqXqXqXqXqXqXqXqXqXqXqXqXqXqXqXqXqXqXqXqXqXqXqXqXqXqXqXqXqXqXqXqXqXqXqXqXqXqXqX",
"qXqXqXqXqXqXqXqXqXqXqXqXqXqXqXqXqXqXqXqXqXqXqXqXqXqXqXqXqXqXqXqXqXqXqXqXqXqXqXqXqXqXqXqXqXqXqXqXqXqXqXqXqXqXqXqXqXqXqXqXqXqXqXqX"
};
