/* XPM */
static char *result[] = {
/* columns rows colors chars-per-pixel */
"64 64 191 2 ",
"   c black",
".  c #010000",
"X  c #020000",
"o  c #050000",
"O  c #070000",
"+  c #080000",
"@  c #090000",
"#  c #0A0000",
"$  c #0B0000",
"%  c #0C0000",
"&  c #0D0000",
"*  c #0E0000",
"=  c #0F0000",
"-  c #100000",
";  c #110000",
":  c #120000",
">  c #130000",
",  c #140000",
"<  c #150000",
"1  c #160000",
"2  c #170000",
"3  c #180000",
"4  c #190000",
"5  c #1A0000",
"6  c #1B0000",
"7  c #1C0000",
"8  c #1D0000",
"9  c #1E0000",
"0  c #1F0000",
"q  c #200000",
"w  c #210000",
"e  c #220000",
"r  c #230000",
"t  c #240000",
"y  c #250000",
"u  c #260000",
"i  c #270000",
"p  c #280000",
"a  c #290000",
"s  c #2A0000",
"d  c #2B0000",
"f  c #2C0000",
"g  c #2D0000",
"h  c #2E0000",
"j  c #2F0000",
"k  c #300000",
"l  c #310000",
"z  c #320000",
"x  c #330000",
"c  c #340000",
"v  c #350000",
"b  c #360000",
"n  c #370000",
"m  c #380000",
"M  c #390000",
"N  c #3A0000",
"B  c #3B0000",
"V  c #3C0000",
"C  c #3D0000",
"Z  c #3E0000",
"A  c #3F0000",
"S  c #400000",
"D  c #410000",
"F  c #420000",
"G  c #430000",
"H  c #440000",
"J  c #450000",
"K  c #460000",
"L  c #470000",
"P  c #480000",
"I  c #490000",
"U  c #4A0000",
"Y  c #4B0000",
"T  c #4C0000",
"R  c #4D0000",
"E  c #4E0000",
"W  c #4F0000",
"Q  c #500000",
"!  c #510000",
"~  c #520000",
"^  c #530000",
"/  c #540000",
"(  c #550000",
")  c #560000",
"_  c #570000",
"`  c #580000",
"'  c #590000",
"]  c #5A0000",
"[  c #5B0000",
"{  c #5C0000",
"}  c #5D0000",
"|  c #5E0000",
" . c #5F0000",
".. c #600000",
"X. c #610000",
"o. c #620000",
"O. c #630000",
"+. c #640000",
"@. c #650000",
"#. c #660000",
"$. c #670000",
"%. c #680000",
"&. c #690000",
"*. c #6A0000",
"=. c #6B0000",
"-. c #6C0000",
";. c #6D0000",
":. c #6E0000",
">. c #6F0000",
",. c #700000",
"<. c #710000",
"1. c #720000",
"2. c #730000",
"3. c #740000",
"4. c #750000",
"5. c #760000",
"6. c #770000",
"7. c #780000",
"8. c #790000",
"9. c #7A0000",
"0. c #7B0000",
"q. c #7C0000",
"w. c #7D0000",
"e. c #7E0000",
"r. c #7F0000",
"t. c #800000",
"y. c #810000",
"u. c #820000",
"i. c #830000",
"p. c #840000",
"a. c #850000",
"s. c #860000",
"d. c #870000",
"f. c #880000",
"g. c #890000",
"h. c #8A0000",
"j. c #8B0000",
"k. c #8C0000",
"l. c #8D0000",
"z. c #8E0000",
"x. c #8F0000",
"c. c #900000",
"v. c #910000",
"b. c #920000",
"n. c #930000",
"m. c #940000",
"M. c #950000",
"N. c #960000",
"B. c #980000",
"V. c #990000",
"C. c #9A0000",
"Z. c #9B0000",
"A. c #9C0000",
"S. c #9E0000",
"D. c #9F0000",
"F. c #A00000",
"G. c #A20000",
"H. c #A50000",
"J. c #A60000",
"K. c #A70000",
"L. c #A90000",
"P. c #AB0000",
"I. c #AC0000",
"U. c #B00000",
"Y. c #B10000",
"T. c #B40000",
"R. c #B50000",
"E. c #B60000",
"W. c #B70000",
"Q. c #B80000",
"!. c #BD0000",
"~. c #C00000",
"^. c #C20000",
"/. c #C30000",
"(. c #C40000",
"). c #CA0000",
"_. c #CD0000",
"`. c #CF0000",
"'. c #D10000",
"]. c #D40000",
"[. c #DA0000",
"{. c #DD0000",
"}. c #DE0000",
"|. c #DF0000",
" X c #E20000",
".X c #E30000",
"XX c #E50000",
"oX c #E70000",
"OX c #EB0000",
"+X c #EC0000",
"@X c None",
/* pixels */
"@X@X@X@X@X@X@X@X@X@X@X@X@X@X@X@X@X@X@X@X@X@X@X@X@X@X@X@X@X@X@X@X@X@X@X@X@X@X@X@X@X@X@X@X@X@X@X@X@X@X@X@X@X@X@X@X@X@X@X@X@X@X@X@X",
"@X@X@X@X@X@X@X@X@X@X@X@X@X@X@X@X@X@X@X@X@X@X@X@X@X@X@X@X@X@X@X@X@X@X@X@X@X@X@X@X@X@X@X@X@X@X@X@X@X@X@X@X@X@X@X@X@X@X@X@X@X@X@X@X",
"@X@Xo y y y y y y u u u u i i i p p p p p p p p p p p p p p p a s s a a a a a a a a a a a a a a a a a a a a a a a a a a s 0 @X@X",
"@X@X# _ ^ ^ ( ( _ ( / _ / ! ~ ^ ~ ~ ! ~ ( ` _ ^ ) ) ^ ^ ~ ~ ~ / / / ^ ^ ~ ~ ^ ) ) _ _ ! Q ! ~ ( ( ( / ~ ^ / / ( ( ( / ^ ~ M @X@X",
"@X@X$ ! Z Z Z m V C M B V v c b B n M B B S G H S H G A V Z C S H J J J S G H V C Z J b z n C S V Z Z B B V b b C K B N K C @X@X",
"@X@X$ W v c m l c m n b m n f c m b v h g k z x j m z h c m V C B B F F M M c f v b B f i s f c v c C N n n N N c v n V P C @X@X",
"@X@X$ E x z b v b n V M v C M B k m B B M z v l c v m x g V D H H S A B D A S l c N J G f x d b B n z c Z A V M M m M B P C @X@X",
"@X@X$ E x l x x m ' j n C T Z ] [ L R Q ! G Z m M F K w l j n D A B M F c N P L L D ) S s z z G D V C C J b b i u M V M F C @X@X",
"@X@X$ R x f j x +.OX}.v.y.%.,.O..X).q.) W.z.K.|.R ~ u 2 f s h b S N k k x _.>.q.q.%.c.!.Z.[.oXXX+XK.n...`.+.' 3 4 a k c H C @X@X",
"@X@X$ E j d h b | _.A.5.#.$.@.7.7.*.&.X.} $.@.@.%.O. .k x n b A S H B c Q =.R %.} w.} ' &.1.Y.s.k.9.;.[ @. .+.8 u y h b G C @X@X",
"@X@X$ R k a u k 2.;.d.&.a.s.e.e.} g.5.@.>.] i.j.f.5.S % a c M x n c v i c 4.1.*.E 0._ ;.r.s.b.c.p.q.` T @.) 6.5 v a k m J C @X@X",
"@X@X$ R z i w e ,.d.V.-.#. .O.>.~ *.i / U L { 6.-.` G = j g j b M x b f h g.] +.R $.` %.O.8.z.c.3.0.) T E J ^ 5 5 g z N J C @X@X",
"@X@X$ T v g d j 4.I :.%.` H #.%.-.O.| ] -.*.&.#.,./ B $ i z c x M h s u N &.{ @.{ M X.W ` 7.5.w.>.;.[ T $.M ~ 4 = y i l H C @X@X",
"@X@X$ T m c l z i.T.-.L #.&.@.` D ! E W ^ ( X.] ..L V $ 7 e h m M z a u k e. .$.>.! P Q ' / >.o.] o.J >.@.P &.1 8 3 9 u C C @X@X",
"@X@X$ T m x j l a L ( G 3.q.-._ } ] Q { +.} +.=...{ J < q r p g z k d a Z +.<.#.*.-.[  . .| w.3.@.v.` [ 7./ =.L s w p j G C @X@X",
"@X@X$ T m k s f %.V m k ..&.$.] #.#.' ] } U | :.[ ~ J 1 g x n B B n z g z Y.5.[ %.%.` ` ) U y.7.o.s.O.W  .~ q.i 8 a h n J C @X@X",
"@X@X$ R g y 9 3 o C w.:.5.;.@.[ O.;...{ #.@.4.9.5.) J u g y u z C F m b K G.} ..#.) J ] _ I p.2.2.v.*.&.~ +.Z.< & t N A U C @X@X",
"@X@X$ R z a r q 1 -.a.n.z.&.1.#.o.1.} X.&.@.2.0.1.} C 8 c c n m b x M n D ;.-.+.$.[ V } ^ ! y.0.-.b.;.w.>.^ h.5 N f d V F C @X@X",
"@X@X$ R z s r f ` !...8.*.-.9.:...0.X.<.1.=.r.y.#.%.Z 1 f m m B F M f c F P.#.@.+.Y C R W E e.r.8.x.%.8.>.[ j.4 , i s v G C @X@X",
"@X@X$ R z d y u 5.-.U :.<.8.9. .O.1.@.5.6. .=.+.s.:.K q b C G A V m k i D x.4.>.{ ..I ] ~ / q.i.w.h.| =.1.-.v.2 - j c c H C @X@X",
"@X@X$ T m x h s 8.Y N  .;.8.>._ o.y.&.e.1.W %.s.x.-.A + s k n C C n x i G '.=.] T ~ S E / ^ u.t.9.0.` &.8.-.[ 5 z i z v F C @X@X",
"@X@X$ T n x s y f.D ' F ' *.%.[ @.8.+.7.} %.g.d.M.O.J $ 8 i k C v x j j b ,.O.W ) I ! ! / K s.w.5.r.| 5.1.#.e.q h p l v J C @X@X",
"@X@X$ T N j f t ;.$...~ [ $.=.;.#.e.#.*.y.:.r.t.h.@.L * w t j b M V N l x Y | ) Y S | ' ^ F y.5.2.8.X.;.*.*.V.3 l l v c G C @X@X",
"@X@X$ T Z k s d 0.P ) @.` X.#.>.@.` [ d.k.o.9.9.e.3.A 6 a l z g c v h u l a.] ' V ) ;.H _ K ,.i.%.p.` ! %.*.S.0 - u l g F C @X@X",
"@X@X$ R k v d i $.M R 1.O.~ ..o.@.#.w.k.p. .8.>.r.] D q d l N m B v g h A w.' K C $.X.( ( L <.q.2.u.o.@.=.<.@.5 7 r z N G C @X@X",
"@X@X$ R f f l x a.=.9.7.K } / ` E _ <.i.3.#.-.0.7.@.J V +.@.>.=.` W o.( <.e.o.Y R [ Q Q ) H 1.e.r.d.*.,.0.1.;.q s u h M K C @X@X",
"@X@X$ R j u a f x.) I 5.U ..w.] W } ;.j.u.$.a.1.p._ R m.K. XW.9.].#._ Q.8.) 1.~ ] ~ ' ! ^ A 2.4.w.a.[ ! ] | m.5 9 a p g D C @X@X",
"@X@X$ R c g d p 6.$.( 8.O.*.%.D Y Z ( #.O.L X.>.w.T 3.@.} $.*.,.$.-.&.{ &. .:.[ T m ^ L _ n O.` ) :.T ~ R O.A.0 m s a h G C @X@X",
"@X@X$ T n l a r u.3.&.d.Y M _ _ } Y J 3.6.( @.1.4.E &.( ..4.$.8.>.4. .T X.W [ } x t T ' ] s E $.I ` l S D $.6.0 = k b z A C @X@X",
"@X@X$ R b c k l h.| a.u...C #.X.%.' ` w.y.$.,.1.9./ 3.` >.5.{ u.=.O.L R ^ U $.I V S E /  .C  .&.[ +.E [ / X.e.8 - 9 j z D C @X@X",
"@X@X$ R c d s y f.3.} 7.+.d &.*. .K | u.5.<.e.;.6.( :._ O.8.+.0.:.) ' @.R #.1.) T G @.2.>.P &.5.u.3.o.4.-.2.7.w 2 t k c G C @X@X",
"@X@X$ R c z x N j.i.i.O.G Y  .] O.J 5.r.%.u.a.=.0.' <.m B -.X.w.<.{ ( F D @.E S x z J =.,.K O.2.%.#.K o.} #.h.2 h y j V H C @X@X",
"@X@X$ R z h k k 6.+.Y -.k.2.L J _ Z $.` T 1.-.} =.M ] U  .e.>.u.@.*.[ W ] -.K T ! T T | 2.] 6.&...[ D o.{ $.8.5 0 r a V J C @X@X",
"@X@X$ R z u w t 9.! U R #.%.[ P -...h.8.n.C.z.f.j.+.9.;.a.,.1.g.>.%.:.( T :.;...+.) Z ] <.R w.] / O.L X. .+.9.3 g a g B P C @X@X",
"@X@X$ R l a p y 7.Z Y Z @.Y D T X.( { ' l.M.,.p.w...7.o.4.w.P u.6.$.*.[  .@.@.}  .! f Z #.L 2.! S ) D ..[ ' a.1 1 g g h F C @X@X",
"@X@X$ T M c k j g.J.f.>.] ) H ;.O.<.2.3.a.:.%.@.i.2.*.>.p.4. .-.a.4.+.Q ) ;.;.o.] u u M o.! <.T ' _ N ..W o.9.1 7 6 r s S C @X@X",
"@X@X$ R m m z v c j H J J | l.C ! B A L H G $.w.m V D R F K L F A A Z ! Z.(.t.+.W N V ! / H @.' %.$.K +.` #.%.4 w s l v H C @X@X",
"@X@X$ R M v k g < , 7 0 0 g % < i & < = m l = - > 2 4 4 < 4 2 ; 7 e q 0 @ ;.| P N n p U :.W ,. .X.y.n ~ -.{ *.3 z r f v G C @X@X",
"@X@X$ E N n z g g u y 9 6 6 0 e 0 e w a j u r i e < 3 5 4 2 3 7 f 4 8 2 Z M.X.<.&.Q N V 8.~ ;.} #.G a &.;.1.>.5 : s p l G C @X@X",
"@X@X$ E M m x C b c v M N N n k c c v j d h l M n i s d a p u p g d p i x d.X.,.X.E U x <.Q ..@.N Q ' ` 1.6.j.1 k r j k F C @X@X",
"@X@X$ R V B n N c g k M M V C A N n x m M M c c v h h M c z z h f l x s x H.4.=.[ R T X.W ( 0.P ! ] ' O.@.f.F.6 5 e t z J C @X@X",
"@X@X$ Y Z A C S N c m B C V Z C F G V N B C C B B n x N b c n c c h g u l E.( O.~ =.+.X.7.I #.U 6.Q F ..+.5.u.6 7 a z b F C @X@X",
"@X@X+ N N N M M M m m m m m M m m m m m m m m m m m m N V K Q W F k g p A <.} %.| @.O.{ 5.T T <.w.4.K R ' #.k.3 w w e j G C @X@X",
"@X@X                                                      . X B L v k h S _._ -.X.=.4.#.4.Y <.t.q.:.:. .^ 1.&.5 z i i z H C @X@X",
"@X@X@X@X@X@X@X@X@X@X@X@X@X@X@X@X@X@X@X@X@X@X@X@X@X@X@X@X@X@X  m J c l g M D.$.&.@.| O.j.0.L 6.,.w...>.<.>.%.5.4 w p f n J C @X@X",
"@X@X@X@X@X@X@X@X@X@X@X@X@X@X@X@X@X@X@X@X@X@X@X@X@X@X@X@X@X@X@Xn L x k s n A.&.3.R k ' r.k.L o.1.p. ._ *.j.<.<.3 n j z v F C @X@X",
"@X@X@X@X@X@X@X@X@X@X@X@X@X@X@X@X@X@X@X@X@X@X@X@X@X@X@X@X@X@X@Xn L n h j K ~.O.7.V 1 ^ f.x.J { +.+.6.%.=.t.l.6.2 b p h b G C @X@X",
"@X@X@X@X@X@X@X@X@X@X@X@X@X@X@X@X@X@X@X@X@X@X@X@X@X@X@X@X@X@X@Xb L z f s M ].V.&.k O G } h.V #.[ O.'  .*.>.s.8.5 - p s c G C @X@X",
"@X@X@X@X@X@X@X@X@X@X@X@X@X@X@X@X@X@X@X@X@X@X@X@X@X@X@X@X@X@X@Xb L c h l J ^.Q.9.-.S ' u.F.o.:.<.9.4.,.i.e.i.8.8 > 9 d n J C @X@X",
"@X@X@X@X@X@X@X@X@X@X@X@X@X@X@X@X@X@X@X@X@X@X@X@X@X@X@X@X@X@X@Xb L l f a H x.9.q.<.I 9.k.V.Y m.e.u.3.a.v.p.8.u.q 0 e t j J C @X@X",
"@X@X@X@X@X@X@X@X@X@X@X@X@X@X@X@X@X@X@X@X@X@X@X@X@X@X@X@X@X@X@Xb L x g i c /.w.N.y.k.z.p.D.` y.3.q.5.e.f.b.f.L.5 - 8 e a S C @X@X",
"@X@X@X@X@X@X@X@X@X@X@X@X@X@X@X@X@X@X@X@X@X@X@X@X@X@X@X@X@X@X@Xb J j a t v _.R.h.i.z.0.v.V.O.m.8.t.t.g.j.B.m.p.8 q u i d A C @X@X",
"@X@X@X@X@X@X@X@X@X@X@X@X@X@X@X@X@X@X@X@X@X@X@X@X@X@X@X@X@X@X@Xb J h p y n T.t.i.s.e.n.g.G.@.h.q.y.r.e.9.r.a.g.5 9 e y h D C @X@X",
"@X@X@X@X@X@X@X@X@X@X@X@X@X@X@X@X@X@X@X@X@X@X@X@X@X@X@X@X@X@X@Xb I m x g b  .X.6.I.U.;.4.S.i.a.0.u.s.e.e.9.p.{.: h d g x G C @X@X",
"@X@X@X@X@X@X@X@X@X@X@X@X@X@X@X@X@X@X@X@X@X@X@X@X@X@X@X@X@X@X@Xb K x c d b 9 r e 5 4 q 0 7 0 9 r e q e q w w 4 3 z d z v J C @X@X",
"@X@X@X@X@X@X@X@X@X@X@X@X@X@X@X@X@X@X@X@X@X@X@X@X@X@X@X@X@X@X@Xb I N c d h h u y w y z r : - < = - * ; ; = * u 0 > u s h F C @X@X",
"@X@X@X@X@X@X@X@X@X@X@X@X@X@X@X@X@X@X@X@X@X@X@X@X@X@X@X@X@X@X@Xb I S V N m M C N m c x z z d u u i a i r w e u w w i a h D C @X@X",
"@X@X@X@X@X@X@X@X@X@X@X@X@X@X@X@X@X@X@X@X@X@X@X@X@X@X@X@X@X@X@Xn I B B l l d s g j h j a s d a a g h f s y t a f c b m Z P C @X@X",
"@X@X@X@X@X@X@X@X@X@X@X@X@X@X@X@X@X@X@X@X@X@X@X@X@X@X@X@X@X@X@Xn L x M D G H A n u i s l k l d d j b N V F C h z V G J L I Z @X@X",
"@X@X@X@X@X@X@X@X@X@X@X@X@X@X@X@X@X@X@X@X@X@X@X@X@X@X@X@X@X@X@Xc P Z F S Z S F H G Z m n m N A J F A D S F H K J G D G K I N @X@X",
"@X@X@X@X@X@X@X@X@X@X@X@X@X@X@X@X@X@X@X@X@X@X@X@X@X@X@X@X@X@X@Xw l j j j j j j h h h h h h h h h h h h h h h h j j j j j j i @X@X",
"@X@X@X@X@X@X@X@X@X@X@X@X@X@X@X@X@X@X@X@X@X@X@X@X@X@X@X@X@X@X@X@X@X@X@X@X@X@X@X@X@X@X@X@X@X@X@X@X@X@X@X@X@X@X@X@X@X@X@X@X@X@X@X@X",
"@X@X@X@X@X@X@X@X@X@X@X@X@X@X@X@X@X@X@X@X@X@X@X@X@X@X@X@X@X@X@X@X@X@X@X@X@X@X@X@X@X@X@X@X@X@X@X@X@X@X@X@X@X@X@X@X@X@X@X@X@X@X@X@X",
"@X@X@X@X@X@X@X@X@X@X@X@X@X@X@X@X@X@X@X@X@X@X@X@X@X@X@X@X@X@X@X@X@X@X@X@X@X@X@X@X@X@X@X@X@X@X@X@X@X@X@X@X@X@X@X@X@X@X@X@X@X@X@X@X"
};
