/* XPM */
static char *result[] = {
/* columns rows colors chars-per-pixel */
"64 64 213 2 ",
"   c black",
".  c #010000",
"X  c #020000",
"o  c #030000",
"O  c #040000",
"+  c #050000",
"@  c #060000",
"#  c #070000",
"$  c #080000",
"%  c #090000",
"&  c #0A0000",
"*  c #0B0000",
"=  c #0C0000",
"-  c #0D0000",
";  c #0E0000",
":  c #0F0000",
">  c #100000",
",  c #110000",
"<  c #120000",
"1  c #130000",
"2  c #150000",
"3  c #160000",
"4  c #170000",
"5  c #180000",
"6  c #190000",
"7  c #1A0000",
"8  c #1B0000",
"9  c #1C0000",
"0  c #1D0000",
"q  c #1E0000",
"w  c #1F0000",
"e  c #200000",
"r  c #210000",
"t  c #220000",
"y  c #230000",
"u  c #240000",
"i  c #250000",
"p  c #260000",
"a  c #270000",
"s  c #280000",
"d  c #290000",
"f  c #2A0000",
"g  c #2B0000",
"h  c #2C0000",
"j  c #2D0000",
"k  c #2E0000",
"l  c #2F0000",
"z  c #300000",
"x  c #310000",
"c  c #320000",
"v  c #330000",
"b  c #340000",
"n  c #350000",
"m  c #360000",
"M  c #370000",
"N  c #380000",
"B  c #390000",
"V  c #3A0000",
"C  c #3B0000",
"Z  c #3C0000",
"A  c #3D0000",
"S  c #3E0000",
"D  c #3F0000",
"F  c #400000",
"G  c #410000",
"H  c #420000",
"J  c #430000",
"K  c #440000",
"L  c #450000",
"P  c #460000",
"I  c #470000",
"U  c #480000",
"Y  c #490000",
"T  c #4A0000",
"R  c #4B0000",
"E  c #4C0000",
"W  c #4D0000",
"Q  c #4E0000",
"!  c #4F0000",
"~  c #500000",
"^  c #510000",
"/  c #520000",
"(  c #530000",
")  c #540000",
"_  c #550000",
"`  c #560000",
"'  c #570000",
"]  c #580000",
"[  c #590000",
"{  c #5A0000",
"}  c #5B0000",
"|  c #5C0000",
" . c #5D0000",
".. c #5E0000",
"X. c #5F0000",
"o. c #600000",
"O. c #610000",
"+. c #620000",
"@. c #630000",
"#. c #640000",
"$. c #650000",
"%. c #660000",
"&. c #670000",
"*. c #680000",
"=. c #690000",
"-. c #6A0000",
";. c #6B0000",
":. c #6C0000",
">. c #6D0000",
",. c #6E0000",
"<. c #6F0000",
"1. c #700000",
"2. c #710000",
"3. c #720000",
"4. c #730000",
"5. c #740000",
"6. c #750000",
"7. c #760000",
"8. c #770000",
"9. c #780000",
"0. c #790000",
"q. c #7A0000",
"w. c #7B0000",
"e. c #7C0000",
"r. c #7D0000",
"t. c #7E0000",
"y. c #7F0000",
"u. c #800000",
"i. c #810000",
"p. c #820000",
"a. c #830000",
"s. c #840000",
"d. c #850000",
"f. c #860000",
"g. c #870000",
"h. c #880000",
"j. c #890000",
"k. c #8A0000",
"l. c #8B0000",
"z. c #8C0000",
"x. c #8D0000",
"c. c #8E0000",
"v. c #8F0000",
"b. c #900000",
"n. c #910000",
"m. c #920000",
"M. c #930000",
"N. c #940000",
"B. c #950000",
"V. c #960000",
"C. c #970000",
"Z. c #980000",
"A. c #990000",
"S. c #9A0000",
"D. c #9B0000",
"F. c #9C0000",
"G. c #9D0000",
"H. c #9E0000",
"J. c #9F0000",
"K. c #A00000",
"L. c #A10000",
"P. c #A20000",
"I. c #A30000",
"U. c #A40000",
"Y. c #A50000",
"T. c #A60000",
"R. c #A70000",
"E. c #A80000",
"W. c #A90000",
"Q. c #AA0000",
"!. c #AB0000",
"~. c #AC0000",
"^. c #AD0000",
"/. c #AE0000",
"(. c #AF0000",
"). c #B00000",
"_. c #B20000",
"`. c #B30000",
"'. c #B40000",
"]. c #B50000",
"[. c #B60000",
"{. c #B70000",
"}. c #B80000",
"|. c #B90000",
" X c #BB0000",
".X c #BC0000",
"XX c #BD0000",
"oX c #BE0000",
"OX c #BF0000",
"+X c #C00000",
"@X c #C10000",
"#X c #C40000",
"$X c #C50000",
"%X c #C60000",
"&X c #C80000",
"*X c #C90000",
"=X c #CA0000",
"-X c #CC0000",
";X c #D10000",
":X c #D40000",
">X c #D70000",
",X c #E40000",
"<X c #E50000",
"1X c #E70000",
"2X c #E80000",
"3X c #EA0000",
"4X c #EC0000",
"5X c #ED0000",
"6X c #EE0000",
"7X c #F10000",
"8X c #F30000",
"9X c #FB0000",
"0X c None",
/* pixels */
"0X0X0X0X0X0X0X0X0X0X0X0X0X0X0X0X0X0X0X0X0X0X0X0X0X0X0X0X0X0X0X0X0X0X0X0X0X0X0X0X0X0X0X0X0X0X0X0X0X0X0X0X0X0X0X0X0X0X0X0X0X0X0X0X",
"0X0X0X0X0X0X0X0X0X0X0X0X0X0X0X0X0X0X0X0X0X0X0X0X0X0X0X0X0X0X0X0X0X0X0X0X0X0X0X0X0X0X0X0X0X0X0X0X0X0X0X0X0X0X0X0X0X0X0X0X0X0X0X0X",
"0X0X+ j l k k k k k k k k k k k k k k k k k k k k k k k k k k k k k k k k k k k k k k k k k k k k k k k k k k k k k l j O 0X0X0X",
"0X0X# _ [ ] ] ) _ ` ' [ ( ( ` ' ( ( ) ' ' ' ` _ _ ` ' ) ) _ ) ~ ( ] ] ] ' [ ] ' ' _ ` ) _ ] ' ' ( ` ' [ ` ) ' _ ` ` ( Y $ 0X0X0X",
"0X0X# E R P L D V V B V n m S T F B b Z T I H K D V Z F A S B z n N b V P J J A C V B K G H R P A F P D L Q / W G S A E $ 0X0X0X",
"0X0X# R K H G S k l n M v x j b V C Z M M Z b Z b j b N D M l t j g l x M V Z n x x x m V v x b f c B B A C x B D Z A R % 0X0X0X",
"0X0X# E C A Z v l N A V F H A N Z S C B B N m n V M v v b C j w j n B M m m N F Z m z c N A S P n n C m l b v m D G G R $ 0X0X0X",
"0X0X# R H Z V L v D E N F U F C G F E P Y F K A X.M k Q Q n < 9 J M K b S K ! E ` R W R ^ _ L R w M v S P A x v m Z S R $ 0X0X0X",
"0X0X# E V N G S f.6XN._.f._. X5XF.v.g.y.^.:XQ.` ;.f.p U.=Xt q T s ` ( ( *.m.E._ &X.Xr.1X#X'.XXq.%.8X<Xu.}.@.< V V V Z R $ 0X0X0X",
"0X0X# E Z l Z L J.5.q.6.2.X.2.e.q.<.*.%.L.+X@.X.^ @.[ &.a.}  .E ^ / 1.<.6.N.=.2.U.r.J.;Xr.=.6.h..Xu.=.4.[ E 2 w p C C R $ 0X0X0X",
"0X0X# T K b x a y.g.M.[ e.u.9.l.8.f.1.q.=.5.=.&.F o.[ I X.9 G T I V ..*.) $.4.) ! 7.7.p.<.%.E ~ L b (  ...! 1 p i x A T $ 0X0X0X",
"0X0X# R H b h d *.:XS.Z.9.t.,.G.g.q.Y 9.+. ./ g W ] E ! n 6 A M  .l R Q H Q ;.U ] +.,.r.t.8.6...*.&.) @.;.A.2 j l b C T $ 0X0X0X",
"0X0X# R b a u q 4.E.,.=.K J U @.#.` ` B m f a i I Q M N B e ' z %.b P ..C ~ <.A Y [ 0.9.:.[ n %.s } ! ( } W , 8 i d b T $ 0X0X0X",
"0X0X# R v p w 9 8.X.3.1.o.8.X.s.w.0.q.' H M v w ^ V P s ] A @.S ` v L @.M ` %.! L $.9.e.=.} | ` K A ` v E j.8 s f c V T $ 0X0X0X",
"0X0X# R C x l f z.I.=...>.5.*.u.w.q.<.) K K F ^ ( { Y ] U c Q A | H / ..S ] 1...[ ;.>.:.@.' @./ G H j S +.p.: h j v C T $ 0X0X0X",
"0X0X# T J V V B F.d.C.( *.( o.q.=.O.&.Q A j X.O. .~ E ! ` H U z @.D / O.F o.,.` ~ A A T Z ` ( Q ~ L Z @.f.+.> t j j x T $ 0X0X0X",
"0X0X# R I V j k 8.>XU.*.#.| C +.O.| { I b P i J W o.T R ! U E A %.I } -._ _ +.Y }  .! W _ >.%.' | =.+.7.r.] > y j d n T $ 0X0X0X",
"0X0X# R C n i a B.4X3.>.O./ I ,.u.r.6.[ Y Q ) I R ,.7.k.1.W :.I q. .g.t.[ 4.f.&.X.#.5.l.o.2.6.g.8.e.5.a.-.o.2 n Z V b T $ 0X0X0X",
"0X0X# R M d s p i.$Xi.| 4.+.{ y.i.e.q.8.>.{ >.>.<.j.g.$.f.n.9.k.v...O...X.g.8.@.v.;.&.@.#.E.} %.$.#.o.{ 5.T 2 x v A v R $ 0X0X0X",
"0X0X# R A c k s t.OXK.f.9.#.o.<.w.1.4.8.7.=.q.9.r.@.1.a 6 5 7 6 7 0 9 l Z f 6 0 7 0 0 0 s a a 8 s g B P 8 d H k n B b R $ 0X0X0X",
"0X0X# R C c v j c.B.z.j.3.| o.,.e.2.d.p.w.=.t.o.o.6.G.; 2 3 e 9 r 3 7 e 7 5 a f f 0 3 0 d r 4 3 y u 5 6 p x j m v z M R $ 0X0X0X",
"0X0X# R A h d u e.f.u.b.d.e.<.<.#.$.! 1.-.3.*.o.r.:.J v g t i k j s i w y a f f g z a h x d d p s j h n x l v n V l m R $ 0X0X0X",
"0X0X# R N d i a 8.%.t.j.v.5.;.>.$.6.i.r.t.e.p.r.i.[ r.6 n Z n j c j d h l l d f c C M z B N b k j j j V V n c C F M M R % 0X0X0X",
"0X0X# R A b l z M.D.T.d.2.2.*.3.1.] r.y.r.:.w.d.e.s.A - i h f p f j l x M V M h l k l h c A A V N B N N m l n S P A N E % 0X0X0X",
"0X0X# R C z l l k.@X5.q.4.>.*.9.e.X.O.9.6.<.6.p.4.*.U ; e i y g g d p e d d x C A S v x g k Z S v v F C A C C Z S H ^ ! % 0X0X0X",
"0X0X# R A c g k j.R.r.0.q.1.=.2.s.q.>.,. ...2.7.8.X.( z Y D > * = 5 l g D =.+.) Y  ./ V 8 l M V V x m D D N N V F W 1 2 X 0X0X0X",
"0X0X# R D v a d M.>.r.s.p.r.*.7.f.|  .o.:.<.8.%.u.e.( T.}.k f s d U c C @./ ,X1.3X].9.) ^ T.1 B e M z c b C c C F R R o   0X0X0X",
"0X0X# R C b f a t.] r.f.O.o./ $.q... .o.+.-.| E o.2.q.z.s.o.| _ #.R _ O.R o.-.@.) 1.0.2.a.E m T +.y h c m V Z N V A / j   0X0X0X",
"0X0X# R V k f i u.a.p.p.3. ./ { &.{ .. ...| ) { W X.#.<.e.-.#.) >.K ` :.E O.w.&.=.5.$.q.y.,.U +.J x l z M A F Z B n T ( $ 0X0X0X",
"0X0X# R N l k j s.E.S.*.0.9.<.:.0.*.1.3.:. .] @.>.( { =.+.;.O...4.) ] #.^ { 4.#.} 2.d.k.y.n.<.5.R ! $X1 v N V A C v Z ! y   0X0X",
"0X0X# R A l l f h.$.8.#.v.j.9.<.e.*.:.,.&.,.@.>.%.' I ` X.@.Q f #.Y ^ ` F @.&.| %.;.r...+.8.d.0...K.%Xf a l N F F v N W n   0X0X",
"0X0X# R n d s w 0.M.e.2.q.d.0.*.w.*.>.5.=.#.<.1.@.W 4.3.6.8. .W o.U Q +.Y | $.&.@.7.h.o.*.1.9.l.O.J.k.} i e f m B n b I U   0X0X",
"0X0X# R n s t w i.=.0.:.<.j.0.-.i.r.2.%.;.1.w.1.%.} ,.$.5.o...! i.` #.7.) %.k.*.t.r.5.0.5.+.0.#.J 2.x.a.T * n c z x z D !   0X0X",
"0X0X# R Z h a 0 ] ] b.f.7.d.e.=.e.l.s.+.w.3.f.7.` q.*.1.| E / G 6.D ~ 7.F :.h.>.4.8.2.h...! 9.*.f :.c.a.,.U 7 f k c b m ~ o 0X0X",
"0X0X# R V k d e r.7X4.e.6.@.l.p.e.w.g.| :.7.u.W V ' ] ' ~ Q ..R >.U } e.I +.y.-.5.2.;.&.e. .`  .v ` y.Q S.`.3 f g n V m Q * 0X0X",
"0X0X# E A m v k s.X.&.<.5.} <.3.=.O.9.X.` g.:.,.6.Y ! 0.} V @.R d.:.*.q.%.O.w.O.%.4.=.%.9.( ,.} p ' i.1.M.w.4 t s j x b R * 0X0X",
"0X0X# E F N n m V n U U P G G P U ] I | K I Z G L ..E.P / ~.Y.( D u.Q.[.7.4.h.*.>.1.@.,.u.R -.' c 7.8.r.e.y.c 0 k b M C E * 0X0X",
"0X0X# R G B V A 9 K ..b C 6 N W ] f p < u Y d 0 p l 7 t C u * < ; 6 5 H c.b.q.&.5.*.+.$.>.T @...U 5.8.h.k.j.o.= p j v M T * 0X0X",
"0X0X# E D V M v N B g a u p f a l n a h N Z A M C F F G F F B d a q i o.oXt.l.:.%.&.>.-.d.| 0.^ x >.5.q.c./.( = 7 w s l R * 0X0X",
"0X0X# R Y I m N z z C m N V M V n a v b m D J H B m M c n x C i l v l 6.X.<.d.;.<.*.:.:.d...a.` l r.=.1.e.J.` r d j l x R * 0X0X",
"0X0X# E G L Y G B k C J H A N v l c x M D M M S N k v k j l c f c g f -.Y.>.l.-.$.-.-.-.6.' 5.+.$.w.6.=.5.2. .u 8 i z x R * 0X0X",
"0X0X# R J N b C A c l l m n s A N b z H K S h C J l r r k f l z N n u m.b.t.j.O.7.8.#.=.x.o.>.8.l z.y.f.1.w._ 3 q i k l R * 0X0X",
"0X0X# R I C b N c V b M c x x c j i z f q j h d M m k y e k s d ^ K ,.9X,.h.n.7.] &.4.>.r.{ o.[ b 2.i.) B.B.W ; y f h z R * 0X0X",
"0X0X# E A b j p B *Xb.-Xx. .|.{.!.~.oX X[.OX*X~.}.(.Z.b.).E v #.n.D.|.q.e.s.d.>.5.5.*. .0.#.W o.x S 7.9.A.z.A s j n M V E * 0X0X",
"0X0X# R G A V B D.B.g.2Xs.5.<X~.,XV.O.>.P.f.9.g.$.~.+.X.A.W G D J E +.T.9.s.v.7.6.s.q.:.h.Z U ..L H _ &.D.4.p u h g M S E * 0X0X",
"0X0X# R A M x l S.b.g.2.n.<.w.h.k.2.9.%.c.t.w.7.0.8.2.,.X...X.W 2.| 2.F.O.8.h.#.1.;.w.;.h.H { ' { o.~ X.H.| , t s j l b W * 0X0X",
"0X0X# R J V M n j.] q.0.v.z.8.f.m.6.v...t.c.j.n.r.c.k.g...&.>.K 7.S :.V.<.:.d.;.:.2.9.5.i.' 7.:.| 7.t.p.s.A h p l z V B Q % 0X0X",
"0X0X# R G V n e -.3.J.1.N.s.3.u.N.@.d.I 7.p.s.8.y.s.g.;.o.T X.R 9.I +.m.o.%.s.1.5.p.%.O.u.&.@.@.E X.d.o.o.r 3 y n N N Z ~ . 0X0X",
"0X0X# T L F D B W.,.z.0.m.9.1.s.C.,.h.r.y.g.z.z.Z.i.} ` '  .8.[ 3._ 9.G.W <.c.2.0.6.u.w.0.C.G.( J W w.&.z C i p d x C H Q   0X0X",
"0X0X# R A v v z r. .G.u.y.-.6.s.Z.=.s.r.u.h.z.&.o.~ J <.%.^  .` >.K ;.x.~ 9.Z.<.2.t.B.O.9.u.A.s.8.u.%.F ! : z z z z m T H   0X0X",
"0X0X# R D n u 0 3.x.<.4.M.@.-.8.a.@.e.5.[ $.o.} D I 4.X.1.o.) F +.I <.Z.! l.l.' %.u.x.g.+.*.0.q.i.=.Y 6 8 f x b B V V W j   0X0X",
"0X0X# R A m c s 7.( t.:.M.z.%.0.C.*.c.s.c.8.5.>.6.e.&.i.e.1.4.9.h.` 2.t.) 3.n.;.e.f.j.i.7.a.q.0.O.V d l v l z n m Z S ! 9   0X0X",
"0X0X# R Z g e 6 6.Q k.j.e.p.:.i.N.0.N.f.k.h.i.i.t.:.=.=.,.:.;.+.i.,.r.j.;.s.n.e.i.t.n.=.p.g.<.` a V , x M C C S A V W R . 0X0X0X",
"0X0X# E M g i e 3.G i.l.<.b.V.U.z.5.1.<.7.' g.5.>.(.,._.G.0.7.} a.3.H.>.}.w.9.1.8.0.2.,.} A S J > e p f f j b A A J ^ 6   0X0X0X",
"0X0X# E N k u y 5 w w w u 9 9 9 q e w p y s.s e =.R y 8 e w w h w F r b g p t t t r t 0 e 9 i < i g f g z V F V G ! G X   0X0X0X",
"0X0X# E N l g s a p p 0 k J < = 9 : q i I % , k = : r ; ; 0 c i 6 : ; : w > 8 f p j d v w q r y i s f g k h l m ! Q O   0X0X0X0X",
"0X0X# E D N b z k k g s j r 8 0 u p t r t w r u t 8 9 7 9 9 0 w 7 5 7 0 0 t p s c c b v x l l x M B B B V V H Q ! <   0X0X0X0X0X",
"0X0X# R J A V m x k g a s s f u u a h d g h f f g h g h f a i u h g k x x c x c b m m v v m B V B Z S D G T ! L &     0X0X0X0X0X",
"0X0X# E H N b n m v l z c b m n n n n k g f j N V Z Z A Z B C V M C Z m M b x v c x n M n m S F B M F Y E E z o     0X0X0X0X0X0X",
"0X0X# U J Z B B V V B S F J K J F A Z Z D D S S G F J H H D D S N N A N A V N Z F D S A F A D L I T Y A d =     0X0X0X0X0X0X0X0X",
"0X0XO k z l l l l l k k k k k k k k k k k k k k k k k k k k k k k k k k k k k k l l l l l l l s e 5 @       0X0X0X0X0X0X0X0X0X0X",
"0X0X0X0X0X0X0X0X0X0X0X0X0X0X0X0X0X0X0X0X0X0X0X0X0X0X0X0X0X0X0X0X0X0X0X0X0X0X0X0X0X0X0X0X0X0X0X0X0X0X0X0X0X0X0X0X0X0X0X0X0X0X0X0X",
"0X0X0X0X0X0X0X0X0X0X0X0X0X0X0X0X0X0X0X0X0X0X0X0X0X0X0X0X0X0X0X0X0X0X0X0X0X0X0X0X0X0X0X0X0X0X0X0X0X0X0X0X0X0X0X0X0X0X0X0X0X0X0X0X",
"0X0X0X0X0X0X0X0X0X0X0X0X0X0X0X0X0X0X0X0X0X0X0X0X0X0X0X0X0X0X0X0X0X0X0X0X0X0X0X0X0X0X0X0X0X0X0X0X0X0X0X0X0X0X0X0X0X0X0X0X0X0X0X0X"
};
