/* XPM */
static char *result[] = {
/* columns rows colors chars-per-pixel */
"64 64 210 2 ",
"   c black",
".  c #010000",
"X  c #020000",
"o  c #030000",
"O  c #040000",
"+  c #050000",
"@  c #060000",
"#  c #070000",
"$  c #080000",
"%  c #090000",
"&  c #0A0000",
"*  c #0B0000",
"=  c #0C0000",
"-  c #0D0000",
";  c #0E0000",
":  c #0F0000",
">  c #100000",
",  c #110000",
"<  c #120000",
"1  c #130000",
"2  c #140000",
"3  c #150000",
"4  c #160000",
"5  c #170000",
"6  c #180000",
"7  c #190000",
"8  c #1A0000",
"9  c #1B0000",
"0  c #1C0000",
"q  c #1D0000",
"w  c #1E0000",
"e  c #1F0000",
"r  c #200000",
"t  c #210000",
"y  c #220000",
"u  c #230000",
"i  c #240000",
"p  c #250000",
"a  c #260000",
"s  c #270000",
"d  c #280000",
"f  c #290000",
"g  c #2A0000",
"h  c #2B0000",
"j  c #2C0000",
"k  c #2D0000",
"l  c #2E0000",
"z  c #2F0000",
"x  c #300000",
"c  c #310000",
"v  c #320000",
"b  c #330000",
"n  c #340000",
"m  c #350000",
"M  c #360000",
"N  c #370000",
"B  c #380000",
"V  c #390000",
"C  c #3A0000",
"Z  c #3B0000",
"A  c #3C0000",
"S  c #3D0000",
"D  c #3E0000",
"F  c #3F0000",
"G  c #400000",
"H  c #410000",
"J  c #420000",
"K  c #430000",
"L  c #440000",
"P  c #450000",
"I  c #460000",
"U  c #470000",
"Y  c #480000",
"T  c #490000",
"R  c #4A0000",
"E  c #4B0000",
"W  c #4C0000",
"Q  c #4D0000",
"!  c #4E0000",
"~  c #4F0000",
"^  c #500000",
"/  c #510000",
"(  c #520000",
")  c #530000",
"_  c #540000",
"`  c #550000",
"'  c #560000",
"]  c #570000",
"[  c #580000",
"{  c #590000",
"}  c #5A0000",
"|  c #5B0000",
" . c #5C0000",
".. c #5D0000",
"X. c #5E0000",
"o. c #5F0000",
"O. c #600000",
"+. c #610000",
"@. c #620000",
"#. c #630000",
"$. c #640000",
"%. c #650000",
"&. c #660000",
"*. c #670000",
"=. c #680000",
"-. c #690000",
";. c #6A0000",
":. c #6B0000",
">. c #6C0000",
",. c #6D0000",
"<. c #6E0000",
"1. c #6F0000",
"2. c #700000",
"3. c #710000",
"4. c #720000",
"5. c #730000",
"6. c #740000",
"7. c #750000",
"8. c #760000",
"9. c #770000",
"0. c #780000",
"q. c #790000",
"w. c #7A0000",
"e. c #7B0000",
"r. c #7C0000",
"t. c #7D0000",
"y. c #7E0000",
"u. c #7F0000",
"i. c #800000",
"p. c #810000",
"a. c #820000",
"s. c #830000",
"d. c #840000",
"f. c #850000",
"g. c #860000",
"h. c #870000",
"j. c #880000",
"k. c #890000",
"l. c #8A0000",
"z. c #8B0000",
"x. c #8C0000",
"c. c #8D0000",
"v. c #8E0000",
"b. c #8F0000",
"n. c #900000",
"m. c #910000",
"M. c #920000",
"N. c #930000",
"B. c #940000",
"V. c #960000",
"C. c #970000",
"Z. c #980000",
"A. c #990000",
"S. c #9A0000",
"D. c #9B0000",
"F. c #9C0000",
"G. c #9D0000",
"H. c #9E0000",
"J. c #9F0000",
"K. c #A00000",
"L. c #A10000",
"P. c #A20000",
"I. c #A30000",
"U. c #A40000",
"Y. c #A50000",
"T. c #A60000",
"R. c #A70000",
"E. c #A80000",
"W. c #AB0000",
"Q. c #AC0000",
"!. c #AD0000",
"~. c #AE0000",
"^. c #B20000",
"/. c #B30000",
"(. c #B40000",
"). c #B60000",
"_. c #B70000",
"`. c #BB0000",
"'. c #BD0000",
"]. c #BF0000",
"[. c #C10000",
"{. c #C20000",
"}. c #C40000",
"|. c #C80000",
" X c #CB0000",
".X c #CE0000",
"XX c #CF0000",
"oX c #D00000",
"OX c #D50000",
"+X c #D60000",
"@X c #D70000",
"#X c #D90000",
"$X c #DA0000",
"%X c #DC0000",
"&X c #DD0000",
"*X c #DF0000",
"=X c #E20000",
"-X c #E40000",
";X c #E70000",
":X c #E80000",
">X c #E90000",
",X c #EA0000",
"<X c #F00000",
"1X c #F20000",
"2X c #F30000",
"3X c #F40000",
"4X c #F60000",
"5X c #F70000",
"6X c #FE0000",
"7X c None",
/* pixels */
"7X7X7X7X7X7X7X7X7X7X7X7X7X7X7X7X7X7X7X7X7X7X7X7X7X7X7X7X7X7X7X7X7X7X7X7X7X7X7X7X7X7X7X7X7X7X7X7X7X7X7X7X7X7X7X7X7X7X7X7X7X7X7X7X",
"7X7X7X7X7X7X7X7X7X7X7X7X7X7X7X7X7X7X7X7X7X7X7X7X7X7X7X7X7X7X7X7X7X7X7X7X7X7X7X7X7X7X7X7X7X7X7X7X7X7X7X7X7X7X7X7X7X7X7X7X7X7X7X7X",
"7X7X7X7X7X7X7X7X7X7X7X7X7X7X7X7X7X          : 0 p f j l l l l l l l l l l l l l l l l l l l l l l l l l l l l z a 7X7X7X7X7X7X7X",
"7X7X7X7X7X7X7X7X7X7X7X7X7X7X7X    $ a F ^ ..X.| [ ` _ _ ) ) ( ( _ ' ] ] [ ( ^ ( ( ] ' ' ` ( ) ` ` ` ` ' _ ) _ ( D 7X7X7X7X7X7X7X",
"7X7X7X7X7X7X7X7X7X7X7X7X7X  . ; Q :.%.o.` W G H S Z G J K J F K K S A S P N c M S H Z F S Z A A m M A I C V C J J 7X7X7X7X7X7X7X",
"7X7X7X7X7X7X7X7X7X7X7X    > ] &.| Q G G A b M N N m n k V A n b v h b m C j p d h b n n A B M N B N v v n C G I J 7X7X7X7X7X7X7X",
"7X7X7X7X7X7X7X7X7X7X    B >.} E H Z S A S B l B Z S Z B C M V N M l l n J K j v h m M n x m D G L K D B m B D L H 7X7X7X7X7X7X7X",
"7X7X7X7X7X7X7X7X7X  @ +...~ Y L S M b m N C n c b C l t N ! J A ^ U P W } K g n n H K A D G U C Z B U j Z n l S H 7X7X7X7X7X7X7X",
"7X7X7X7X7X7X7X7X  1 | [ L C N S C b x m B N g g n x.%.q P K L k X.u.x ).>X<X=X%XL.f.S.C.d.H.P.G.,XK.j 7 k l M K H 7X7X7X7X7X7X7X",
"7X7X7X7X7X7X7X  # } ` Y J I G J I F F H F J 9.'.d l V F G F { O.O.$.~ M.y.3.-.w.9.%.%.| o.' X.o.%.9.v 5 f x v K H 7X7X7X7X7X7X7X",
"7X7X7X7X7X7X  O  .' P L D A H A K T z W T.<X[.O.E <.) ( ~ J t W Q :.U =.8.d.~ r.} $./ +.Q W E ) o.).l x h v v Z H 7X7X7X7X7X7X7X",
"7X7X7X7X7X    A ] I G G S N B C L f W *X2XT.h.7.! D B b h D 5 B x o.g ..-.x.T 1.C W R D !  .%.Z %.t.v 3 l n M F H 7X7X7X7X7X7X7X",
"7X7X7X7X7X  w O.E D Z Z n x c B c ).2XN.y.C.=.O.V d d h d l m , s ~ h | | 8.P ^ Z Z T M L i.0 ( { R.d - u g b H H 7X7X7X7X7X7X7X",
"7X7X7X7X  X / / B V N m z h d u #XN.&.r.i.0.[ ^ h e 6 g u p I b * C 0 V  ...Q D M ^ J f A - G V } D.f > 7 e s V H 7X7X7X7X7X7X7X",
"7X7X7X7X  q { L B n k h h z y )...#.r.0.[ -.T I i k b d i Z J T S o.x ' #.0.[ ,.A I ' D r i u b @.g.v g u d b G H 7X7X7X7X7X7X7X",
"7X7X7X7X  _ ^ F S Z B M m a @X` 1.:.} [ P W B E x l J S n N A  .C ' p / ^ e.~ p.v g ) I P D f E @.q.M 8 j c N J H 7X7X7X7X7X7X7X",
"7X7X7X  6 ] A Z H H C B y Z.2.(.5._ J D S _ J T j z V c V n @.I U o.m R ] p.1.j._ ~ N | ) Q ^ I X.3.k M N C L U H 7X7X7X7X7X7X7X",
"7X7X7X  c ( U I Z N Z F x.4X-.z.6.U C J Y o.Y I Z K F W ( ( @.&.Y 1.S ` &.y.O.w. .9.` :./ { Q ^ -.d.v 7 j m N J H 7X7X7X7X7X7X7X",
"7X7X7X  Y W Z S A B v B =XA.U.o.g.G F G Y #.Q ^ P I W &.;.6.#...[ { ] ` } ;.#.=.....) } #.}  .X.2.;.z j j c Z I H 7X7X7X7X7X7X7X",
"7X7X7Xo ) P F B C D x v.F.b.S.=.&.U M ) V ..I ! K _ [ 6.*.Y i a y d ^ B y a i 8 w t y 0 8 9 9 r 9 q 0 Z m n B L J 7X7X7X7X7X7X7X",
"7X7X7X7 _ n z l k j f *XB.Z.v.! 7.b M Z b ) Z ~ L ] $.8.P p M t j g t w M j a s t e 7 w e a y w 7 y B z M M n G J 7X7X7X7X7X7X7X",
"7X7X7Xj ~ m x h h p u./.{.i.j.L 2.J L V M Q c G P ' <.} D y y m M k v g v m M M b k j g h k g l g x n n N B F P L 7X7X7X7X7X7X7X",
"7X7X7XS Y z g a a s U.XXf.5.<.F ( H P B Z ! n H I } 1.m m 8 j h b N B C Z S S Z N n M b v l C V Z V S F G C Z Y ~   7X7X7X7X7X7X",
"7X7X  Y T V x s s A $Xe.g.<.[ x O.x v M C [ ~ F R ' V.3 > p y u i d v C N D M B V v l b x x c v N A Z V D M C I W     7X7X7X7X7X",
"7X7X  R K V v k d ,.-Xl.,.<.o.i E C R Y L +.C K H $.T.- x x c g g f p V Z U P I K G C A B Z D n b n M B J J C K ~ b     7X7X7X7X",
"7X7X. R F c g a i W...7.+.O.) k U k G ~ H ,.K U ( 0.*.y ;.#. .[ ( { X.+.4.2.1.<.1.-.[ ] l k N N M B M N Z G G D Q _ p   7X7X7X7X",
"7X7X. R G z k s l {.( ] -.| { V *.Z L ~ ~ Q W G U { 7.3Xz.y.%.6Xf.*X=. Xf.1X7.@Xc.i...L P &Xh z f N C n b v C P F Q ! %   7X7X7X",
"7X7X. R G l s d n R o.~ K ^ J 9 | A W ( P ) G } %. .5.( ..<.*.+.2.:.O.{ +.' E } } ..[ >.@.^ N.X.R n D M x c B A J H / H   7X7X7X",
"7X7X. R F x g y M 9.3.$.{ ` I s { Z Q { / [ / &.^ F E R %.;.] } ..:.+.] ..*.T ^ n { R ..q.e.[  X' &.< b S v h n S J T / 3   7X7X",
"7X7X. R H N x x #.:X^.$.O.{ E H J c ] ~ P | H B j E L T ] ( ) ] ] O.' U ( 6.K ^ A %.I ^ ` ..w.0.`.K.C , d x g z N H L ! x   7X7X",
"7X7X. R J m j u S x.,.>.%.X.o.%.<.~ -.] ' 3.H f S R N X.` _ ! W W +.A g I #.A ] x E F 2.&.' 2.O.i.t.u.J t c z j x C A E K   7X7X",
"7X7X. R F c s 9 A 3.1.%.O.I Q T <.Y R &./ | O.^ E c D @.U U ^ { K ! I H A ] A U b ` H / ~ / ) %.9.d.E.} s k k b x B Z K / X 7X7X",
"7X7X. R D c x u b _.$.=.o.c n m J j A ` b w.L / W Z ! $.H ^ P ( U o.I c K %.I ] v { V #.X.+.1.%.<.4.w.d.} ! s b D Z N n / : 7X7X",
"7X7X. R A h s s P @.1.k.' ..*.;.y.W  .V Y ~ #.$.@.) X.%.J +.( Y ! #.! c I @.J } Z &.D @.%._ 5.5.6.3.r.g.r.f.6 t m F F B W 7 7X7X",
"7X7X. R G n j a R ;.v.j.o.Q E Y =.m ! Q , ( p B -.' +.X.U J I _ ! +.Q n ( ;.G } g <.G ..P / $.$.4.>.4.7.z..X5 4 u p c S E t 7X7X",
"7X7X. R K V b h Q L.].m.| U m v #.V } [ j @ $ m Q c t._ 3.<.' _ / ` =.~ 7.r.$.7.D 7.( W U A W E ,.&.-.i.h.p.v 0 t a z b T t 7X7X",
"7X7X. R P Z b f H a OX3.;.X.' x ^ ) ..U k ! 8 p 4.J Y.J B D J Z H _ B ] Z P ' ,.8.v.{ -.} D / Q E =.>.5.<.l.F 1 f x M D R r 7X7X",
"7X7X. R K S l k 0 T +.z.8.f.P U ( b ` X.O.q.[ N ] X.*.< , , : : 1 3 1 t W , : 9 o.f.1.%._ D U $.X.X.@.7.*.D._ 2 0 g x M T r 7X7X",
"7X7X  R K n h i u w.=.D.@.@.y 6 | D Q B L Q G _ q.O.i.= r 8 8 9 u a a l f u M M u.L.n.| ^ L E { | #.| | O.a.@.q u d x z Y r 7X7X",
"7X7X  R T L L D Z 9 <.r.q.>.! K O.M m b T } x ^ %.#.$.9 a a a p d c f l k f d c N.OX2.,.) F ) Q ] :.-.%.@.&.>.r 2 t f n U r 7X7X",
"7X7X7XG Y F A S C L 8.9.v.8.2.Q R M U U / { _ %.5.o.v.} > t k f x M y p d j k c y.E.;.8.*./ ..Q %.;.<.-._ 0.,.u 4 y d z I r 7X7X",
"7X7X7Xx ! A S C M z j +X8.B.p.{ u.A E D R [ J -.;.| b.F.c 9 s x m Z k k z c c j F.S.4.7.u.,.( E =.1. .O.` 6.:.e i f x b I r 7X7X",
"7X7X7Xq ( S C C V M a ( 3XH.h.+.e.*.*.V p ~ Z  .*./ 7.w.E.* n Z j N f c f f b 2.5X>.9.` 6.:.E %.a.8.<.:.O.0.o.w a f b N U r 7X7X",
"7X7X7X+ _ H N m n c k h X.e.p.:.n.%...G B $.S } -.` :.H.v.3.K.n.}.[./.`.'.XX;X|.p.x.&.&.^ 1.2.*.2.q.a.f.=.t.[ 7 p f z V U r 7X7X",
"7X7X7X  R E A B M N k z U [ G.8.l.#.^ K B %.n `  .^ :.%.0.U.~.oXg.!.x.}.b.n.#.3.d.x.#.=.@.%.g.t.^ 7.4.s.=.p.C 9 h c b C R r 7X7X",
"7X7X7X  b ! S N Z n v g Y 9.G.v.w.0.+.W G C K  ...Y O.o.w.f.-.' O.h.1.U $.1.y.$.:.d.9.Q | &.>.d.[ _ 6.t.8.-.w V m n V V T t 7X7X",
"7X7X7X  q ^ F m x v c k , l Z ;.I.:.4.E D ^ Z %.O.!  ...$.;./ Q &.0.u.Z X.*.o.} ( ..2.<.! o.#.s.j.+.9.k.j.q.6 e z B D F E e 7X7X",
"7X7X7X7X  / E m x z g p u h 4 J.h.f.i.[ ! 9.L G -.] G ) G c b m b o.@.z [ L J ` V L } 9.=.[ 2.a.j.2.=.:.b.h s v m B N S ! 3 7X7X",
"7X7X7X7X  i ( H N N v z g h w y O.F.A.4.#.s.` y.n.+.] { | ) o._ @.u.q.P %.) [ } 6.| X.$.x.u.*.h.2.c.6.v.A p w d v N C G ^ ; 7X7X",
"7X7X7X7X  o R W V C M z k h k u 3 D 8.h.0.C.#.d.p.#.[ %.=. ...:. .5.0.Z %.| [ ;.%.%. .6.9.j.y.4.1.h.l.! 5 t v z x A F P !   7X7X",
"7X7X7X7X7X  p ( T A Z N c b c p q 4 x ~ 0.J.u.i.g.=.! &.#.w.<.5.X.6.4.F _ ~ 9.} <.=.t.q.&.h.K.r.&.r.a.1 d i z x M B N E S   7X7X",
"7X7X7X7X7X    Z ~ H Z C M m v x i a h h / 7.q.u.f.q.| u.q.a.s.a.=.i.s.@.,.#.t.+.0.i.a.p.8.9.m.f.H.7.3 C 9 s g m V B D ! d   7X7X",
"7X7X7X7X7X7X  % Q / A V M M v z l s q i < V G } 2.n.9.a.6.i.j.8.j.z.p.o.y.>.s.t.6.3.0.h.9.x.q.$.c 1 s y h z l M n C T ~ -   7X7X",
"7X7X7X7X7X7X7X  & ! ~ J J G S C B x g u r g 5 2 t _ Y  .5.Q.q.8.y.7.k.6.i.q.p.l.u.c.8.3.&.E c 6 w f l v b m B m B J ^ c   7X7X7X",
"7X7X7X7X7X7X7X7X  6 Q ^ K V V x v c k d y s i l j 8 8 q N q y y t r w r w e e u p y i t w % q u x x b b B V D S K ! R o   7X7X7X",
"7X7X7X7X7X7X7X7X    % W ~ U B S G J A b l l v c z c k t 0 3 s N g s e y n y < , 5 4 4 w 6 w a u d f h z v v m Z ! ^ 3   7X7X7X7X",
"7X7X7X7X7X7X7X7X7X7X  # M / Q I G F D Z V C V B N n v v b N V A S N V m b v v v l z h d p y u a f h k x x b V Q ^ e     7X7X7X7X",
"7X7X7X7X7X7X7X7X7X7X7X    w P ^ Q L J L L H S C V V B v b d k f f k z l z f g j h j c n c v z v m B S S F T ^ T 7     7X7X7X7X7X",
"7X7X7X7X7X7X7X7X7X7X7X7X    o 5 U W Q E L A m b c c v j n S H K F B a s g c x c k z b C D J Y K N V P R ! Q V #     7X7X7X7X7X7X",
"7X7X7X7X7X7X7X7X7X7X7X7X7X7X      , i N P T T P K J H S G G A F J K L D B N B C G U P J L L I T R R T H l <     7X7X7X7X7X7X7X7X",
"7X7X7X7X7X7X7X7X7X7X7X7X7X7X7X7X7X        % 3 r d h l z z z z z l l l l l l l l z z z z z z l g t 9 %       7X7X7X7X7X7X7X7X7X7X",
"7X7X7X7X7X7X7X7X7X7X7X7X7X7X7X7X7X7X7X7X7X7X7X7X7X7X7X7X7X7X7X7X7X7X7X7X7X7X7X7X7X7X7X7X7X7X7X7X7X7X7X7X7X7X7X7X7X7X7X7X7X7X7X7X",
"7X7X7X7X7X7X7X7X7X7X7X7X7X7X7X7X7X7X7X7X7X7X7X7X7X7X7X7X7X7X7X7X7X7X7X7X7X7X7X7X7X7X7X7X7X7X7X7X7X7X7X7X7X7X7X7X7X7X7X7X7X7X7X7X",
"7X7X7X7X7X7X7X7X7X7X7X7X7X7X7X7X7X7X7X7X7X7X7X7X7X7X7X7X7X7X7X7X7X7X7X7X7X7X7X7X7X7X7X7X7X7X7X7X7X7X7X7X7X7X7X7X7X7X7X7X7X7X7X7X"
};
