/* XPM */
static char *result[] = {
/* columns rows colors chars-per-pixel */
"64 64 189 2 ",
"   c black",
".  c #010000",
"X  c #020000",
"o  c #050000",
"O  c #060000",
"+  c #080000",
"@  c #090000",
"#  c #0A0000",
"$  c #0B0000",
"%  c #0C0000",
"&  c #0D0000",
"*  c #0F0000",
"=  c #100000",
"-  c #110000",
";  c #120000",
":  c #130000",
">  c #140000",
",  c #150000",
"<  c #160000",
"1  c #170000",
"2  c #180000",
"3  c #190000",
"4  c #1A0000",
"5  c #1B0000",
"6  c #1C0000",
"7  c #1D0000",
"8  c #1E0000",
"9  c #1F0000",
"0  c #200000",
"q  c #210000",
"w  c #220000",
"e  c #230000",
"r  c #240000",
"t  c #250000",
"y  c #260000",
"u  c #270000",
"i  c #280000",
"p  c #290000",
"a  c #2A0000",
"s  c #2B0000",
"d  c #2C0000",
"f  c #2D0000",
"g  c #2E0000",
"h  c #2F0000",
"j  c #300000",
"k  c #310000",
"l  c #320000",
"z  c #330000",
"x  c #340000",
"c  c #350000",
"v  c #360000",
"b  c #370000",
"n  c #380000",
"m  c #390000",
"M  c #3A0000",
"N  c #3B0000",
"B  c #3C0000",
"V  c #3D0000",
"C  c #3E0000",
"Z  c #3F0000",
"A  c #400000",
"S  c #410000",
"D  c #420000",
"F  c #430000",
"G  c #440000",
"H  c #450000",
"J  c #460000",
"K  c #470000",
"L  c #480000",
"P  c #490000",
"I  c #4A0000",
"U  c #4B0000",
"Y  c #4C0000",
"T  c #4D0000",
"R  c #4E0000",
"E  c #4F0000",
"W  c #500000",
"Q  c #510000",
"!  c #520000",
"~  c #530000",
"^  c #540000",
"/  c #550000",
"(  c #560000",
")  c #570000",
"_  c #580000",
"`  c #590000",
"'  c #5A0000",
"]  c #5B0000",
"[  c #5C0000",
"{  c #5D0000",
"}  c #5E0000",
"|  c #5F0000",
" . c #600000",
".. c #610000",
"X. c #620000",
"o. c #630000",
"O. c #640000",
"+. c #650000",
"@. c #660000",
"#. c #670000",
"$. c #680000",
"%. c #690000",
"&. c #6A0000",
"*. c #6B0000",
"=. c #6C0000",
"-. c #6D0000",
";. c #6E0000",
":. c #6F0000",
">. c #700000",
",. c #710000",
"<. c #720000",
"1. c #730000",
"2. c #740000",
"3. c #750000",
"4. c #760000",
"5. c #770000",
"6. c #780000",
"7. c #790000",
"8. c #7A0000",
"9. c #7B0000",
"0. c #7C0000",
"q. c #7D0000",
"w. c #7E0000",
"e. c #7F0000",
"r. c #800000",
"t. c #810000",
"y. c #820000",
"u. c #830000",
"i. c #840000",
"p. c #850000",
"a. c #860000",
"s. c #870000",
"d. c #880000",
"f. c #890000",
"g. c #8A0000",
"h. c #8B0000",
"j. c #8C0000",
"k. c #8D0000",
"l. c #8E0000",
"z. c #8F0000",
"x. c #900000",
"c. c #910000",
"v. c #920000",
"b. c #930000",
"n. c #940000",
"m. c #950000",
"M. c #960000",
"N. c #970000",
"B. c #980000",
"V. c #990000",
"C. c #9B0000",
"Z. c #9D0000",
"A. c #9F0000",
"S. c #A00000",
"D. c #A10000",
"F. c #A20000",
"G. c #A50000",
"H. c #A60000",
"J. c #A70000",
"K. c #A80000",
"L. c #AA0000",
"P. c #AB0000",
"I. c #AC0000",
"U. c #AE0000",
"Y. c #B30000",
"T. c #B70000",
"R. c #B80000",
"E. c #B90000",
"W. c #BB0000",
"Q. c #BC0000",
"!. c #BE0000",
"~. c #BF0000",
"^. c #C10000",
"/. c #C30000",
"(. c #C40000",
"). c #C60000",
"_. c #CD0000",
"`. c #D00000",
"'. c #D10000",
"]. c #D60000",
"[. c #DA0000",
"{. c #DC0000",
"}. c #DE0000",
"|. c #DF0000",
" X c #E80000",
".X c #E90000",
"XX c #EB0000",
"oX c #EC0000",
"OX c None",
/* pixels */
"OXOXOXOXOXOXOXOXOXOXOXOXOXOXOXOXOXOXOXOXOXOXOXOXOXOXOXOXOXOXOXOXOXOXOXOXOXOXOXOXOXOXOXOXOXOXOXOXOXOXOXOXOXOXOXOXOXOXOXOXOXOXOXOX",
"OXOXOXOXOXOXOXOXOXOXOXOXOXOXOXOXOXOXOXOXOXOXOXOXOXOXOXOXOXOXOXOXOXOXOXOXOXOXOXOXOXOXOXOXOXOXOXOXOXOXOXOXOXOXOXOXOXOXOXOXOXOXOXOX",
"OXOXO g h g g g g g g g g g g g g g g g g g g g g g g g g g g g g g g g g g g g g g g g g g g i w 3 o       OXOXOXOXOXOXOXOXOXOX",
"OXOX# ( ] ] / / ) ) ~ ~ ^ ) ) ) ( / / ( ) ^ ^ / ^ E ~ ) _ _ ) ` _ ( _ ( ) / / _ _ _ / ( _ ' ' _ ` ` ) I v =     OXOXOXOXOXOXOXOX",
"OXOX# W D S M N D T Z M x B I K D H Z M B S B C M j c n x n L F F Z N N n D F A I P A A K H K E Q W R Q / ' C @     OXOXOXOXOXOX",
"OXOX$ E A S M n k m N N V v b B z B x f x n C n l e d a g l c M B v k k k c M v g b s k m B A A b B D A Z L ^ ! q     OXOXOXOXOX",
"OXOX# R A B S A S N m m m b m Z Z m S M z z z N x 9 f x m b v n C S C m j f d h x B m k c x g j v v Z G S V Z R ~ i     OXOXOXOX",
"OXOX$ R Z c l B a D J P H Y U D G B { C N K E D d w I L S c C G G Y ` I P H K 8 5 T U l u s l k l x b B B Z Z D T ! w   OXOXOXOX",
"OXOX$ T m M m C k.(.W ).6.L..XoXoX}.F.g.~ +.| B D T ' ( S [ {.XX X_.|.R.#.+.0 8 G k.Q. .;.n.q b u N V N n M N N A E R $   OXOXOX",
"OXOX$ T N z l x c.>.} ..z.I.W.F.F.J.r.=..._ _ ( ( ] 2.+.0.7.H.8.u.8.t.,.+.` o.R L %. .O.S.E w.B M 6 a v n z N Z Z H E J . OXOXOX",
"OXOX$ T n b v h n.%.@.,.N.4.-.i.F.e.<.R ^ L } I ..X.] o.6.( +.>.3.>.2.;.I a N < 6 C I I g O.9.[.I F 3 a n v C M m m G E <   OXOX",
"OXOX$ T l s h j e...$.=.q.) s.x.Z.x. .Z } B O.Z [ O.^ P ;.E [ O.} ;.:.;.O.A ( j g G o.P T S ) <.g.%.Y p s c x n b B A E v   OXOX",
"OXOX$ T g y e 7 / p.U N } ;.g.p.6.x.8.e.[ h U K { ^ Z ` ;.J C U $._ ] o.E U I y e F ~ N G ( M ( e.r.G.i < 9 f h k c b K U   OXOX",
"OXOX$ T f t e q p.S &. .t.i.s.a.N.y.d.j.&.h ` G X.{ G _ -.v z V Q ' ! } Y H { 2 0 h E x b c x 2.@.l.x.' 9 0 p s s l c N ~ * OXOX",
"OXOX$ T z s r a k.8.I  .r.p.t.e.N.F...e.q.m 1.W =.| Y %...l Q Y o.;.>.$.$.P ( q 1 C Q T z h w X.4.o.q.5.[ j g k l v m V E e OXOX",
"OXOX$ Y Z c c n c./ } / 9.9.u.t.c.n.Y <.<.l  ...$.>.W 1.5.I [ X.@.-.+.1.o./ A B : 8 @.' F 4 q &.) Q -.9.`.d 2 f k x n B Y d OXOX",
"OXOX$ Y D F V n 2.T.;.[ 8.t.p.s.N.F.w.0.>.( @.{ 7.6.] 4.w.E R } <.e.7.1.%.[ K 1 > 5 +.@.j Z F P M D ~ O.c.P & 4 i f j x J c OXOX",
"OXOX$ Y Z x M m y.x. .:.t.p.q.p.d.M.9.0.r.$.7._ w.y.:.9.y.O.T 8.6.i.l.h.8.3.w.4 p u N S R T V ~ L N A / @.m.B & 0 d N S L M OXOX",
"OXOX$ T m j s a p A F ] ;.;.=.=.>.<.<.&.%.#.'  .#.X...0.O.{ y.&.+.w.g.g.1.X.-.< u q C | ' H G K F C j Y X.r.S ; j m C Z L m OXOX",
"OXOX$ R z h r w * 6 b 9 s 6 8 w 8 q 5 i 8 5 5 6 6 6 e u 5 y b 4 6 6 S D.S.y.6.x b S 8.t.8...+.| $.) Y _ >.k.` 7 w g x A L m OXOX",
"OXOX$ R m c y y r r ; k d M 6 e 4 8 w 3 w 4 2 < 0 0 r 5 4 q 1 5 g Q ; -.q.7.| r = 0 ..H ~ K S M C f i l / ,.<.2 1 r f v K m OXOX",
"OXOX$ R M x l d t 9 u i u i x p p p a p d j g w u g k p t 0 w i i u c G N p.t.K =.U 5.p.^ 3.;.! @.` ) *.v.v.#.5 l u a h D m OXOX",
"OXOX$ R B M k b v l h m A M z x h s l h c M V S n h x k s f k l f p h l <.u.z.W } L 7.4.3.%.&.H { X.~ ` +.1.H.5 ; p g v G m OXOX",
"OXOX$ R M Z c g j g u a M H x v x z F V k l v n b l v m M N A D A l d s = k ;.I D I 5.o.-.} ) R / / K E ^ -.,.8 , y i x H m OXOX",
"OXOX@ A m M b x x v x x x N N V C Z A Z C C C C S G L U U D b B N V n k z ) T x i $ R l _ F L z M b V V F / $.6 - 5 i f C m OXOX",
"OXOXo 3 2 2 2 1 1 1 < 1 1 1 2 < + + + + + + + @ # $ * e H W I V M x p e k 7 W b d % n O.@.J S B H S J H  .) +.5 > 4 q p S m OXOX",
"OXOXOXOXOXOXOXOXOXOXOXOXOXOXOXOXOXOXOXOXOXOXOXOXOXOX    X N W A M N j a g t.@.I G O L E 1.>.4.:.$.&.@.t.r.9.%.5 9 6 i f F m OXOX",
"OXOXOXOXOXOXOXOXOXOXOXOXOXOXOXOXOXOXOXOXOXOXOXOXOXOXOXOX  X I W b c f f L H.@.W D % V ] V K S _ E P P ( R ] 6.p s i d x G m OXOX",
"OXOXOXOXOXOXOXOXOXOXOXOXOXOXOXOXOXOXOXOXOXOXOXOXOXOXOXOXOX  1 Q S x f u ( / $.P a O c w e r w z N x y 7 f C f.p 8 r r u Z m OXOX",
"OXOXOXOXOXOXOXOXOXOXOXOXOXOXOXOXOXOXOXOXOXOXOXOXOXOXOXOXOX  X U Z k g h M t.+.Y Z C | X.%.X.L [ +.} B m } ..q.2 7 f h l S m OXOX",
"OXOXOXOXOXOXOXOXOXOXOXOXOXOXOXOXOXOXOXOXOXOXOXOXOXOXOXOXOXOX  P H c a a ( !.{ k d > ,.q.7.&.%.<.d.;.O.<.8.7.} t , 4 y g S m OXOX",
"OXOXOXOXOXOXOXOXOXOXOXOXOXOXOXOXOXOXOXOXOXOXOXOXOXOXOXOXOXOX  U H Z V n A ).q.=.H g $.3./ ^ Q E R ..) ] | &.o.5 8 r h m J m OXOX",
"OXOXOXOXOXOXOXOXOXOXOXOXOXOXOXOXOXOXOXOXOXOXOXOXOXOXOXOXOXOXOXm G h s a h =.>.! [ z 0.6.t.%.C B Y ' ( ~ Q [ &.6 2 0 a x G m OXOX",
"OXOXOXOXOXOXOXOXOXOXOXOXOXOXOXOXOXOXOXOXOXOXOXOXOXOXOXOXOXOXOXn G j i e C ) &.~ ) l o.D.&.X.-.6.4.7.3.7.h.s.,.4 3 q y d S m OXOX",
"OXOXOXOXOXOXOXOXOXOXOXOXOXOXOXOXOXOXOXOXOXOXOXOXOXOXOXOXOXOXOXn S a t 8 d 9 j.W I B v o.*.8.p.6.3.>.9.7.w.>.j.2 9 0 e s A m OXOX",
"OXOXOXOXOXOXOXOXOXOXOXOXOXOXOXOXOXOXOXOXOXOXOXOXOXOXOXOXOXOXOXn H g u r k A.v.>.&.) Y } %.| ,...( K W O.] ' 1.4 i e p j S m OXOX",
"OXOXOXOXOXOXOXOXOXOXOXOXOXOXOXOXOXOXOXOXOXOXOXOXOXOXOXOXOXOXOXn K N x c Z '.W.:.3.} p.U 8.7.d.5.t.i.2.2.w.4.-.5 e p g v G m OXOX",
"OXOXOXOXOXOXOXOXOXOXOXOXOXOXOXOXOXOXOXOXOXOXOXOXOXOXOXOXOXOXOXn K N x l K p.d.r.7.@.i.] ^ W  .| &.#.` ` [ @.h.2 , e d l F m OXOX",
"OXOXOXOXOXOXOXOXOXOXOXOXOXOXOXOXOXOXOXOXOXOXOXOXOXOXOXOXOXOXOXn K B b v Q ^.8.7.) ) e.| u._ ..:.2.#.$.+.$.=.#.6 * 5 q a F m OXOX",
"OXOXOXOXOXOXOXOXOXOXOXOXOXOXOXOXOXOXOXOXOXOXOXOXOXOXOXOXOXOXOXn H h s g j ).1.p.:.) 7.;.s.l.#.>.b.C.t.q.u.b.-.4 0 8 r a Z m OXOX",
"OXOXOXOXOXOXOXOXOXOXOXOXOXOXOXOXOXOXOXOXOXOXOXOXOXOXOXOXOXOXOXn H j k p j B.B.:.0.X.p.o.8.d.a.L 5.3.2.-.;.e.=.3 5 y s c D m OXOX",
"OXOXOXOXOXOXOXOXOXOXOXOXOXOXOXOXOXOXOXOXOXOXOXOXOXOXOXOXOXOXOXn G z u h D 9./.C.z.3.E ` -.,.:.^ o.$.o.^ +.#.;.2 1 t f j F m OXOX",
"OXOXOXOXOXOXOXOXOXOXOXOXOXOXOXOXOXOXOXOXOXOXOXOXOXOXOXOXOXOXOXn G g r q t ^.5.h.u.#.E 5.x.C.M.@.e.a.5.2.w.e.4.z 6 9 i g D m OXOX",
"OXOXOXOXOXOXOXOXOXOXOXOXOXOXOXOXOXOXOXOXOXOXOXOXOXOXOXOXOXOXOXn F g p t P T p.p.f.w.8.y.A.D.P.@.z.N.l.g.v.C.~.4 , 8 r g A m OXOX",
"OXOXOXOXOXOXOXOXOXOXOXOXOXOXOXOXOXOXOXOXOXOXOXOXOXOXOXOXOXOXOXn D g a y N J b.3.r.d.2.r.n.C.>.X.q.t.9.y.e.j.g.9 > t d l G m OXOX",
"OXOXOXOXOXOXOXOXOXOXOXOXOXOXOXOXOXOXOXOXOXOXOXOXOXOXOXOXOXOXOXn L n l h T _.m.j.t.=.2.$.T %.#.1.,.;.4.t.k.9.2.5 , q i h D m OXOX",
"OXOXOXOXOXOXOXOXOXOXOXOXOXOXOXOXOXOXOXOXOXOXOXOXOXOXOXOXOXOXOXn J M c d a K.7.M.m.1.I ] >.} 9.4.7.-.u.y.8.q.V.2 p e u k F m OXOX",
"OXOXOXOXOXOXOXOXOXOXOXOXOXOXOXOXOXOXOXOXOXOXOXOXOXOXOXOXOXOXOXn F v l y z (.+.3.9.=.K ( ] { &.=.} 3.>.$.t.g.8.4 , q i d D m OXOX",
"OXOXOXOXOXOXOXOXOXOXOXOXOXOXOXOXOXOXOXOXOXOXOXOXOXOXOXOXOXOXOXn H h p t N D.<.=.+.=.N 6.7.e.1._ U U D $.j.t.s.6 , w u g F m OXOX",
"OXOXOXOXOXOXOXOXOXOXOXOXOXOXOXOXOXOXOXOXOXOXOXOXOXOXOXOXOXOXOXn J M k p x y.1.g.,.%._ y.N.0.8.w.1.Q ! @.7.w.E.1 ; 9 r a A m OXOX",
"OXOXOXOXOXOXOXOXOXOXOXOXOXOXOXOXOXOXOXOXOXOXOXOXOXOXOXOXOXOXOXn F z z s h ).A.g.y.s.N ..w.0.b.j.k.q.w.3.-.M.t.6 3 5 w p Z m OXOX",
"OXOXOXOXOXOXOXOXOXOXOXOXOXOXOXOXOXOXOXOXOXOXOXOXOXOXOXOXOXOXOXn H v k k I ].7.f.x.x.=.t.z.,.3.&.h.p.k.f./ *.t.6 3 9 r a Z m OXOX",
"OXOXOXOXOXOXOXOXOXOXOXOXOXOXOXOXOXOXOXOXOXOXOXOXOXOXOXOXOXOXOXn J g h d j Y.:.O.2.z.7.m.I.U.r.>.5.u.q.0.h.e.7.9 4 e s g D m OXOX",
"OXOXOXOXOXOXOXOXOXOXOXOXOXOXOXOXOXOXOXOXOXOXOXOXOXOXOXOXOXOXOXn H x d u c r.O.@.) j.0.6.0.0.0.h.d.f.,.%.2.7.7.3 h a d k D m OXOX",
"OXOXOXOXOXOXOXOXOXOXOXOXOXOXOXOXOXOXOXOXOXOXOXOXOXOXOXOXOXOXOXn J b d p k 6 r f ) 5 w 0 e q 0 9 9 7 0 9 0 e e 1 y a f k D m OXOX",
"OXOXOXOXOXOXOXOXOXOXOXOXOXOXOXOXOXOXOXOXOXOXOXOXOXOXOXOXOXOXOXn K N b k g 4 3 j $ & ; 3 ; - - = = - , * ; , y f 2 p l n J m OXOX",
"OXOXOXOXOXOXOXOXOXOXOXOXOXOXOXOXOXOXOXOXOXOXOXOXOXOXOXOXOXOXOXn H x b c l k x d t w d h k k g g i r y y y i y u p a f k F m OXOX",
"OXOXOXOXOXOXOXOXOXOXOXOXOXOXOXOXOXOXOXOXOXOXOXOXOXOXOXOXOXOXOXn P A C V M v k h h j d f f g g g g h g f d h z x c N V V L m OXOX",
"OXOXOXOXOXOXOXOXOXOXOXOXOXOXOXOXOXOXOXOXOXOXOXOXOXOXOXOXOXOXOXm K V M c b v l h x M k f f h k x j a u u j j c x v M m v H M OXOX",
"OXOXOXOXOXOXOXOXOXOXOXOXOXOXOXOXOXOXOXOXOXOXOXOXOXOXOXOXOXOXOXv H Z F S Z N C M m V Z A A A S S S S A C m m N M M N V Z K b OXOX",
"OXOXOXOXOXOXOXOXOXOXOXOXOXOXOXOXOXOXOXOXOXOXOXOXOXOXOXOXOXOXOXe k h h h h h h g g g g g g g g g g g g g g g h h h h h h h t OXOX",
"OXOXOXOXOXOXOXOXOXOXOXOXOXOXOXOXOXOXOXOXOXOXOXOXOXOXOXOXOXOXOXOXOXOXOXOXOXOXOXOXOXOXOXOXOXOXOXOXOXOXOXOXOXOXOXOXOXOXOXOXOXOXOXOX",
"OXOXOXOXOXOXOXOXOXOXOXOXOXOXOXOXOXOXOXOXOXOXOXOXOXOXOXOXOXOXOXOXOXOXOXOXOXOXOXOXOXOXOXOXOXOXOXOXOXOXOXOXOXOXOXOXOXOXOXOXOXOXOXOX",
"OXOXOXOXOXOXOXOXOXOXOXOXOXOXOXOXOXOXOXOXOXOXOXOXOXOXOXOXOXOXOXOXOXOXOXOXOXOXOXOXOXOXOXOXOXOXOXOXOXOXOXOXOXOXOXOXOXOXOXOXOXOXOXOX"
};
