/* XPM */
static char *result[] = {
/* columns rows colors chars-per-pixel */
"64 64 216 2 ",
"   c black",
".  c #010000",
"X  c #020000",
"o  c #030000",
"O  c #040000",
"+  c #050000",
"@  c #070000",
"#  c #080000",
"$  c #090000",
"%  c #0A0000",
"&  c #0B0000",
"*  c #0C0000",
"=  c #0D0000",
"-  c #0E0000",
";  c #0F0000",
":  c #100000",
">  c #110000",
",  c #120000",
"<  c #130000",
"1  c #140000",
"2  c #150000",
"3  c #160000",
"4  c #170000",
"5  c #180000",
"6  c #190000",
"7  c #1A0000",
"8  c #1B0000",
"9  c #1C0000",
"0  c #1D0000",
"q  c #1E0000",
"w  c #1F0000",
"e  c #200000",
"r  c #210000",
"t  c #220000",
"y  c #230000",
"u  c #240000",
"i  c #250000",
"p  c #260000",
"a  c #270000",
"s  c #280000",
"d  c #290000",
"f  c #2A0000",
"g  c #2B0000",
"h  c #2C0000",
"j  c #2D0000",
"k  c #2E0000",
"l  c #2F0000",
"z  c #300000",
"x  c #310000",
"c  c #320000",
"v  c #330000",
"b  c #340000",
"n  c #350000",
"m  c #360000",
"M  c #370000",
"N  c #380000",
"B  c #390000",
"V  c #3A0000",
"C  c #3B0000",
"Z  c #3C0000",
"A  c #3D0000",
"S  c #3E0000",
"D  c #3F0000",
"F  c #400000",
"G  c #410000",
"H  c #420000",
"J  c #430000",
"K  c #440000",
"L  c #450000",
"P  c #460000",
"I  c #470000",
"U  c #480000",
"Y  c #490000",
"T  c #4A0000",
"R  c #4B0000",
"E  c #4C0000",
"W  c #4D0000",
"Q  c #4E0000",
"!  c #4F0000",
"~  c #500000",
"^  c #510000",
"/  c #520000",
"(  c #530000",
")  c #540000",
"_  c #550000",
"`  c #560000",
"'  c #570000",
"]  c #580000",
"[  c #590000",
"{  c #5A0000",
"}  c #5B0000",
"|  c #5C0000",
" . c #5D0000",
".. c #5E0000",
"X. c #5F0000",
"o. c #600000",
"O. c #610000",
"+. c #620000",
"@. c #630000",
"#. c #640000",
"$. c #650000",
"%. c #660000",
"&. c #670000",
"*. c #680000",
"=. c #690000",
"-. c #6A0000",
";. c #6B0000",
":. c #6C0000",
">. c #6D0000",
",. c #6E0000",
"<. c #6F0000",
"1. c #700000",
"2. c #710000",
"3. c #720000",
"4. c #730000",
"5. c #740000",
"6. c #750000",
"7. c #760000",
"8. c #770000",
"9. c #780000",
"0. c #790000",
"q. c #7A0000",
"w. c #7B0000",
"e. c #7C0000",
"r. c #7D0000",
"t. c #7E0000",
"y. c #7F0000",
"u. c #800000",
"i. c #810000",
"p. c #820000",
"a. c #830000",
"s. c #840000",
"d. c #850000",
"f. c #860000",
"g. c #870000",
"h. c #880000",
"j. c #890000",
"k. c #8A0000",
"l. c #8B0000",
"z. c #8C0000",
"x. c #8D0000",
"c. c #8E0000",
"v. c #8F0000",
"b. c #900000",
"n. c #910000",
"m. c #920000",
"M. c #930000",
"N. c #940000",
"B. c #950000",
"V. c #960000",
"C. c #970000",
"Z. c #980000",
"A. c #990000",
"S. c #9A0000",
"D. c #9B0000",
"F. c #9C0000",
"G. c #9D0000",
"H. c #9E0000",
"J. c #9F0000",
"K. c #A00000",
"L. c #A10000",
"P. c #A20000",
"I. c #A30000",
"U. c #A40000",
"Y. c #A60000",
"T. c #A70000",
"R. c #A80000",
"E. c #A90000",
"W. c #AA0000",
"Q. c #AB0000",
"!. c #AC0000",
"~. c #AD0000",
"^. c #AE0000",
"/. c #AF0000",
"(. c #B00000",
"). c #B10000",
"_. c #B30000",
"`. c #B40000",
"'. c #B50000",
"]. c #B60000",
"[. c #B70000",
"{. c #B80000",
"}. c #B90000",
"|. c #BB0000",
" X c #BD0000",
".X c #BE0000",
"XX c #BF0000",
"oX c #C00000",
"OX c #C10000",
"+X c #C30000",
"@X c #C40000",
"#X c #C60000",
"$X c #C70000",
"%X c #CB0000",
"&X c #D20000",
"*X c #D30000",
"=X c #D40000",
"-X c #D50000",
";X c #D60000",
":X c #D70000",
">X c #D90000",
",X c #DA0000",
"<X c #DB0000",
"1X c #DD0000",
"2X c #DE0000",
"3X c #DF0000",
"4X c #E60000",
"5X c #E70000",
"6X c #E90000",
"7X c #EB0000",
"8X c #ED0000",
"9X c #F40000",
"0X c #F90000",
"qX c #FE0000",
"wX c red",
"eX c None",
/* pixels */
"eXeXeXeXeXeXeXeXeXeXeXeXeXeXeXeXeXeXeXeXeXeXeXeXeXeXeXeXeXeXeXeXeXeXeXeXeXeXeXeXeXeXeXeXeXeXeXeXeXeXeXeXeXeXeXeXeXeXeXeXeXeXeXeX",
"eXeXeXeXeXeXeXeXeXeXeXeXeXeXeXeXeXeXeXeXeXeXeXeXeXeXeXeXeXeXeXeXeXeXeXeXeXeXeXeXeXeXeXeXeXeXeXeXeXeXeXeXeXeXeXeXeXeXeXeXeXeXeXeX",
"eXeXeXeXeXeXeXeXeXeXeX      O 5 w s k k k k k k k k k k k k k k k k k k k k k k k k k k k k k p w 5 .       eXeXeXeXeXeXeXeXeXeX",
"eXeXeXeXeXeXeXeXeX    ; B Q X. .| ` ( / ( ( ( ( / ^ ( ` ' ' ] / ~ ^ / ` ` ` _ / ) ` ` ` ` ' ` ] [ ] ] P l %     eXeXeXeXeXeXeXeX",
"eXeXeXeXeXeXeX    + J -.o.] Q I F G A C D D H H S G H D Z A H V x n Z G Z S A C Z S M m A I C N V D T ( ] { c O     eXeXeXeXeXeX",
"eXeXeXeXeXeX    < O.X.E F C F v b n n n m d N Z m c v f v b V k i p h c m v A V M M N M z x c N S D A F G W ) R #     eXeXeXeXeX",
"eXeXeXeXeX    t =._ K A A Z Z B z n Z S Z C C N C B N x z V D L i s y h c l g l V C C B m N b m B V S F Z Z P ~ ) <   eXeXeXeXeX",
"eXeXeXeXeX  - #.^ I F V b b M M N z v z S H J ..! Y ^ Q R J ) Y a v n H R V J Y Y b N k y B C v d g h C b m N H ! ^ o   eXeXeXeX",
"eXeXeXeX  + { / A A S m c c b m i h | M.@X X*XXXw.c.+X4X4XN.1Xx.4.6.&.p.T.<.3.<X~.+.j.A J 9.= V c m M N V F F S P ~ I o   eXeXeX",
"eXeXeXeX  v ' U L H U K C G D V o.&XB.J ~.%. .$.*.1..Xv.3.3.2.<.o. .g._ ( .._ h.y.] | ~ r.G r.6 ^ a N V M V A N V Y ! 9   eXeXeX",
"eXeXeX  & | W Z J F J H Y p #.W.v K XXk.#.+.;.g...i.5.c.Y 8./ 1._ ] ) R H ( k G ,.I / W >.O.} Q J L a k n x b M n m Q ^   eXeXeX",
"eXeXeX  k ) J A V S V S q ~ +XV #.A.v.>.F =.W 6.~ w.6.j.Q 8.! } T M D @.o.8 v v / b k v L ] 7.| R.+.M y f c n c b N S ~ e   eXeX",
"eXeXeX  G ~ A m m c C G ] wX3.@.*.;.3.6.u.L ' 4.=.#.%.i.! 9.J ) H c v o.  l l r V m w M e W ,.<.<.*.f.t 1 t l n b M B W v   eXeX",
"eXeXeX  ! L N c l z d m 8XI.k.<.O.2.2.| w.! L &.| } | 9.O.@.Q ] G s c @ v 4 D 3 D u q F n e I 3.X.$.z.V.8 j p a j z c U J   eXeX",
"eXeXeX* ) N c l f d j C.`.e.l.8.@.=.<.6.3.=.&.9.$.-.%.d.5.6.Y =.o.I # t 2 9 T p G i 6 z l x e C &.;.b.#XT 5 v b m C Z J W   eXeX",
"eXeXeX4 ~ D B m c c e.0Xc.c.7.@.A :.=.*.4.>.[ :.{ +.,.k.6.h.S E *.^ v S A I W L E p 6 A k v v b b { 5.u.=.g 5 a h b V J !   eXeX",
"eXeXeXt ! D b h z c }.|.n.0.$.@.P / ..X.:.+.Q +.) &.2.x.:.Z.<.<.@.} E L ` ~ ` G ] V q H B z g R v z O.0.f.L k M y g B D Q @ eXeX",
"eXeXeXi E G I c p E <Xc.B.9.&.-._ O.4.<.=.&.o.7.O.d.3.z.$.b.p.v. .>.| X.{ o.3.] 2.:.G J b k u D L l c ) q.>.w v h l M Z Q # eXeX",
"eXeXeXi E N V x d #.,X6Xi.8.-.<.Y 7.*.+.<...O.b.h.5.4.=.&.-.O.4.*.@.$.{ O.%.-.d.B.q.^ ;.g N n d c T V H #.;.A.& d p b N E # eXeX",
"eXeXeXi W G b f y r.!.^.f.h.6.6.R r.e.-.7.$.:.y.} h 8 0 j 7 n r 0 7 8 q 8 a q b <.C./ 0.M n C m n N S Y E /.8.- a y l B E # eXeX",
"eXeXeXu Y x c l s 3X$.H.j.5.s.=.o.5.9.=.<...3.*.8 L y y g a m c a d t e 8 y M r _ '.*.+.) W V ` ..~ L [ Q 2./ * y t k C E # eXeX",
"eXeXeXu T v M m g 2Xo.h.h.&.s.<.~ E ! { $.O.6.Q = j M z n l n N M m b k j f d b e.h.i.>.T &.' ~ [ ) ` U L } ^ - 9 t g V E # eXeX",
"eXeXeXu I z h h Z ..S.V.d.e.s.6.m b ' =. .-.y.R * t z M N V V A S Z m c b x c f u.0.:.7.I Y ;.<.T | E ^ k ~ ^ q 7 r i M R # eXeX",
"eXeXeXy Y d s s b ` 8XM.i.s.a.:.] ' O.O.^ 7.s.J < y t p z V m S M m M l d l x s r.-X} >.#.Q K *. .R W ( Y ] -.w 9 r j E E # eXeX",
"eXeXeXy U z A h k B i.I.Q d.,.;._ } O.W { 2.D.:.I h z a p N G L K H Z B x b B ` 9X| 2. .T ` ~ K _ ] ` Y o.4.>.# r f J ! E # eXeX",
"eXeXeXy T b M f e @.).m.:.u.g.;.Q } ! I %.&.z.=X3.H.s } $.@.3.4.2.:.>.-.[ 8.oX0X_.r.e.*.~ { ~ / ] o.[ Z :.` U 6 a y z m E # eXeX",
"eXeXeXu T A M u r : 5.e.-.2.y.<.{ H D ] X.X.:.i.a.^.qXE.n.I.i.@.<.( U X.3.a.4.9.z.V.O.5.~ ~ T C E #.3.X.3._.i Z v r j N R # eXeX",
"eXeXeXu Y n V l a p b 2.s.' v.-.) G _ $.[ X.1.1.r.p.0.5.*.&.} +.%.*.*.e.6.4.a.i.v.4._ 7.) +.W T ' <.^ 7.g.U 9 j n p c v E # eXeX",
"eXeXeXu W c B k k e ~ l 2.4.2.O._ ~ ;.#./ #.=.>.#.,.1.j.,.p.) 5.X.<.1.4.0.5.0.6.5.q.( -.] J H I #.+.@.t.{ y V G V s v b ! # eXeX",
"eXeXeX6 ~ V F N x s d F X.>X@.,.` ' 8.@...>.O.&.{ =.8.i.%.u._ w.' ;.-.:.9.9.w.w.=.a.-.] | ] E { :.*.5.M.b T a N C s m V ~ X eXeX",
"eXeXeX$ ) M J n x s n Z N.>.s.>.( &.q.@.@.>.&.<.| *.,.b.=.y.W 9.( =.,.-.,.<.w.y.&.w.O.( ^ R ( o.4.' 2.T 5 4 b c D f M S W   eXeX",
"eXeXeX  Y V C c x d g n ; D.4...[ :.| | X.o.+.7.@.;.,.V.#.t.Q q. .*.=.=.<.5.8.d.y.:.) +.j m j c N _ q.2 B s N B G g m K Z   eXeX",
"eXeXeX# ) V A c j g j i [.T.t.} <.,.[ [ @.} ` 5.#.;.5.k.o.8.J 7.[ <.:.>.4.0.4.5.4.9.o.t.L | ] ' 3.-.z.j.X 9 g h m g v L E   eXeX",
"eXeXeX3 ~ b S v h f 3 t.A.o.P.&.6.1.+. ...o.;.$.#.3.8.g.$.y.W y. .1.<.6.0.0.r.e...9.@.0.{ |  .L #.:. X>.E > l j v j b V ~ . eXeX",
"eXeXeXu Q C A x j i X.#.%.B.m.[ %.' / E C ! } *.| @.;.;.Q -.V ,.` { ..} @.3.%.;.<.<.X.4.} X.^ T { ..q.V.N.=., d z h V m ! $ eXeX",
"eXeXeXi R Z J b n m K.} /.e.V.U +.) ` ' [ _ #.7.=.-.p.0.O.4.U }  .o.:.:.u.a.n.a.6.5. .@.O.&.%.-.e.O.8.B.(.^ q Z c k C S W $ eXeX",
"eXeXeXi R m K v z / J.}.[ -.M.U  .` ` W ~ $.1.<.-.R.U G D S S S F A S B V J ( -.l.d.*.o.#.:.$.1.p.o.3.0.V.u.r z l f N A E $ eXeX",
"eXeXeXi W N B g q w.2.0.,.X.7.~ [ X.Y J Y o.r.s.G ; = > > 3 n r q e 4 - > 1 - 8 o.!.8.u.q.6.o.-.9.] ,.4.3.d.K & u y l b E $ eXeX",
"eXeXeXu E M m s C >X^ d.4.0.p.3.p.-.,.<.<.} 7.;.3 x g f a z k g s l x b c n I V I $Xi.<.:.;.] o.<._ -.*.@.l.^ , p s b b R $ eXeX",
"eXeXeXu E H C b Z 5X{ x.7.y.g.4.t.-.;.:.*.=.l.J = r a s f h z d p i f r d j j f i.<.C.y.q.y.=.' :.` @.,.&.7.! : q g v B R $ eXeX",
"eXeXeXu W D x l U =.;.V.-.s.u.-.*.o.$.{ o.:.l.J > t j l a p a j l k k a g h c k :.R.5.s.i.u.1.E ;.[ 1.6...#.9.w i p x C R $ eXeX",
"eXeXeXu E J D z A v $Xr.4.y.i.&.X.( { ] &.;.q._ 3 M b b l k g j j c l g z b b t K.OX6.z.g.d.4.E -.o.,.u.*.s. .3 k v c Z W $ eXeX",
"eXeXeXu E F F M V %.OXu.+.2.9.#.&.] _ X.@.%.H._ R x K f x n j a s k a a j j Z ] {.o.w.d.c.g.y.X.k.=.8.u.-.N.~ # q k N V E $ eXeX",
"eXeXeXu R V M B a u.j.p.>.4.r.-.%.*.*.*.@.>.3.G.D.:XL.@.R #X/.[.Q.^. X+X.X%X7X;X$.c.:.s.j.d.e.6.k.$.t.u.&.v.L % w u l B E $ eXeX",
"eXeXeXi E B z c a n o.Y.-.q.t.;.-.X.o.@.*.9.d.P.e.+.]./ T z.U.e.r.1.D.G.~.'.V.i.j.b.=.e.<.f.u.,.q.#.8.9.#.t.f D g a v C E $ eXeX",
"eXeXeXi R A m v v a e.| &.r.q.-.>.*.=.*.} / <.n.i.+.c.r.O.3.O.6.<.{ t.-.0.M.w.0.6.r.%.1.;.j.1.$.1.o.,.2.7.T.< 9 i f k b W $ eXeX",
"eXeXeXp ! B b k l l g !.G.u.0.+.+.O.7.6.| ..7.b.e.Q s.e.8.=.+.-.d.9.{ 4.4.z.c.h.k.z.*.y.t.b.>.) 9.*.e.w.h.G h u d j z N ! $ eXeX",
"eXeXeX6 ~ z l f j a @.v +Xv.p.:.o.$.&.' ^ ! ) y.6.I j.+.=.2.} ] <.s.2.%.y.a.h.j.d.k.} :.6.i.X...:.3.M.u.&.i z k x v n N ~   eXeX",
"eXeXeX- ) B n z l g j { @.m.N.s.1.2.1.3.r.r.u.B.p.( r.8.5.0.f.0.5.a.C.f.8.7.,.w.7.3.} X.) ,.@.P o.;.t.8.I n j v b C Z G W   eXeX",
"eXeXeX  ^ H b v x f g : h ! c.r.y.r.9.1.6.s.s.B.d.` M.w.,.&.d.k.3.q.i.Z.r.w.-.:.*.2.o.O.-.y.:.X.{ *.a.) s : j m M B S T H   eXeX",
"eXeXeX  G R N m N z i u q i G y.l.h.k.f.g.r.e.p.4.R z.5.7.] -.a.a.6.3.u.B.9.7.w...*.:.<.w.N.,.O.u.e.} 8 3 t f M D C Z W x   eXeX",
"eXeXeX  x ! A M m m j d k w X.+._.a.C.z.f.6.t.n.a.| B.4.,.&.j.k.v.t.5.9.z.A.e.t.u.t.*.g.F.f.>.x.z.W 0 p V l c A D S K ~ w   eXeX",
"eXeXeX  ; / P N M x n h p t e l G #Xa.z.g.6.m.J.g. .j.-.{ 8.8.9.w.l.-.+.8.h.f.w.e.a.*.x.a.g.7.<.m y 8 f j h v D L G E W . eXeXeX",
"eXeXeXeX  M ~ L G A C M h d e k f < 0.^ 7.P.j.5.>.h.z.-.*.a.l.5.5.l.f.:.<.2.V.0.,.r.S.-.@.^ A < j w d j c N b n H U ~ q   eXeXeX",
"eXeXeXeX  # Q W Z n v v z f i a e l 4 i C 8 r u t 9 u w e l 0 e e q w e t t q e t y r i e & 4 d d k n b B C A V G ! P o   eXeXeX",
"eXeXeXeXeX  q / W Z F D G n l j c x l z s f s 3 w v r x u w b p 6 > < ; > : > > > < 5 1 5 6 r y p j s l x M b B Q ! #   eXeXeXeX",
"eXeXeXeXeX    f ^ W H F S A B B B m m v c b m B m n F B v v x c x h i p a p y w w t r r r y y p s g z x n N G Q ~ 7   eXeXeXeXeX",
"eXeXeXeXeXeX    a Q Q L F G K H C V N N M z v s g p i f l l l d g g f d h l h f s s g h v b n V Z S G F K Y ! T 1     eXeXeXeXeX",
"eXeXeXeXeXeXeX    > I Q E Y F V n c l l z k c B S G D V s p d z z x j f j n B Z H D x v A J L L H F S Y Q W Z #     eXeXeXeXeXeX",
"eXeXeXeXeXeXeXeX      w N Y R U J H F F S S D D Z A G H K F N M N C S L K D G F J L I P J H K I Y T T K x 4     eXeXeXeXeXeXeXeX",
"eXeXeXeXeXeXeXeXeXeX        3 w a l l l l l l l k k k k k k k k k k k k k k k k k l l l l l l j p q >       eXeXeXeXeXeXeXeXeXeX",
"eXeXeXeXeXeXeXeXeXeXeXeXeXeXeXeXeXeXeXeXeXeXeXeXeXeXeXeXeXeXeXeXeXeXeXeXeXeXeXeXeXeXeXeXeXeXeXeXeXeXeXeXeXeXeXeXeXeXeXeXeXeXeXeX",
"eXeXeXeXeXeXeXeXeXeXeXeXeXeXeXeXeXeXeXeXeXeXeXeXeXeXeXeXeXeXeXeXeXeXeXeXeXeXeXeXeXeXeXeXeXeXeXeXeXeXeXeXeXeXeXeXeXeXeXeXeXeXeXeX",
"eXeXeXeXeXeXeXeXeXeXeXeXeXeXeXeXeXeXeXeXeXeXeXeXeXeXeXeXeXeXeXeXeXeXeXeXeXeXeXeXeXeXeXeXeXeXeXeXeXeXeXeXeXeXeXeXeXeXeXeXeXeXeXeX"
};
