/* XPM */
static char *result[] = {
/* columns rows colors chars-per-pixel */
"64 64 214 2 ",
"   c black",
".  c #010000",
"X  c #020000",
"o  c #030000",
"O  c #040000",
"+  c #050000",
"@  c #060000",
"#  c #070000",
"$  c #080000",
"%  c #090000",
"&  c #0A0000",
"*  c #0B0000",
"=  c #0C0000",
"-  c #0D0000",
";  c #0E0000",
":  c #0F0000",
">  c #100000",
",  c #110000",
"<  c #120000",
"1  c #130000",
"2  c #140000",
"3  c #150000",
"4  c #160000",
"5  c #170000",
"6  c #180000",
"7  c #190000",
"8  c #1A0000",
"9  c #1B0000",
"0  c #1C0000",
"q  c #1D0000",
"w  c #1E0000",
"e  c #1F0000",
"r  c #200000",
"t  c #210000",
"y  c #220000",
"u  c #230000",
"i  c #240000",
"p  c #250000",
"a  c #260000",
"s  c #270000",
"d  c #280000",
"f  c #290000",
"g  c #2A0000",
"h  c #2B0000",
"j  c #2C0000",
"k  c #2D0000",
"l  c #2E0000",
"z  c #2F0000",
"x  c #300000",
"c  c #310000",
"v  c #320000",
"b  c #330000",
"n  c #340000",
"m  c #350000",
"M  c #360000",
"N  c #370000",
"B  c #380000",
"V  c #390000",
"C  c #3A0000",
"Z  c #3B0000",
"A  c #3C0000",
"S  c #3D0000",
"D  c #3E0000",
"F  c #3F0000",
"G  c #400000",
"H  c #410000",
"J  c #420000",
"K  c #430000",
"L  c #440000",
"P  c #450000",
"I  c #460000",
"U  c #470000",
"Y  c #480000",
"T  c #490000",
"R  c #4A0000",
"E  c #4B0000",
"W  c #4C0000",
"Q  c #4D0000",
"!  c #4E0000",
"~  c #4F0000",
"^  c #500000",
"/  c #510000",
"(  c #520000",
")  c #530000",
"_  c #540000",
"`  c #550000",
"'  c #560000",
"]  c #570000",
"[  c #580000",
"{  c #590000",
"}  c #5A0000",
"|  c #5B0000",
" . c #5C0000",
".. c #5D0000",
"X. c #5E0000",
"o. c #5F0000",
"O. c #600000",
"+. c #610000",
"@. c #620000",
"#. c #630000",
"$. c #640000",
"%. c #650000",
"&. c #660000",
"*. c #670000",
"=. c #680000",
"-. c #690000",
";. c #6A0000",
":. c #6B0000",
">. c #6C0000",
",. c #6D0000",
"<. c #6E0000",
"1. c #6F0000",
"2. c #700000",
"3. c #710000",
"4. c #720000",
"5. c #730000",
"6. c #740000",
"7. c #750000",
"8. c #760000",
"9. c #770000",
"0. c #780000",
"q. c #790000",
"w. c #7A0000",
"e. c #7B0000",
"r. c #7C0000",
"t. c #7D0000",
"y. c #7E0000",
"u. c #7F0000",
"i. c #800000",
"p. c #810000",
"a. c #820000",
"s. c #830000",
"d. c #840000",
"f. c #850000",
"g. c #860000",
"h. c #870000",
"j. c #880000",
"k. c #890000",
"l. c #8A0000",
"z. c #8B0000",
"x. c #8C0000",
"c. c #8D0000",
"v. c #8E0000",
"b. c #8F0000",
"n. c #900000",
"m. c #910000",
"M. c #920000",
"N. c #930000",
"B. c #940000",
"V. c #950000",
"C. c #960000",
"Z. c #970000",
"A. c #980000",
"S. c #990000",
"D. c #9A0000",
"F. c #9B0000",
"G. c #9C0000",
"H. c #9D0000",
"J. c #9E0000",
"K. c #9F0000",
"L. c #A00000",
"P. c #A10000",
"I. c #A20000",
"U. c #A30000",
"Y. c #A50000",
"T. c #A60000",
"R. c #A70000",
"E. c #A80000",
"W. c #A90000",
"Q. c #AA0000",
"!. c #AB0000",
"~. c #AC0000",
"^. c #AD0000",
"/. c #AE0000",
"(. c #AF0000",
"). c #B00000",
"_. c #B10000",
"`. c #B20000",
"'. c #B30000",
"]. c #B40000",
"[. c #B50000",
"{. c #B60000",
"}. c #B70000",
"|. c #B80000",
" X c #BA0000",
".X c #BB0000",
"XX c #BC0000",
"oX c #BE0000",
"OX c #BF0000",
"+X c #C10000",
"@X c #C20000",
"#X c #C40000",
"$X c #C50000",
"%X c #C60000",
"&X c #C70000",
"*X c #CA0000",
"=X c #CB0000",
"-X c #D00000",
";X c #D30000",
":X c #D80000",
">X c #D90000",
",X c #DB0000",
"<X c #DD0000",
"1X c #E00000",
"2X c #E30000",
"3X c #E50000",
"4X c #E70000",
"5X c #E80000",
"6X c #EC0000",
"7X c #EE0000",
"8X c #EF0000",
"9X c #F00000",
"0X c #FE0000",
"qX c None",
/* pixels */
"qXqXqXqXqXqXqXqXqXqXqXqXqXqXqXqXqXqXqXqXqXqXqXqXqXqXqXqXqXqXqXqXqXqXqXqXqXqXqXqXqXqXqXqXqXqXqXqXqXqXqXqXqXqXqXqXqXqXqXqXqXqXqXqX",
"qXqXqXqXqXqXqXqXqXqXqXqXqXqXqXqXqXqXqXqXqXqXqXqXqXqXqXqXqXqXqXqXqXqXqXqXqXqXqXqXqXqXqXqXqXqXqXqXqXqXqXqXqXqXqXqXqXqXqXqXqXqXqXqX",
"qXqXqXqXqXqXqXqXqXqXqX      = 8 t h l l l l l l l l l l l l l l l l l l l l h d p 6 =         qXqXqXqXqXqXqXqXqXqXqXqXqXqXqXqXqX",
"qXqXqXqXqXqXqXqXqX    t F ' .... .{ ] / _ [ { { ] { [ ' [ ' ] ` ` { { [ ' ] { | { [ ] _ U b 6 o     qXqXqXqXqXqXqXqXqXqXqXqXqXqX",
"qXqXqXqXqXqXqX    < ..&.X.( Y Y H L H m N B N B Y K L F C Z B J L H R R J G T P P ^ ` ) _ _ } } h @     qXqXqXqXqXqXqXqXqXqXqXqX",
"qXqXqXqXqXqX    F %.[ ! P C S G K H B s h f l b m C A M v c l n B N l B j v C S J J V A J K K Q ` ( V       qXqXqXqXqXqXqXqXqXqX",
"qXqXqXqXqX    L O.Q P S P J Z V m C Z y k n C B V Z D H G M j p f b m D B l M n k c M M G L H A F E ) ( 7     qXqXqXqXqXqXqXqXqX",
"qXqXqXqX    H ..W Z L M G G c N C D V 0 V U K C V S P Y / V v M P L T F A y d d n z b n N A Z D D G K / ) M     qXqXqXqXqXqXqXqX",
"qXqXqXqX  r ..W G Y J P M S C b e J 6.2.-X5XoX,X2X8XT.Z.f.x.i 0 P.( <Xx.,.l.9.e J b f C S C N B C C F U Q / C     qXqXqXqXqXqXqX",
"qXqXqX  o X.^ D m S S C N M S K a.7X6Xq.F 2.2X$XV..X0.3.w.-.( #.^ X.:.}.*X1.| /.J.q L e g m m c C A D H G R / N     qXqXqXqXqXqX",
"qXqXqX  g ] U U H J M V C b &.0XE.i.t.q.@.*.y.r.l.r.[ ! R V x V t I z U ) <.9.6.r.p.m >.q k M n Z N M M N S R ^ b     qXqXqXqXqX",
"qXqXqX  R ^ H I H C J M a s.&X&.r.s.p.o._ O.;.h.8.7.1.:.$.;.f S x ( $.W J 1.,.2.0.3.B.O.L.x w c n n b B A Z C W ^ 4   qXqXqXqXqX",
"qXqXqX@ ' G A Z V n s g h.1XE ].9.9.p.' Y P =.<.,.2.' ;.>.} C 9 7 S ! / Z L +.,.e.u.>.b.3X%.( , u k k x v N Z L ~ ! X   qXqXqXqX",
"qXqXqXd _ v l j g z B +.%X( s.9.$.@.<.Z K I } q.#.7.=.#.#.' U C q R P K P | ] ,.| ` *.p.c.M.;X} < y a j l v n b Z / b   qXqXqXqX",
"qXqXqXG W A C C v x C $XI 1.i.1.%.#.@.^ { I 2.r.5.8.-.@.' ~ G L W F Y J ^ X.#.^ ` | ..;.e.h.!._.z A c v v M C S S E W O   qXqXqX",
"qXqX  U R K Z x j f s.K D.,.5.+.^ ) X.U R L &.,.,.2.X.} O.( x 7 ^ ! ! j | Z ` ' | ^ ^ _ 9.i.Z.v.^ +., a x b M m C H / p   qXqXqX",
"qXqX. E I J G g i v OX1.r.K $.-.J ` _ G U b >.c.2.w.:.-.>.~ _ Q } S C *.5.O.T ] O.G I L <.g.j.M.8.K k < g g g z x c T ~ . qXqXqX",
"qXqX. E L H I F k g.x.z.3.T o.{ S L ' P T ! 8.s.g.s.r.i.m.w.q.%._  .y.y.k.>.@.K /  .T J *.9.t.i.X.,.Y  .F M x M N V G / 3   qXqX",
"qXqX. R Z x k A 0 #XY 0.,.U [ ( Y ] #.%.~ [ v.T.H.b.u.;.%.#.*.&.| 4.5./.G.q.;.] O.&.^ ^ *.1.w.k.>...~.y.: z z B L L H ~ g   qXqX",
"qXqX. R Z h j c V {.<.4.} Y o.{ ' :.7.O.~ 7.F.L.$.d 8 9 r q q 6 H d ^ N.A.T.l.t.>.1.:.*.6.y.y.a.^ ] 7.-.L p z j b A D W C   qXqX",
"qXqX. R F l c c ` ,.w.[ &.W #.) P &.8.3...5.F.[ 2 4 y v g h 4 s g g - s :.Z.-.X.] O.( E ] 9.>.%.^ [ :.%X} - w z z x B I Y   qXqX",
"qXqX. R F c x a / m.+.] ..U ] / ( %.3.o.) 5.8.k b d h h h b k g b g u q z.A.Q.l.q.N.r.<.8.N.F.j.P T <.t.w.J 9 a l v m C (   qXqX",
"qXqX. R H S A B +.$.@.U ' V ! ' Y #.6.' I :.oXs Z h h s z M B l m M v J B @XV.x.t.u.-.` ] 3.q.5.| F ] -.f.L w r f N G A ^ * qXqX",
"qXqX. R Z f l S > XX{ I ` M T _ Y { =.{ L &.(.d E C Z l g k g h f B Z k l.B S.2.q.6.-.( X.*.4.1.%.x D g.c.i.3 q j x m J ! 4 qXqX",
"qXqX. R H c h l ] A.X.Y E M ! _ n {  ._ ! [ !.a.4 m H M C C v b z h l D T ].l.o.] } ' ~ F o.*.~ L =.N s.l.C.q h f g n B E 8 qXqX",
"qXqX. R S x b d ' F  .{ [ V Y / V W | } H U z.Y.n.<.B { ( )  .U ^ { %.6.t.T...+.[ | @.( U :.-.} :.o.{ ' u.i.| : j b B C R w qXqX",
"qXqX. R Y C z k c 6 @.*.` b F Y p P | } H L <.M.p.P.9XU.' P c.*.Q B T.E.r._ 6.8.r.j.g.y.1.e.b.k.5.-.J H ' e.~ & t s j V Y q qXqX",
"qXqX. E G l f g k ) B.<.} A Z U c n | N N J P U >.o.' } ..>.o./ O.u.=.X.=.| %._ 6.@.:. .(  .0.3...W F ~ _ q.E i t h c N T q qXqX",
"qXqX. E P B v x b ; ( S.l.I @.! A J / { Y ' =.3.*.&.8.| ' X.$.H ;.^ { T / B A n C P _ Q S U E %.! N ` <.#.( #.s 4 e a g I q qXqX",
"qXqX  R U G N x k x x :X9. .;.} J ! ~ D E ! 2. .{ u.u.4.;.&.s.#.( t.r.{ #.+.] ] ^ -.-...O.&.$.0.-.' >.;.8...{ r r a b B Y q qXqX",
"qXqX  L U V C k z d p u &.a.8.#._ [ } N c B ~ E ] ` / ( o.Q | O.e.k.i.0.1.T { W O.;.>.>.u.q.f.b.k.} E ..q.>.h.r e t s c Y q qXqX",
"qXqXqXm ! n C j h v h ` G.I.A.6.`  .#.G ) I >._ { 1.X.=.2.O.*./ 8.w.1.*.O.W ! R ( .._ #.O.1.=.0.5.[ ( ' #.t.z.u r h B m U q qXqX",
"qXqXqX1 _ D K b k c j l y %.#.6.o.&.9.J P J | ' Q / ` R o.#.0...j.3.f.:.! ^ U A U F Y } ..+.&.=...m C / ,.>.@.i 3 y d m Y q qXqX",
"qXqXqX  ^ Y Z S N b l f 0 6 D >.<.>.f.~ E J ] 1.C S -.K U q.q.;.i.C.;.,.i.j.>.=.5.q.r.d.h.y.V.n.c.*.#.8.v.f...r t r p l U q qXqX",
"qXqXqX  m ~ G S C n x f h v > A ..t.p.L / Y ^ ! v h ` 9.^ { >.F >.;.6.&.7.:.@.X...} T d c Y ] { ) } ` J 5.2.' e 7 y g l I q qXqX",
"qXqXqX  , ' R G F F V N n n n c b ( } W !.r.:.r...[  .#.O.$.@.*.` 3.1.+.*.3.#.~ W V r 6 9 0 M P m K T [ 2.w.Q 9 i f l v Y q qXqX",
"qXqXqXqX  C T Y G D C A V m c u s 2 6 `.M l z x B Z Z F A Z L A C F T T 9.!.B.,.X./ T [ ( ( ] 1.} X.>.,.j.l.Q < g l n C R q qXqX",
"qXqXqXqX  $ J N N S C x g g x j p l N 6 , > : : , ; 8 i u n s c n T X.t ]  .&.O.O. ._ ` | %.[ o. ...} ' ;.1.C i z x v m T w qXqX",
"qXqXqXqX& [ ~ F P W Q Y T Y Y U U P L c b p y t q q p k h k x g g s i f R C.@.| P Y K Q W Z ]  .` I ( #.0.p.r f d d h z T 8 qXqX",
"qXqXqXqX% ( P P P Y ! Q I H H D F C F c l M b a g m b u s g l f y i p q #.S.c.d.7.6.4.:.p.d.S.Z.p.y.n.x.k.] > a k B h v Q 4 qXqX",
"qXqXqXqX% ( G K I H S F S z n b l c b c z l j s d j k f l j s h l z z c S.K 4.-.$.:.o. .=.<.<.s.5.4.u.8.7.V g a x x c V ^ = qXqX",
"qXqXqXqX% / G K P J b N H m u y d x z n M M h h h h f x d v m a p l t +.7.p.5.X.Q  .! R W L ^ } %.1.y.e.| p w f l x C H ~   qXqX",
"qXqXqXqX% / Z M h c B v V F z p y f k t g m M b j s d y 9 e p s V s P N ] H.0.-.X.;.R +.| ! Y =.$.9.w.a.R = w j v n V I U   qXqX",
"qXqXqXqX% / H G V j | =XK.`.XX`.W.}.#XJ.[.|.R.'.).U.^.T./.). X2.0 U q ( 2.2.p.r.<.1.<.;...O.>.q.D.V.s.4.u x u d M c B W N   qXqX",
"qXqXqXqX% / N M N h v.q.@.*.*.{ Y.3.<.:.7.*.X.+X4.*.2.>X8.r.~.u.K N ^ ,.=.$. .( ` ` } / [ [ o.4.p.J.9.D d 6 k n V n B Q f   qXqX",
"qXqXqXqX% / V v Z n B.} [ O.>.$.T  .,.[ :.3.q.-.;.:.l.q.r.h.d.p.*.( T U } ;.W ^ @.) } / { ( 7.p.f.6./ 2 9 f k x m c S ~ 3   qXqX",
"qXqXqXqX% / S c z Z _.C.6.{ &.X.!  .3.! / %.*.{ :.[ :.8.b.v.A.J.' F =.D o.*.O._ X.` W ! O.5.i.a.z.| x Z y l b b M v R E . qXqXqX",
"qXqXqXqX% / D Z D g h.4Xx.L { ` Z E ;.L ] o.Q H ..F G } 4.1.v.W.E #.0.*.*.%.^ ' @...&.| u.z.f.t.[ C [ e h j z z m V / i   qXqXqX",
"qXqXqXqX% / V j g y r.'.r.3.2.*.] ;.u.{ >.:.+.5.f.f.g.1.@.r.u.C.U #.s.V.q./ ` I / ,.t.s.p.v.V.#.x m 4 h k c V C V Y R O   qXqXqX",
"qXqXqXqX% / V k b l 2.=.:.,.5.1.[ } a.) { &.3.0.>.q.s.m.N.g.-.l.Y <.d.K.0.4.o.@.@.r.v.j.z.z.[ z M 1 s f k x n B H ^ v   qXqXqXqX",
"qXqXqXqX% / Z k j x s.oX2.:.y.9.+.o.5.R ) [ b.9.P ^ Y o.&.<.k.N.Z *.e.X.E p.m.a.:.e.q.c./.L 2 z y h f h z c v m ! E X   qXqXqXqX",
"qXqXqXqX% / C N z z v.].m.;.x.a.<.%.u.o.:...i.1.;.| { =.a.t.B.R.7.g.j...b 4.i.z.z.z.e. .s n 7 q k z c c v n v Y ~ 4   qXqXqXqXqX",
"qXqXqXqX% / n g b k D.z.6.>.F.j.8.7.p.| i.r.u.5.p.=.0.y.5.3.h.K.;.u.F.^ +.q.y.8.>.E l q b 4 g h N C N m C C T ^ n     qXqXqXqXqX",
"qXqXqXqX% / c g c n w.0.,.4.5.9.1.1.;.,.f.,.%.p.6.q.H.q.>.e.k.p.6.*.! C.X./ S l 1 a x j f d v m n N V A Z Y ^ M     qXqXqXqXqXqX",
"qXqXqXqX% / v k f f 7 i i e e r r e e r e r a y r w 0 e r w r a r / w.l u 3 = r 4 x n k x f k M Z V V S Y ~ B     qXqXqXqXqXqXqX",
"qXqXqXqX% / b x z c j 4 s g f 7 1 e j a 6 9 2 > h p : e f s r d A 6 ; : 5 7 9 q w e y p g j j z n C C ! ! M     qXqXqXqXqXqXqXqX",
"qXqXqXqX% / N z j g d g j d i i a r e r u q r y u t e p k l b N c j f s h l l l l c x x n m N m N U ~ ! 9     qXqXqXqXqXqXqXqXqX",
"qXqXqXqX% ^ F V m m x k h h h h g a a i f g k x c c b v x b b c x v v n c n M B V C A D D D H T ^ E M o     qXqXqXqXqXqXqXqXqXqX",
"qXqXqXqX% / J V n c z N A C A A S V C C B V A V M m v v x k x n v v N D M n n N C S Z Z L E W R c %     qXqXqXqXqXqXqXqXqXqXqXqX",
"qXqXqXqX% Q J G J J H F H H J K J G F D C N Z Z Z A B C D F A V D A Z G J K L P I Y T T D l 9 #     qXqXqXqXqXqXqXqXqXqXqXqXqXqX",
"qXqXqXqX+ v z z z z z z l l l l l l l l l l l l l l l l l l l l l z z z z z k f p 9 : X       qXqXqXqXqXqXqXqXqXqXqXqXqXqXqXqXqX",
"qXqXqXqXqXqXqXqXqXqXqXqXqXqXqXqXqXqXqXqXqXqXqXqXqXqXqXqXqXqXqXqXqXqXqXqXqXqXqXqXqXqXqXqXqXqXqXqXqXqXqXqXqXqXqXqXqXqXqXqXqXqXqXqX",
"qXqXqXqXqXqXqXqXqXqXqXqXqXqXqXqXqXqXqXqXqXqXqXqXqXqXqXqXqXqXqXqXqXqXqXqXqXqXqXqXqXqXqXqXqXqXqXqXqXqXqXqXqXqXqXqXqXqXqXqXqXqXqXqX",
"qXqXqXqXqXqXqXqXqXqXqXqXqXqXqXqXqXqXqXqXqXqXqXqXqXqXqXqXqXqXqXqXqXqXqXqXqXqXqXqXqXqXqXqXqXqXqXqXqXqXqXqXqXqXqXqXqXqXqXqXqXqXqXqX"
};
