/* XPM */
static char *_d9ad615b2df49a98ede10b1e874ab76GPmKaqsBVNQSVGxm[] = {
/* columns rows colors chars-per-pixel */
"64 64 201 2 ",
"   c None",
".  c #261F17",
"X  c #251E19",
"o  c #2A1E14",
"O  c #2D2415",
"+  c #2B241A",
"@  c #2F281A",
"#  c #24231A",
"$  c #342616",
"%  c #342817",
"&  c #342A1B",
"*  c #3A2D1C",
"=  c #3E2C13",
"-  c #36301F",
";  c #3D311C",
":  c #362D21",
">  c #3A2F22",
",  c #3C3323",
"<  c #432F1F",
"1  c #463417",
"2  c #44341C",
"3  c #4A361B",
"4  c #46381D",
"5  c #4B3B1E",
"6  c #523D1D",
"7  c #433423",
"8  c #463B23",
"9  c #4C3C24",
"0  c #473828",
"q  c #4A3324",
"w  c #523721",
"e  c #523C23",
"r  c #523E29",
"t  c #4D441F",
"y  c #55421C",
"u  c #5A451E",
"i  c #5C491E",
"p  c #634B1E",
"a  c #684E1C",
"s  c #60451A",
"d  c #69501F",
"f  c #4E4224",
"g  c #4F4128",
"h  c #534322",
"j  c #5A4522",
"k  c #5C4923",
"l  c #53432B",
"z  c #59462C",
"x  c #564A28",
"c  c #5D4C2C",
"v  c #594A34",
"b  c #604520",
"n  c #644C24",
"m  c #6A4E24",
"M  c #644D2C",
"N  c #6B4D29",
"B  c #655324",
"V  c #6C5224",
"C  c #6B532A",
"Z  c #6A562F",
"A  c #735425",
"S  c #7D5727",
"D  c #755A26",
"F  c #7A5B26",
"G  c #71532A",
"H  c #7A5629",
"J  c #755A2C",
"K  c #7C5C2C",
"L  c #6C5631",
"P  c #695835",
"I  c #765C32",
"U  c #795F38",
"Y  c #7B5F34",
"T  c #7D612D",
"R  c #7D6334",
"E  c #7C643A",
"W  c #78653B",
"Q  c #825E2C",
"!  c #835B27",
"~  c #825E31",
"^  c #84622D",
"/  c #8A642D",
"(  c #86682D",
")  c #8B6C2D",
"_  c #936C2F",
"`  c #846531",
"'  c #8B6533",
"]  c #8C6A33",
"[  c #82663A",
"{  c #856C3B",
"}  c #8A6D3C",
"|  c #876E33",
" . c #926D33",
".. c #9A6E35",
"X. c #956C39",
"o. c #996F38",
"O. c #8F7134",
"+. c #957234",
"@. c #9B7435",
"#. c #957933",
"$. c #9D7C33",
"%. c #957339",
"&. c #9B753A",
"*. c #95783C",
"=. c #9C793A",
"-. c #A4792F",
";. c #A17534",
":. c #A37B36",
">. c #A3753B",
",. c #A37C3B",
"<. c #AB7D3C",
"1. c #AA7F36",
"2. c #B07E3A",
"3. c #866C41",
"4. c #887040",
"5. c #937640",
"6. c #9C7C41",
"7. c #967B46",
"8. c #927D58",
"9. c #A17540",
"0. c #A27B40",
"q. c #AA7D42",
"w. c #9A803D",
"e. c #A48135",
"r. c #AB8237",
"t. c #A5823D",
"y. c #AC833C",
"u. c #AE8A3D",
"i. c #B3863D",
"p. c #B28B3D",
"a. c #BF983F",
"s. c #BD913E",
"d. c #A58341",
"f. c #AD8442",
"g. c #AC8A42",
"h. c #B28542",
"j. c #B38D43",
"k. c #BA8C43",
"l. c #B69243",
"z. c #BB9443",
"x. c #BD9946",
"c. c #BC9748",
"v. c #BC9B4B",
"b. c #B59941",
"n. c #A08552",
"m. c #B49850",
"M. c #B29452",
"N. c #C09746",
"B. c #C49C45",
"V. c #C29D49",
"C. c #C7A246",
"Z. c #C5A34B",
"A. c #CBA54A",
"S. c #C7A84E",
"D. c #CDAA4E",
"F. c #D2AC4D",
"G. c #D4A74C",
"H. c #C9A755",
"J. c #C6A852",
"K. c #CCAA52",
"L. c #C2A450",
"P. c #D2AD50",
"I. c #CFB45F",
"U. c #CCB155",
"Y. c #D3B454",
"T. c #DCB755",
"R. c #D7BA55",
"E. c #DBBC53",
"W. c #D4B55D",
"Q. c #D6BC5D",
"!. c #DCBE5B",
"~. c #DBB558",
"^. c #CEB461",
"/. c #CDB169",
"(. c #D4BA63",
"). c #DBBE62",
"_. c #D6BD6B",
"`. c #DFC157",
"'. c #DEC35A",
"]. c #E1C356",
"[. c #E1C65A",
"{. c #E4C95C",
"}. c #E8CA5F",
"|. c #DCC46A",
" X c #DECB6B",
".X c #D9C262",
"XX c #E3CB63",
"oX c #EACC66",
"OX c #EACB6A",
"+X c #EBD265",
"@X c #E6D469",
"#X c #EAD46C",
"$X c #EDDB6C",
"%X c #E2CE72",
"&X c #E3CA79",
"*X c #E5D672",
"=X c #EBD672",
"-X c #E6DA70",
";X c #EDDC75",
":X c #EBDB7B",
">X c #F1DD74",
/* pixels */
"                                                                                                                                ",
"                                                                                                                                ",
"                                                                                                                                ",
"      2 6 9 7                                                                                                                   ",
"      3 H Q A M v ,                                                                                                             ",
"      ; A @.>.' R M 9 ,                                                                                                         ",
"      % b ..q.<.@.K N b 9 ;                                                                                                     ",
"        3 H q.k.i.;.! V N c 0                                                                                                   ",
"        & 6 ~ :.i.i.<./ H G N r ,                                                                                               ",
"        + < j Q ..2.2.<.' ~ ~ G z >                                                                                             ",
"          + ; u H _ >.q.>.' ~ H N z >                                                                                           ",
"          # + < 6 G X.q.f.&.~ ~ K m z *                                                                                         ",
"            . $ < j Y o.q.q.o.Q I G m e >                                                                                       ",
"            + o = j N ~ &.q.9.' U J V n r ;                                                                                     ",
"              X * y N G Q o.q.9.' D m N n L g                                                                                   ",
"                O 3 n N S ' &.q.@.Q V n m 5.3.l                                                                                 ",
"                . $ e n m H ' X.&.o.^ m ^ ,.=.4.l                                                                               ",
"                  # $ 4 5 n G Q X.>.X.' M.e.,.>.3.l                                                                             ",
"                    # O * 2 e m Q &.d./.^.u.e.,.=.3.v                                                                           ",
"                      + $ % < w N .._.:X.XJ.l.y.:.5.8.g                                                                         ",
"                        + + % q C m. X-X*X).H.l.e.#.] R Z x                                                                     ",
"                          + ; z W ( a.XX;X=X(.V.p.@.] +.O.{ W Z l                                                               ",
"                            : 9 y V _ z.OX>XOXG.z.t.+.&.%.%.*.} Z 2                                                             ",
"                              , f i A / j.!.oXT.x.g.j.l.g.g.0.&.%.L 7                                                           ",
"                                ; f k A Q i.G.~.Z.v.|.(.^.L.g.f.f.=.I 7                                                         ",
"                                  - f j m S :.x.Z.I.*X%X XQ.b.y.h.:.=.U 9                                                       ",
"                                      9 u n F w.Q.%X:X:X*X|.v.y.=.:.1.=.[ h                                                     ",
"                                        4 u ^ l.R.*X:X:X-X(.H.y. .=.<.r.$.[ r                                                   ",
"                                        , j D $.A.oX-X;X@X.XW.y.%...,.i.u.d.[ r                                                 ",
"                                          f n *.v.Y.oX#X#X#XY.x.t.@.@.t.h.i.:.[ r                                               ",
"                                          8 k J 6.v.Y.@X>X+X[.D.z.y.=.$.y.i.r.,.[ 9                                             ",
"                                          , h n Y  .j.U.@X+XoX!.A.z.p.:.:.i.h.y.,.{ 9                                           ",
"                                          : 8 k V G A @.R.+X$X@X[.F.B.p.y.y.h.j.p.h.4.f                                         ",
"                                            * 1 5 6 s F y.E.+X$XoX[.P.B.p.r.y.j.j.p.g.{                                         ",
"                                              & ; 5 u V | g.R.@X#X{.'.F.B.z.p.i.j.l.p.g.3.                                      ",
"                                                @ 2 6 i K  .i.Y.}.+X'.'.~.K.B.l.j.k.s.g.g.3.                                    ",
"                                                  % 2 y m K _ p.F.].}.'.{.'.Y.V.z.z.l.l.k.q.E                                   ",
"                                                    & 4 u B ! +.r.B.`.[.'.{.`.Y.L.x.l.k.h.y.d.W                                 ",
"                                                      * 8 j V K _ i.A.!.'.'.].'.Y.Z.x.z.j.y.y.,.W                               ",
"                                                        & 8 u B Q +.i.A.!.`.[.{.'.R.S.x.z.y.1.-.7.P                             ",
"                                                          * 5 i A / ..y.C.!.E.].[.'.U.S.V.p.y.$.=.] c                           ",
"                                                            @ 5 p V Q  .y.B.R.R.'.{.!.R.S.v.j.:. .] R c                         ",
"                                                              & h B D T ' :.x.A.E.].'.E.Y.S.c.f.#./ ^ I x                       ",
"                                                                : h B J Q / =.s.A.R.`.'.R.P.Z.l.t. ./ T J g                     ",
"                                                                  & h B I I ^ +.j.C.T.R.T.F.A.l.t.#./ / Y C 8                   ",
"                                                                      h B V G S ) 1.B.F.F.D.D.B.g.$.] ` ^ F n ,                 ",
"                                                                        y n B A A ^ ;.s.A.A.A.A.p.&. .` ( K D c 0               ",
"                                                                          9 k B G G K _ p.B.C.A.x.:.+.] ( T D V c 0             ",
"                                                                            9 k n m V D _ i.k.B.b.p.d.#.| ` K D C k k l &       ",
"                                                                              8 k p n B A / <.i.k.l.g.+.( ( R ^ F d B C 9       ",
"                                                                                , j i p p A Q @.<.i.g.t.O.[ ` ] ( D K K j       ",
"                                                                                  2 h u i s m ! _ <.y.f.=.%.` ] %.] #.] x       ",
"                                                                                    , f u y y a ! X.>.=._ +. .] =.j.x.#.z       ",
"                                                                                      , 9 e j k n G ` X.+._ ) +.f.K.).w.9       ",
"                                                                                        , 9 6 e e j m D ] ] _ ,.v.%XW.{         ",
"                                                                                          * 2 5 6 6 y j G / o.d.|.&X7.          ",
"                                                                                            & 7 1 4 4 6 p ^ >.(.&Xn.l           ",
"                                                                                              & ; 2 2 5 a $.(.XX*.f             ",
"                                                                                                & * 1 p #.K.Z.| 5               ",
"                                                                                                X O = K %.O.B                   ",
"                                                                                                  + + 2 9 ;                     ",
"                                                                                                                                ",
"                                                                                                                                ",
"                                                                                                                                "
};
