/* XPM */
static char *_3376ff9d3004fb8f10254ae906b0caco0LXxRtUK9uHom6q[] = {
/* columns rows colors chars-per-pixel */
"30 30 2 1 ",
"  c None",
". c white",
/* pixels */
"              ..              ",
"              ..              ",
"              ..              ",
"              ..              ",
"           .  ..  .           ",
"         .  . .. .  .         ",
"       .. . . .. . . .        ",
"        .     ..    .. .      ",
"      ..      ..      ..      ",
"     . .      ..        .     ",
"      .       ..       .      ",
"    .                    .    ",
"     ..                ..     ",
"                              ",
"...........   ..   ...........",
"...........   ..   ...........",
"                              ",
"     ..                ..     ",
"    .                    .    ",
"      .       ..       .      ",
"     .        ..      . .     ",
"      ..      ..      ..      ",
"      . ..    ..     .        ",
"        . . . .. . . ..       ",
"         .  . .. .  .         ",
"           .  ..  .           ",
"              ..              ",
"              ..              ",
"              ..              ",
"              ..              "
};
